<?xml version="1.0" standalone="no"?>
<!DOCTYPE svg PUBLIC "-//W3C//DTD SVG 20010904//EN"
 "http://www.w3.org/TR/2001/REC-SVG-20010904/DTD/svg10.dtd">
<svg version="1.0" xmlns="http://www.w3.org/2000/svg"
 width="700.000000pt" height="700.000000pt" viewBox="0 0 700.000000 700.000000"
 preserveAspectRatio="xMidYMid meet">
<metadata>
Created by potrace 1.14, written by Peter Selinger 2001-2017
</metadata>
<g transform="translate(0.000000,700.000000) scale(0.100000,-0.100000)"
fill="#000000" stroke="none">
<path d="M22 6978 c-17 -17 -17 -6939 0 -6956 17 -17 6939 -17 6956 0 17 17
17 6939 0 6956 -17 17 -6939 17 -6956 0z m278 -3333 l0 -3275 -110 0 -110 0 0
3269 c0 1797 3 3271 7 3275 3 3 53 6 110 6 l103 0 0 -3275z m6330 3165 l0
-110 -1578 -2 -1577 -3 0 -30 0 -30 1577 -3 c1570 -2 1578 -2 1578 -22 0 -20
-8 -20 -3130 -20 l-3130 0 0 165 0 165 3130 0 3130 0 0 -110z m290 -2 l0 -108
-110 0 -110 0 0 103 c0 57 3 106 6 110 3 3 53 5 110 4 l104 -2 0 -107z m0
-3453 l0 -3275 -110 0 -110 0 0 165 c0 158 1 165 20 165 20 0 20 7 20 3090 0
3083 0 3090 -20 3090 -13 0 -20 7 -20 20 0 19 7 20 110 20 l110 0 0 -3275z
m-3412 2628 c-2 -10 -10 -18 -18 -18 -8 0 -16 8 -18 18 -2 12 3 17 18 17 15 0
20 -5 18 -17z m1140 -653 c155 -58 262 -212 249 -361 -9 -100 -54 -160 -209
-273 -43 -31 -78 -61 -78 -66 0 -6 -33 -10 -77 -10 l-78 -1 46 -24 c109 -57
188 -175 197 -294 8 -123 -29 -185 -176 -293 -53 -39 -102 -77 -108 -84 -7 -9
-43 -14 -110 -16 l-99 -3 48 -28 c192 -113 251 -355 120 -493 -15 -17 -72 -63
-126 -103 l-98 -72 -108 80 -108 79 -107 -80 -107 -79 -92 67 c-51 37 -102 76
-113 86 -13 12 -24 15 -28 10 -3 -6 -53 -45 -111 -87 l-105 -76 -115 86 -114
86 -63 -49 c-35 -26 -86 -65 -115 -85 l-52 -38 -98 74 c-107 80 -158 133 -179
183 -21 50 -18 154 7 219 25 67 112 166 169 192 22 10 40 21 40 26 0 4 -47 7
-105 7 -59 0 -105 4 -105 9 0 6 13 11 30 13 30 3 30 3 -27 43 -122 86 -171
133 -198 190 -24 49 -27 64 -23 128 3 42 13 92 26 119 26 61 103 142 167 179
l50 29 -102 0 c-57 0 -103 4 -103 9 0 5 6 11 12 13 7 3 -30 36 -83 75 -53 39
-110 88 -128 109 -90 109 -72 277 42 401 23 25 64 58 92 74 27 16 42 29 33 29
-19 0 -25 16 -8 22 5 2 519 2 1142 1 1113 -3 1132 -3 1186 -23z m-868 -2925
l0 -235 53 54 c100 103 224 104 322 3 61 -63 85 -126 92 -249 16 -250 -99
-409 -296 -408 -57 0 -128 25 -163 57 -17 15 -21 13 -66 -24 -26 -22 -51 -38
-57 -36 -7 2 -9 169 -7 480 2 327 -1 486 -8 504 -11 26 -47 49 -75 49 -8 0
-15 7 -15 15 0 11 10 13 48 9 26 -3 72 -1 102 4 30 5 58 10 63 11 4 0 7 -105
7 -234z m-2060 120 c0 -10 -10 -15 -34 -15 -26 0 -40 -7 -56 -27 -20 -26 -21
-33 -18 -431 3 -386 4 -404 22 -418 15 -10 53 -14 144 -14 185 0 221 24 249
170 11 53 21 80 30 80 10 0 13 -29 13 -135 0 -74 0 -137 0 -140 0 -3 -155 -7
-345 -8 -258 -1 -345 1 -345 10 0 6 15 15 33 18 70 15 67 -8 67 451 l0 413
-22 15 c-12 9 -35 16 -50 16 -18 0 -28 5 -28 15 0 13 26 15 170 15 144 0 170
-2 170 -15z m1686 -255 c55 -27 84 -67 84 -116 0 -47 -23 -74 -64 -74 -73 0
-105 76 -51 118 14 11 25 23 25 26 0 4 -15 15 -32 26 -47 28 -125 27 -169 -3
-134 -90 -149 -464 -22 -581 75 -70 208 -46 276 50 33 47 47 55 47 26 0 -21
-44 -84 -81 -119 -79 -72 -237 -71 -334 2 -114 88 -158 302 -94 470 30 80 115
167 185 189 65 21 171 14 230 -14z m1371 0 c24 -13 51 -40 64 -64 23 -40 24
-49 27 -303 4 -293 5 -297 66 -275 40 15 46 15 46 2 0 -22 -65 -50 -118 -50
-46 0 -58 4 -83 29 -18 19 -29 40 -29 58 l0 28 -30 -37 c-42 -51 -103 -78
-176 -78 -107 0 -164 48 -172 145 -5 67 9 105 55 146 38 33 43 35 183 85 63
22 103 43 119 61 22 25 23 33 18 105 -6 87 -23 123 -65 139 -37 15 -134 6
-165 -14 l-26 -17 30 -29 c54 -55 28 -131 -46 -131 -48 0 -75 29 -75 80 0 32
7 45 37 75 76 74 249 97 340 45z m817 1 c65 -41 70 -65 76 -356 3 -143 9 -266
13 -272 4 -7 26 -18 47 -24 22 -7 40 -16 40 -20 0 -4 -70 -9 -155 -11 -108 -2
-155 0 -155 8 0 6 15 15 32 20 54 16 58 35 58 289 0 127 -5 248 -10 269 -13
59 -40 80 -98 79 -59 -1 -103 -22 -137 -68 -47 -60 -55 -110 -55 -324 0 -217
4 -234 60 -246 70 -15 21 -25 -125 -25 -85 0 -155 4 -155 8 0 5 17 14 39 20
60 19 63 32 59 326 l-3 258 -28 24 c-15 13 -37 24 -48 24 -10 0 -19 7 -19 15
0 12 15 15 79 15 43 0 93 3 110 6 l31 7 0 -74 0 -73 29 46 c17 26 41 54 55 63
73 48 196 55 260 16z m-3232 -297 l3 -316 29 -25 c25 -21 37 -25 79 -20 54 5
91 28 124 77 37 54 43 95 43 308 0 202 0 203 -25 227 -13 14 -36 25 -50 25
-16 0 -25 6 -25 15 0 12 15 15 78 15 42 0 94 3 115 6 l37 7 0 -306 c0 -170 4
-317 10 -331 6 -17 22 -29 50 -37 64 -19 50 -34 -32 -34 -40 0 -92 -3 -115 -8
l-43 -7 0 72 0 72 -30 -47 c-75 -119 -280 -134 -345 -25 -18 30 -20 56 -25
294 -5 240 -7 264 -24 283 -11 12 -33 25 -50 29 -16 4 -31 13 -34 20 -2 8 26
12 95 15 54 1 106 4 115 5 16 2 17 -23 20 -314z m-992 -990 l0 -85 26 20 c26
21 79 28 100 13 25 -16 34 -56 34 -147 0 -90 1 -96 23 -105 16 -6 6 -9 -43 -9
-49 0 -61 2 -47 10 14 8 17 25 17 112 0 56 -4 108 -9 116 -14 21 -62 16 -83
-9 -26 -33 -27 -216 0 -223 9 -3 -12 -5 -48 -5 -48 -1 -59 2 -42 8 22 9 22 12
22 184 0 169 -1 175 -22 190 -22 15 -21 16 25 16 l47 0 0 -86z m1020 0 l0 -85
26 20 c95 74 197 -71 138 -195 -27 -58 -104 -82 -151 -49 -18 13 -22 13 -33 0
-7 -8 -16 -15 -21 -15 -5 0 -9 85 -9 189 0 185 -1 190 -22 205 -22 15 -21 16
25 16 l47 0 0 -86z m1237 68 c-11 -12 -17 -36 -17 -70 0 -50 1 -52 28 -53 l27
-2 -28 -4 -28 -4 3 -112 c3 -108 4 -112 28 -124 22 -11 18 -13 -45 -13 -52 1
-66 3 -52 11 15 9 17 26 17 124 0 112 -1 115 -22 116 -22 2 -23 2 -2 6 17 3
23 14 28 48 8 48 39 95 63 95 14 0 14 -2 0 -18z m73 3 c17 -20 8 -50 -15 -50
-13 0 -21 8 -23 23 -2 13 2 22 10 22 10 0 9 3 -2 10 -13 8 -13 10 1 10 9 0 22
-7 29 -15z m-2525 -32 c31 -15 37 -15 45 -3 7 10 10 -5 9 -45 l0 -60 -19 41
c-23 53 -54 74 -106 74 -35 0 -47 -5 -68 -30 -64 -77 -61 -236 5 -303 27 -26
35 -29 76 -24 53 6 83 31 99 85 12 37 12 37 13 -28 0 -43 -2 -60 -9 -50 -8 12
-14 12 -45 -3 -75 -36 -157 -14 -209 56 -32 44 -35 158 -4 217 43 83 129 113
213 73z m2907 0 c23 -14 32 -15 35 -5 9 26 23 10 22 -25 0 -36 -17 -93 -18
-65 -2 30 -33 80 -57 91 -71 32 -135 0 -159 -81 -39 -133 11 -268 100 -268 67
0 113 41 116 103 1 21 1 20 9 -3 11 -35 12 -100 1 -100 -5 0 -11 6 -14 13 -3
9 -13 8 -41 -5 -52 -25 -115 -23 -157 5 -105 69 -104 263 1 335 41 28 118 30
162 5z m-2313 -109 c18 -23 21 -41 21 -132 0 -99 1 -104 20 -99 24 6 27 -8 4
-17 -27 -10 -44 -7 -61 13 -16 20 -17 20 -41 0 -49 -38 -112 -13 -112 45 0 40
19 59 85 83 47 17 50 21 53 56 4 46 -11 67 -48 67 -35 0 -42 -8 -29 -32 8 -15
7 -24 -3 -35 -20 -19 -48 -6 -48 23 0 30 41 53 97 54 33 0 46 -5 62 -26z m171
1 l0 -24 25 24 c34 34 86 34 114 0 15 -21 21 -23 28 -12 21 37 94 49 125 20
15 -13 18 -32 18 -117 0 -103 4 -119 30 -129 8 -3 -14 -5 -50 -5 -36 0 -57 2
-48 5 23 6 32 57 26 150 -6 82 -20 106 -59 96 -38 -10 -49 -42 -49 -144 0 -85
2 -98 18 -102 9 -3 -10 -5 -43 -6 -45 0 -56 2 -42 10 14 8 17 25 17 112 0 56
-4 107 -8 114 -18 28 -73 15 -90 -23 -7 -14 -12 -63 -12 -109 0 -69 3 -86 18
-94 13 -8 1 -10 -48 -10 -49 0 -59 3 -42 9 21 9 22 15 22 121 0 106 -1 111
-22 117 -20 6 -19 7 12 13 58 11 60 10 60 -16z m845 19 c19 -8 45 -55 45 -84
0 -18 -6 -20 -81 -20 l-82 0 5 -52 c9 -87 80 -127 133 -73 14 13 25 20 25 15
0 -6 -9 -19 -20 -30 -46 -46 -130 -36 -167 19 -43 64 -23 184 36 216 27 15 78
19 106 9z m175 -20 l0 -27 26 27 c29 29 65 34 84 11 17 -20 8 -50 -15 -50 -15
0 -20 7 -20 28 1 31 -3 33 -31 12 -33 -23 -45 -65 -42 -145 3 -68 5 -76 28
-87 22 -11 18 -13 -45 -13 -52 1 -66 3 -52 11 14 9 17 26 17 120 0 95 -2 111
-17 117 -14 5 -12 8 12 13 51 11 55 10 55 -17z m468 10 c33 -23 52 -67 52
-124 0 -91 -42 -140 -118 -140 -37 0 -50 6 -78 34 -32 32 -34 37 -34 106 0 69
2 74 34 106 28 28 41 34 78 34 24 0 54 -7 66 -16z m950 0 c33 -23 52 -67 52
-124 0 -91 -42 -140 -118 -140 -37 0 -50 6 -78 34 -32 32 -34 37 -34 106 0 69
2 74 34 106 28 28 41 34 78 34 24 0 54 -7 66 -16z m183 -11 c0 -16 0 -71 -1
-125 -1 -84 1 -98 17 -107 14 -8 4 -10 -47 -10 -49 0 -59 3 -42 9 21 9 22 15
22 121 0 106 -1 111 -22 117 -20 6 -19 7 12 13 58 11 60 10 61 -18z m133 11
c9 -8 16 -20 16 -26 0 -5 14 2 31 16 35 30 83 34 111 9 15 -13 18 -32 18 -117
0 -103 4 -119 30 -129 8 -3 -14 -5 -50 -5 -36 0 -57 2 -48 5 10 2 21 15 24 28
8 31 1 201 -8 210 -15 16 -62 7 -80 -15 -26 -32 -27 -204 0 -219 13 -8 3 -10
-43 -10 -46 0 -56 2 -42 10 14 8 17 25 17 112 0 56 -4 107 -8 113 -15 21 -41
23 -66 3 -14 -11 -26 -16 -26 -10 0 35 95 54 124 25z m326 -11 l0 -27 28 27
c36 35 85 36 114 4 l21 -23 23 23 c27 27 79 31 110 9 16 -12 19 -29 22 -126 4
-103 5 -112 25 -120 16 -6 5 -9 -42 -9 -55 -1 -62 1 -48 12 15 11 17 27 15
122 l-3 110 -31 3 c-52 5 -68 -24 -72 -134 -4 -91 -3 -94 20 -103 18 -8 8 -10
-42 -9 -36 0 -57 2 -47 5 15 4 17 18 17 118 0 99 -2 116 -17 123 -52 27 -93
-37 -93 -145 0 -71 5 -86 30 -96 8 -3 -14 -5 -50 -5 -36 0 -58 2 -49 5 23 6
29 33 29 131 0 68 -3 85 -19 101 -20 20 -19 20 12 24 18 2 35 5 40 5 4 1 7
-10 7 -25z m575 2 c16 -15 25 -36 25 -55 l0 -30 -80 0 -80 0 0 -35 c0 -96 79
-147 137 -89 14 14 27 23 30 20 3 -3 -8 -19 -25 -36 -53 -52 -149 -34 -178 35
-30 72 -5 177 48 202 42 21 96 15 123 -12z m155 -2 l0 -27 28 27 c43 41 97 33
90 -14 -2 -16 -10 -24 -23 -24 -16 0 -20 6 -18 28 2 33 -11 34 -42 3 -28 -28
-37 -70 -33 -151 3 -52 6 -61 28 -72 22 -11 18 -13 -45 -12 -38 1 -62 3 -52 6
15 4 17 18 17 119 0 100 -2 116 -17 122 -14 5 -12 8 12 13 51 11 55 10 55 -18z
m338 11 c12 -8 22 -26 22 -40 0 -19 -5 -24 -26 -24 -23 0 -25 3 -22 33 3 30 1
32 -29 35 -46 5 -73 -41 -73 -121 0 -113 64 -164 127 -101 14 14 27 23 30 20
3 -3 -8 -19 -25 -36 -35 -35 -92 -41 -130 -14 -75 52 -69 207 10 250 32 18 89
17 116 -2z m257 -9 c14 -13 25 -31 25 -39 0 -8 3 -21 6 -30 5 -14 -6 -16 -80
-16 l-86 0 0 -30 c0 -99 78 -153 137 -94 14 14 27 23 30 20 3 -3 -8 -19 -25
-36 -53 -52 -143 -35 -176 34 -46 98 12 216 106 216 28 0 46 -7 63 -25z m285
-670 l0 -165 -3130 0 -3130 0 0 110 0 110 1575 0 c1480 0 1575 1 1584 17 6 11
6 24 0 35 -9 17 -86 18 -1584 18 -1568 0 -1575 0 -1575 20 0 20 7 20 3130 20
l3130 0 0 -165z m-6330 -55 l0 -110 -110 0 -110 0 0 110 0 110 110 0 110 0 0
-110z"/>
<path d="M2505 5301 c28 -16 63 -43 79 -60 l30 -31 35 34 c20 19 56 46 81 60
l45 26 -160 0 -160 0 50 -29z"/>
<path d="M2930 5305 c25 -13 63 -42 85 -64 l39 -41 46 44 c25 24 63 53 85 64
l40 21 -170 0 -170 0 45 -24z"/>
<path d="M3385 5301 c28 -16 65 -44 83 -63 l32 -34 46 42 c25 23 64 52 87 63
l42 21 -170 0 -170 0 50 -29z"/>
<path d="M3846 5292 c32 -22 67 -48 77 -59 17 -20 18 -19 58 18 23 21 60 47
83 59 l41 20 -159 0 -159 0 59 -38z"/>
<path d="M4277 5291 c33 -21 69 -50 79 -64 l19 -24 47 42 c26 24 67 52 90 64
l43 21 -169 0 -169 0 60 -39z"/>
<path d="M2515 4720 l-100 -75 97 -3 c53 -1 143 -1 200 0 l103 3 -100 75 -100
75 -100 -75z"/>
<path d="M2945 4721 l-100 -76 108 -3 c60 -1 154 -1 210 0 l102 3 -69 50 c-38
28 -84 62 -102 78 -17 15 -36 27 -40 26 -5 -1 -54 -35 -109 -78z"/>
<path d="M3391 4719 l-104 -79 213 0 c132 0 210 4 205 9 -19 18 -190 144 -200
146 -5 2 -57 -33 -114 -76z"/>
<path d="M4272 4722 l-103 -77 106 -3 c58 -1 153 -1 211 0 l106 3 -103 75
c-56 41 -105 76 -108 77 -3 0 -52 -33 -109 -75z"/>
<path d="M3837 4717 l-97 -72 100 -3 c55 -1 146 -1 202 0 l101 3 -97 73 c-54
39 -101 72 -105 72 -3 0 -50 -33 -104 -73z"/>
<path d="M2705 4598 c22 -11 61 -40 86 -64 l45 -45 43 41 c23 22 63 51 89 65
l47 24 -175 0 -175 0 40 -21z"/>
<path d="M3165 4591 c28 -16 66 -45 85 -65 l34 -36 36 34 c19 20 60 49 90 65
l55 31 -175 0 -175 0 50 -29z"/>
<path d="M3601 4600 c19 -10 58 -39 86 -64 l50 -45 34 35 c19 20 57 49 84 65
l50 29 -170 -1 -170 0 36 -19z"/>
<path d="M4049 4598 c25 -12 65 -41 90 -65 l45 -43 40 39 c23 22 61 51 86 65
l45 26 -175 0 -175 0 44 -22z"/>
<path d="M2731 4009 l-104 -79 206 0 c114 0 207 2 207 5 0 4 -191 149 -200
151 -3 1 -52 -34 -109 -77z"/>
<path d="M3182 4012 l-103 -77 106 -3 c58 -1 152 -1 208 0 l102 3 -86 62 c-47
34 -92 69 -99 77 -7 9 -15 16 -19 15 -3 0 -52 -35 -109 -77z"/>
<path d="M3704 4069 c-10 -12 -54 -46 -96 -76 -43 -30 -78 -56 -78 -59 0 -2
93 -4 208 -4 237 1 227 -11 79 98 -47 34 -87 62 -90 62 -2 0 -12 -9 -23 -21z"/>
<path d="M4160 4074 c-7 -8 -52 -43 -99 -77 l-86 -62 108 -3 c59 -1 154 -1
209 0 l101 3 -64 44 c-35 25 -82 60 -105 78 -47 38 -47 38 -64 17z"/>
<path d="M2870 3906 c0 -2 24 -18 53 -34 29 -17 68 -47 85 -67 l33 -37 38 40
c22 22 60 52 85 67 25 15 46 29 46 31 0 2 -76 4 -170 4 -93 0 -170 -2 -170 -4z"/>
<path d="M3330 3905 c0 -2 18 -14 40 -25 21 -11 58 -38 81 -60 l42 -39 46 40
c25 23 63 50 84 60 20 11 37 22 37 24 0 3 -74 5 -165 5 -91 0 -165 -2 -165 -5z"/>
<path d="M3780 3906 c0 -2 20 -16 43 -30 24 -13 58 -39 76 -55 l33 -31 46 39
c26 21 62 46 80 55 17 9 32 19 32 21 0 3 -70 5 -155 5 -85 0 -155 -2 -155 -4z"/>
<path d="M3885 2237 c-23 -13 -52 -43 -70 -71 l-30 -49 -3 -228 -3 -228 42
-28 c59 -39 150 -44 198 -11 47 31 69 71 87 159 19 89 14 277 -10 354 -34 111
-121 153 -211 102z"/>
<path d="M4640 1931 c-127 -68 -150 -96 -150 -181 0 -46 4 -62 24 -83 51 -55
128 -48 193 18 l43 42 0 132 c0 72 -1 130 -2 130 -2 -1 -50 -27 -108 -58z"/>
<path d="M2433 920 c-34 -14 -43 -42 -43 -139 0 -79 2 -92 19 -101 52 -27 96
3 106 74 10 62 -2 133 -26 157 -21 21 -24 22 -56 9z"/>
<path d="M1698 799 c-44 -22 -62 -52 -54 -84 8 -31 41 -41 71 -21 22 14 25 24
25 71 0 30 -1 55 -2 55 -2 -1 -20 -10 -40 -21z"/>
<path d="M2697 913 c-8 -10 -19 -30 -22 -45 l-7 -28 56 0 c53 0 56 1 56 26 0
58 -48 85 -83 47z"/>
<path d="M3324 909 c-15 -16 -20 -40 -22 -103 -3 -71 -1 -84 18 -108 26 -33
60 -36 86 -7 16 17 19 37 19 109 0 72 -3 92 -19 109 -24 27 -58 27 -82 0z"/>
<path d="M4271 904 c-17 -22 -21 -41 -21 -104 0 -86 22 -130 64 -130 45 0 61
33 61 130 0 72 -3 92 -19 109 -26 29 -60 26 -85 -5z"/>
<path d="M5486 908 c-8 -13 -17 -33 -21 -45 -6 -22 -4 -23 49 -23 53 0 56 1
56 26 0 61 -54 88 -84 42z"/>
<path d="M6236 908 c-8 -13 -17 -33 -21 -45 -6 -22 -4 -23 55 -23 l60 0 -6 28
c-4 15 -11 35 -16 45 -13 24 -55 22 -72 -5z"/>
</g>
</svg>
