<?xml version="1.0" standalone="no"?>
<!DOCTYPE svg PUBLIC "-//W3C//DTD SVG 20010904//EN"
 "http://www.w3.org/TR/2001/REC-SVG-20010904/DTD/svg10.dtd">
<svg version="1.0" xmlns="http://www.w3.org/2000/svg"
 width="700.000000pt" height="700.000000pt" viewBox="0 0 700.000000 700.000000"
 preserveAspectRatio="xMidYMid meet">
<metadata>
Created by potrace 1.14, written by Peter Selinger 2001-2017
</metadata>
<g transform="translate(0.000000,700.000000) scale(0.100000,-0.100000)"
fill="#000000" stroke="none">
<path d="M802 6617 c11 -54 6 -855 -6 -879 -8 -17 3 -18 153 -18 l161 0 0 433
c0 237 4 449 9 470 l9 37 -168 0 -168 0 10 -43z"/>
<path d="M3425 6223 l0 -437 -23 -12 -23 -11 23 -15 c87 -56 186 -48 263 23
73 68 74 74 77 507 l3 382 -160 0 -160 0 0 -437z"/>
<path d="M1606 6473 c5 -10 11 -144 14 -298 5 -263 6 -282 27 -321 67 -125
227 -171 348 -100 44 26 95 95 95 130 0 26 17 10 23 -23 8 -40 63 -100 112
-122 54 -25 128 -24 182 2 47 23 53 34 23 42 -21 5 -21 10 -18 356 l3 351
-167 0 -167 0 10 -32 c12 -45 11 -494 -1 -540 -14 -48 -52 -78 -101 -78 -69 0
-71 7 -67 332 2 156 7 291 12 301 8 16 -4 17 -164 17 -160 0 -172 -1 -164 -17z"/>
<path d="M2840 6480 c-162 -34 -297 -180 -316 -341 -23 -203 138 -399 344
-416 168 -14 343 77 422 218 l24 44 -43 -37 c-58 -49 -127 -72 -201 -65 -73 6
-127 35 -178 92 -56 64 -76 127 -70 229 9 158 88 266 196 266 49 0 86 -28 103
-77 16 -48 6 -162 -20 -237 -12 -33 -21 -61 -21 -64 0 -3 47 62 104 144 123
175 124 162 -28 213 -105 34 -237 47 -316 31z"/>
<path d="M3933 6481 c-56 -14 -120 -59 -152 -108 -37 -55 -40 -75 -8 -45 59
56 156 3 198 -106 31 -83 24 -196 -17 -272 -23 -44 -39 -60 -78 -79 -47 -24
-51 -24 -92 -9 l-43 15 19 -27 c54 -76 129 -121 215 -128 81 -6 148 22 210 89
148 158 146 427 -4 592 -55 61 -172 97 -248 78z"/>
<path d="M5443 6481 c-18 -5 -44 -16 -58 -25 l-26 -17 21 -17 c21 -17 21 -23
18 -360 l-3 -342 167 0 168 0 -10 26 c-13 34 -13 499 1 547 17 63 97 97 145
63 18 -14 19 -29 19 -298 0 -156 -3 -295 -8 -310 l-7 -28 171 0 c159 0 171 1
163 18 -4 9 -11 143 -14 298 l-5 281 -30 49 c-35 56 -111 108 -174 118 -56 9
-133 -10 -181 -45 -44 -32 -80 -83 -80 -112 0 -26 -17 -12 -25 20 -23 93 -149
159 -252 134z"/>
<path d="M4770 6462 c-45 -6 -114 -32 -140 -52 l-25 -21 27 7 c35 8 89 -11
116 -39 16 -17 62 -143 62 -169 0 -3 -35 -9 -77 -13 -94 -9 -207 -36 -260 -64
-62 -31 -110 -91 -119 -147 -14 -94 37 -188 130 -237 63 -33 184 -31 251 5 51
27 88 61 118 110 23 38 21 41 -8 13 -19 -19 -35 -25 -71 -25 -99 0 -146 104
-98 220 19 43 67 95 106 111 16 6 30 10 32 8 1 -2 19 -67 40 -144 47 -174 63
-212 108 -251 71 -63 181 -71 257 -21 40 27 76 72 48 62 -30 -12 -47 26 -102
230 -60 223 -88 288 -144 337 -65 57 -171 91 -251 80z"/>
<path d="M1519 5934 c-42 -80 -196 -182 -305 -202 -39 -8 -12 -10 128 -11
l177 -1 5 53 c11 109 16 187 13 187 -2 0 -10 -12 -18 -26z"/>
<path d="M2210 4785 c13 -14 26 -25 28 -25 3 0 -5 11 -18 25 -13 14 -26 25
-28 25 -3 0 5 -11 18 -25z"/>
<path d="M2455 4706 c-16 -7 -41 -25 -54 -40 l-25 -26 -30 27 -31 28 28 -31
c27 -30 27 -31 12 -67 -48 -114 11 -280 212 -595 64 -99 89 -131 102 -128 9 3
88 26 176 51 286 82 283 81 294 123 56 216 102 405 98 408 -6 7 -305 143 -407
185 -178 75 -304 97 -375 65z"/>
<path d="M4385 4705 c-88 -19 -167 -51 -397 -163 l-207 -100 16 -49 c9 -26 39
-127 67 -223 l51 -174 40 -12 c197 -59 391 -114 401 -114 7 0 49 60 93 134
180 302 231 451 197 568 -33 113 -129 162 -261 133z"/>
<path d="M2570 3064 c-228 -271 -285 -400 -230 -523 17 -36 18 -47 8 -60 -12
-14 -11 -14 5 -2 15 12 20 12 35 -1 9 -9 33 -24 52 -34 47 -25 203 -25 320 0
101 21 432 115 441 124 4 4 -21 115 -55 246 l-61 239 -190 64 c-104 35 -197
65 -205 67 -10 3 -52 -40 -120 -120z"/>
<path d="M4177 3107 c-123 -41 -222 -79 -227 -87 -11 -21 -123 -421 -119 -424
13 -10 420 -119 494 -132 133 -24 240 -16 301 22 125 77 126 226 3 405 -41 59
-229 292 -233 288 -1 0 -99 -33 -219 -72z"/>
<path d="M3612 1059 c-47 -10 -72 -36 -72 -76 0 -26 -4 -33 -20 -33 -16 0 -20
-7 -20 -30 0 -23 4 -30 20 -30 19 0 20 -7 20 -110 l0 -110 35 0 35 0 0 110 0
110 40 0 c38 0 40 2 40 30 0 28 -2 30 -40 30 -32 0 -40 4 -40 19 0 29 25 44
60 36 30 -7 30 -7 34 37 1 16 -51 26 -92 17z"/>
<path d="M1110 865 l0 -195 35 0 35 0 0 93 c0 103 12 127 61 127 42 0 49 -17
49 -122 l0 -98 35 0 35 0 0 105 c0 110 -12 156 -45 169 -33 12 -83 6 -109 -15
l-26 -20 0 75 0 76 -35 0 -35 0 0 -195z"/>
<path d="M2220 865 l0 -195 35 0 c25 0 35 4 35 16 0 13 5 12 26 -5 51 -40 134
-17 160 44 29 71 11 175 -37 209 -33 22 -91 20 -123 -5 l-26 -20 0 75 0 76
-35 0 -35 0 0 -195z m179 11 c19 -23 25 -83 11 -116 -21 -50 -86 -53 -108 -4
-17 35 -15 86 4 112 18 26 74 31 93 8z"/>
<path d="M809 1017 c-19 -12 -44 -42 -57 -67 -20 -38 -23 -56 -19 -112 5 -84
29 -126 87 -156 82 -42 181 -19 220 52 14 25 13 28 -4 42 -28 20 -41 18 -54
-10 -16 -36 -71 -51 -116 -32 -44 18 -56 46 -56 127 0 54 3 64 29 90 39 38 91
40 127 4 29 -29 33 -30 62 -9 18 12 20 19 11 35 -32 60 -163 81 -230 36z"/>
<path d="M3929 1017 c-111 -73 -104 -276 11 -335 82 -42 181 -19 220 52 14 25
13 28 -4 42 -28 20 -41 18 -54 -10 -16 -36 -71 -51 -116 -32 -44 18 -56 46
-56 127 0 54 3 64 29 90 39 38 91 40 127 4 29 -29 33 -30 62 -9 18 12 20 19
11 35 -32 60 -163 81 -230 36z"/>
<path d="M1463 930 c-36 -21 -41 -41 -19 -59 12 -10 20 -9 40 4 34 22 91 17
91 -9 0 -15 -14 -23 -65 -37 -71 -19 -90 -37 -90 -86 0 -70 86 -109 141 -64
23 18 24 18 49 -1 31 -23 85 -16 76 9 -3 8 -6 19 -6 24 0 5 -6 9 -14 9 -11 0
-15 22 -18 96 -3 86 -5 98 -27 115 -32 26 -115 26 -158 -1z m117 -160 c0 -52
-69 -79 -87 -34 -12 32 14 53 80 63 4 0 7 -12 7 -29z"/>
<path d="M1737 943 c-4 -3 -7 -66 -7 -140 l0 -133 34 0 34 0 4 94 c4 107 15
129 62 124 l31 -3 3 -107 3 -108 34 0 35 0 0 83 c0 104 13 132 60 132 l35 0 3
-107 3 -108 34 0 35 0 0 114 c0 99 -3 117 -21 140 -27 34 -91 37 -126 4 l-23
-21 -23 21 c-30 28 -85 29 -121 1 l-26 -20 0 20 c0 16 -6 21 -28 21 -16 0 -32
-3 -35 -7z"/>
<path d="M2609 935 c-90 -49 -87 -222 5 -260 65 -27 152 -10 176 34 9 18 7 23
-14 32 -19 9 -29 8 -47 -5 -45 -31 -94 -15 -112 37 -6 15 2 17 88 17 l95 0 0
46 c0 39 -5 51 -34 80 -30 30 -40 34 -82 34 -27 -1 -61 -7 -75 -15z m105 -51
c31 -31 20 -44 -39 -44 -61 0 -73 16 -33 44 29 20 52 20 72 0z"/>
<path d="M2867 943 c-4 -3 -7 -66 -7 -140 l0 -133 34 0 34 0 4 89 c5 101 15
121 63 121 27 0 34 5 39 25 4 14 4 30 1 35 -10 17 -51 11 -79 -11 l-26 -20 0
20 c0 16 -6 21 -28 21 -16 0 -32 -3 -35 -7z"/>
<path d="M3253 930 c-39 -23 -51 -46 -59 -103 -17 -121 93 -202 203 -150 65
30 92 141 52 214 -17 33 -70 59 -119 59 -27 0 -58 -8 -77 -20z m115 -48 c18
-12 33 -71 25 -101 -19 -82 -107 -82 -126 0 -8 30 7 89 25 101 7 4 24 8 38 8
14 0 31 -4 38 -8z"/>
<path d="M4272 930 c-62 -38 -80 -148 -35 -216 33 -51 115 -68 180 -37 68 32
93 148 47 219 -37 55 -130 72 -192 34z m120 -57 c24 -22 25 -109 1 -135 -21
-23 -65 -23 -85 0 -33 36 -30 122 5 144 20 13 60 9 79 -9z"/>
<path d="M4557 943 c-4 -3 -7 -66 -7 -140 l0 -133 34 0 34 0 4 94 c4 107 15
129 62 124 l31 -3 3 -107 3 -108 33 0 34 0 4 94 c4 107 15 129 62 124 l31 -3
3 -107 3 -108 34 0 35 0 0 118 c0 111 -1 120 -23 140 -16 15 -36 22 -62 22
-26 0 -46 -7 -62 -22 l-23 -21 -23 21 c-30 28 -85 29 -121 1 l-26 -20 0 20 c0
16 -6 21 -28 21 -16 0 -32 -3 -35 -7z"/>
<path d="M5040 810 l0 -140 35 0 35 0 0 88 c0 101 14 132 59 132 37 0 41 -12
41 -126 l0 -94 35 0 35 0 0 88 c0 101 14 132 59 132 37 0 41 -12 41 -126 l0
-94 35 0 35 0 0 115 c0 110 -1 117 -25 140 -33 34 -98 35 -127 2 l-21 -23 -23
23 c-31 31 -89 31 -121 1 l-23 -21 0 21 c0 18 -6 22 -35 22 l-35 0 0 -140z"/>
<path d="M5579 935 c-90 -49 -88 -215 4 -258 64 -31 152 -15 177 33 9 17 7 22
-14 31 -19 9 -29 8 -47 -5 -45 -31 -94 -15 -112 37 -6 15 2 17 88 17 l95 0 0
46 c0 39 -5 51 -34 80 -30 30 -40 34 -82 34 -27 -1 -61 -7 -75 -15z m105 -51
c31 -31 20 -44 -39 -44 -61 0 -73 16 -33 44 29 20 52 20 72 0z"/>
<path d="M5837 943 c-4 -3 -7 -66 -7 -140 l0 -133 34 0 34 0 4 89 c5 101 15
121 63 121 27 0 34 5 39 25 4 14 4 30 1 35 -10 17 -51 11 -79 -11 l-26 -20 0
20 c0 16 -6 21 -28 21 -16 0 -32 -3 -35 -7z"/>
<path d="M6110 937 c-93 -47 -93 -213 0 -259 62 -31 144 -16 170 31 15 29 13
37 -13 48 -19 9 -26 7 -44 -13 -49 -55 -119 -7 -110 75 3 27 12 50 23 58 24
17 69 16 84 -2 16 -19 30 -19 55 1 20 15 19 16 -13 45 -26 23 -41 29 -80 29
-26 0 -58 -6 -72 -13z"/>
<path d="M6400 937 c-92 -47 -93 -212 0 -260 51 -26 123 -18 158 17 l27 27
-23 19 c-23 19 -23 19 -42 0 -20 -20 -65 -26 -86 -12 -11 7 -34 45 -34 56 0 3
43 6 95 6 l95 0 0 30 c0 42 -23 94 -51 114 -28 19 -104 21 -139 3z m98 -53
c41 -29 28 -44 -38 -44 -57 0 -60 1 -50 20 11 20 37 39 55 40 6 0 21 -7 33
-16z"/>
</g>
</svg>
