<svg xmlns="http://www.w3.org/2000/svg" xmlns:xlink="http://www.w3.org/1999/xlink" width="500" zoomAndPan="magnify" viewBox="0 0 375 374.999991" height="500" preserveAspectRatio="xMidYMid meet" version="1.0"><defs><g/></defs><rect x="-37.5" width="450" fill="#ffffff" y="-37.499999" height="449.999989" fill-opacity="1"/><rect x="-37.5" width="450" fill="#ffffff" y="-37.499999" height="449.999989" fill-opacity="1"/><path fill="#fb7b04" d="M 149.480469 149.71875 C 143.105469 119.011719 134.5 98.621094 145.722656 91.949219 C 156.945312 85.28125 172.6875 105.640625 191.816406 124.550781 C 200.34375 141.136719 187.816406 145.335938 176.597656 152.007812 C 165.375 158.679688 158.007812 166.304688 149.480469 149.71875 Z M 149.480469 149.71875 " fill-opacity="0.82" fill-rule="nonzero"/><path fill="#0e0e0d" d="M 180.207031 157.742188 L 147.234375 95.285156 L 147.460938 95.148438 L 180.433594 157.605469 Z M 180.207031 157.742188 " fill-opacity="0.2" fill-rule="evenodd"/><path fill="#fb7b04" d="M 228.914062 143.171875 C 258.171875 143.40625 278.585938 138.984375 282.101562 152.246094 C 285.617188 165.503906 263.625 177.414062 242.183594 193.199219 C 225.238281 198.398438 224.25 184.328125 220.734375 171.066406 C 217.21875 157.808594 211.96875 148.371094 228.914062 143.171875 Z M 228.914062 143.171875 " fill-opacity="0.82" fill-rule="nonzero"/><path fill="#0e0e0d" d="M 214.722656 173.558594 L 278.738281 153.078125 L 278.8125 153.335938 L 214.796875 173.8125 Z M 214.722656 173.558594 " fill-opacity="0.2" fill-rule="evenodd"/><path fill="#fb7b04" d="M 255.066406 183.128906 C 276.34375 204.722656 294.09375 216.433594 288.273438 228.71875 C 282.453125 241.003906 258.804688 233.625 233.105469 229.484375 C 217.40625 220.882812 225.59375 209.855469 231.410156 197.570312 C 237.230469 185.285156 239.363281 174.527344 255.066406 183.128906 Z M 255.066406 183.128906 " fill-opacity="0.82" fill-rule="nonzero"/><path fill="#0e0e0d" d="M 225.433594 194.992188 L 285.285156 226.867188 L 285.175781 227.109375 L 225.324219 195.234375 Z M 225.433594 194.992188 " fill-opacity="0.2" fill-rule="evenodd"/><path fill="#fb7b04" d="M 132.355469 180.941406 C 107.730469 197.941406 88.277344 205.921875 91.886719 219.152344 C 95.5 232.382812 120.007812 229.824219 145.972656 230.859375 C 162.882812 225.523438 156.730469 213.0625 153.121094 199.832031 C 149.511719 186.601562 149.261719 175.605469 132.355469 180.941406 Z M 132.355469 180.941406 " fill-opacity="0.82" fill-rule="nonzero"/><path fill="#0e0e0d" d="M 159.4375 198.484375 L 95.144531 217.925781 L 95.210938 218.183594 L 159.503906 198.742188 Z M 159.4375 198.484375 " fill-opacity="0.2" fill-rule="evenodd"/><path fill="#fb7b04" d="M 137.714844 137.378906 C 108.460938 137.925781 88.011719 133.726562 84.617188 147.023438 C 81.222656 160.320312 103.328125 171.992188 124.914062 187.546875 C 141.910156 192.558594 142.761719 178.480469 146.15625 165.183594 C 149.550781 151.886719 154.710938 142.394531 137.714844 137.378906 Z M 137.714844 137.378906 " fill-opacity="0.82" fill-rule="nonzero"/><path fill="#0e0e0d" d="M 152.1875 167.609375 L 87.984375 147.820312 L 87.917969 148.078125 L 152.121094 167.863281 Z M 152.1875 167.609375 " fill-opacity="0.2" fill-rule="evenodd"/><path fill="#fb7b04" d="M 227.460938 223.257812 C 235.6875 253.453125 245.507812 273.199219 234.714844 280.640625 C 223.921875 288.082031 206.976562 268.871094 186.738281 251.339844 C 177.226562 235.386719 189.472656 230.316406 200.265625 222.875 C 211.058594 215.429688 217.949219 207.304688 227.460938 223.257812 Z M 227.460938 223.257812 " fill-opacity="0.82" fill-rule="nonzero"/><path fill="#0e0e0d" d="M 196.316406 217.402344 L 233.003906 277.417969 L 232.785156 277.570312 L 196.101562 217.554688 Z M 196.316406 217.402344 " fill-opacity="0.2" fill-rule="evenodd"/><path fill="#fb7b04" d="M 151.726562 225.503906 C 138.851562 253.753906 126.054688 271.417969 135.515625 280.726562 C 144.972656 290.03125 164.707031 274.195312 187.417969 260.617188 C 199.3125 246.632812 188.046875 239.398438 178.589844 230.09375 C 169.128906 220.785156 163.621094 211.519531 151.726562 225.503906 Z M 151.726562 225.503906 " fill-opacity="0.82" fill-rule="nonzero"/><path fill="#0e0e0d" d="M 183.34375 225.425781 L 137.710938 277.867188 L 137.894531 278.050781 L 183.53125 225.613281 Z M 183.34375 225.425781 " fill-opacity="0.2" fill-rule="evenodd"/><path fill="#fb7b04" d="M 222.582031 150.753906 C 226.707031 119.605469 233.796875 98.554688 222.125 92.847656 C 210.453125 87.140625 196.238281 108.765625 178.542969 129.226562 C 171.253906 146.480469 184.046875 149.613281 195.71875 155.320312 C 207.390625 161.023438 215.292969 168.007812 222.582031 150.753906 Z M 222.582031 150.753906 " fill-opacity="0.82" fill-rule="nonzero"/><path fill="#0e0e0d" d="M 192.535156 161.339844 L 220.859375 96.296875 L 220.625 96.179688 L 192.300781 161.222656 Z M 192.535156 161.339844 " fill-opacity="0.2" fill-rule="evenodd"/><path fill="#fb7b04" d="M 240.359375 165.242188 C 255.273438 138.171875 269.328125 121.652344 260.578125 111.570312 C 251.832031 101.488281 230.996094 115.601562 207.359375 127.207031 C 194.476562 140.136719 205.171875 148.304688 213.921875 158.386719 C 222.667969 168.46875 227.476562 178.171875 240.359375 165.242188 Z M 240.359375 165.242188 " fill-opacity="1" fill-rule="nonzero"/><path fill="#0e0e0d" d="M 208.835938 162.636719 L 258.179688 114.234375 L 258.011719 114.035156 L 208.664062 162.433594 Z M 208.835938 162.636719 " fill-opacity="0.2" fill-rule="evenodd"/><path fill="#fb7b04" d="M 159.28125 245.964844 C 131.863281 256.953125 114.253906 268.902344 106.578125 257.859375 C 98.898438 246.816406 115.503906 227.265625 130.3125 204.300781 C 144.425781 192.953125 150.007812 205.726562 157.683594 216.765625 C 165.363281 227.808594 173.394531 234.617188 159.28125 245.964844 Z M 159.28125 245.964844 " fill-opacity="1" fill-rule="nonzero"/><path fill="#0e0e0d" d="M 162.476562 212.140625 L 109.441406 255.792969 L 109.289062 255.578125 L 162.324219 211.921875 Z M 162.476562 212.140625 " fill-opacity="0.2" fill-rule="evenodd"/><path fill="#fb7b04" d="M 134.296875 162.09375 C 106.042969 170.269531 85.253906 171.539062 84.96875 185.324219 C 84.679688 199.109375 108.757812 204.65625 133.214844 214.101562 C 150.832031 214.527344 148.480469 200.644531 148.765625 186.859375 C 149.054688 173.074219 151.914062 162.519531 134.296875 162.09375 Z M 134.296875 162.09375 " fill-opacity="1" fill-rule="nonzero"/><path fill="#0e0e0d" d="M 155.164062 187.636719 L 88.414062 185.21875 L 88.40625 185.480469 L 155.15625 187.898438 Z M 155.164062 187.636719 " fill-opacity="0.2" fill-rule="evenodd"/><path fill="#fb7b04" d="M 240 163.644531 C 268.039062 172.628906 288.789062 174.492188 288.734375 188.28125 C 288.679688 202.070312 264.472656 206.925781 239.792969 215.664062 C 222.171875 215.582031 224.863281 201.773438 224.921875 187.984375 C 224.976562 174.199219 222.378906 163.5625 240 163.644531 Z M 240 163.644531 " fill-opacity="1" fill-rule="nonzero"/><path fill="#0e0e0d" d="M 218.488281 189.675781 L 285.238281 187.257812 L 285.246094 187.523438 L 218.496094 189.941406 Z M 218.488281 189.675781 " fill-opacity="0.2" fill-rule="evenodd"/><path fill="#fb7b04" d="M 209.980469 139.09375 C 201.375 109.023438 199.457031 86.726562 186.636719 86.910156 C 173.816406 87.089844 169.515625 113.164062 161.609375 139.78125 C 161.84375 158.730469 174.660156 155.710938 187.480469 155.527344 C 200.300781 155.34375 210.214844 158.042969 209.980469 139.09375 Z M 209.980469 139.09375 " fill-opacity="1" fill-rule="nonzero"/><path fill="#0e0e0d" d="M 186.984375 162.433594 L 186.859375 90.609375 L 186.59375 90.609375 L 186.722656 162.433594 Z M 186.984375 162.433594 " fill-opacity="0.2" fill-rule="evenodd"/><path fill="#fb7b04" d="M 211.46875 236.839844 C 202.863281 266.914062 200.945312 289.210938 188.125 289.027344 C 175.304688 288.84375 171.003906 262.769531 163.097656 236.152344 C 163.328125 217.207031 176.144531 220.226562 188.964844 220.410156 C 201.789062 220.589844 211.699219 217.890625 211.46875 236.839844 Z M 211.46875 236.839844 " fill-opacity="1" fill-rule="nonzero"/><path fill="#0e0e0d" d="M 188.472656 213.503906 L 188.34375 285.324219 L 188.082031 285.324219 L 188.207031 213.503906 Z M 188.472656 213.503906 " fill-opacity="0.2" fill-rule="evenodd"/><path fill="#fb7b04" d="M 131.539062 163.375 C 115.871094 136.804688 101.355469 120.75 109.8125 110.386719 C 118.269531 100.023438 139.496094 113.449219 163.449219 124.277344 C 176.695312 136.777344 166.230469 145.292969 157.773438 155.65625 C 149.316406 166.019531 144.78125 175.875 131.539062 163.375 Z M 131.539062 163.375 " fill-opacity="1" fill-rule="nonzero"/><path fill="#0e0e0d" d="M 162.976562 159.738281 L 112.285156 112.972656 L 112.453125 112.765625 L 163.140625 159.53125 Z M 162.976562 159.738281 " fill-opacity="0.2" fill-rule="evenodd"/><path fill="#fb7b04" d="M 241.285156 203.183594 C 260.730469 226.695312 277.457031 240.027344 270.664062 251.71875 C 263.867188 263.410156 240.90625 253.835938 215.644531 247.296875 C 200.703125 237.253906 209.753906 227.039062 216.550781 215.347656 C 223.34375 203.652344 226.339844 193.140625 241.285156 203.183594 Z M 241.285156 203.183594 " fill-opacity="1" fill-rule="nonzero"/><path fill="#0e0e0d" d="M 210.804688 212.21875 L 267.835938 249.59375 L 267.703125 249.824219 L 210.671875 212.449219 Z M 210.804688 212.21875 " fill-opacity="0.2" fill-rule="evenodd"/><path fill="#b10dff" d="M 154.859375 190.910156 C 135.652344 214.648438 119.058594 228.171875 125.972656 239.785156 C 132.886719 251.394531 155.746094 241.554688 180.941406 234.722656 C 195.785156 224.507812 186.628906 214.398438 179.71875 202.785156 C 172.804688 191.171875 169.703125 180.695312 154.859375 190.910156 Z M 154.859375 190.910156 " fill-opacity="1" fill-rule="nonzero"/><path fill="#0e0e0d" d="M 185.429688 199.589844 L 128.777344 237.628906 L 128.910156 237.855469 L 185.5625 199.820312 Z M 185.429688 199.589844 " fill-opacity="0.2" fill-rule="evenodd"/><path fill="#b10dff" d="M 180.003906 139.105469 C 152.71875 127.738281 135.257812 115.542969 127.445312 126.476562 C 119.636719 137.410156 136.003906 157.195312 150.53125 180.363281 C 164.507812 191.90625 170.242188 179.214844 178.054688 168.28125 C 185.863281 157.347656 193.976562 150.652344 180.003906 139.105469 Z M 180.003906 139.105469 " fill-opacity="1" fill-rule="nonzero"/><path fill="#0e0e0d" d="M 182.789062 172.976562 L 130.285156 128.582031 L 130.128906 128.796875 L 182.632812 173.191406 Z M 182.789062 172.976562 " fill-opacity="0.2" fill-rule="evenodd"/><path fill="#b10dff" d="M 222.425781 189.4375 C 241.632812 213.171875 258.226562 226.695312 251.3125 238.308594 C 244.402344 249.921875 221.539062 240.082031 196.34375 233.246094 C 181.503906 223.03125 190.65625 212.921875 197.570312 201.308594 C 204.480469 189.699219 207.585938 179.21875 222.425781 189.4375 Z M 222.425781 189.4375 " fill-opacity="1" fill-rule="nonzero"/><path fill="#0e0e0d" d="M 191.855469 198.113281 L 248.507812 236.152344 L 248.375 236.378906 L 191.722656 198.34375 Z M 191.855469 198.113281 " fill-opacity="0.2" fill-rule="evenodd"/><path fill="#b10dff" d="M 194.96875 140.933594 C 221.90625 128.660156 239.011719 115.886719 247.132812 126.554688 C 255.253906 137.222656 239.46875 157.546875 225.613281 181.1875 C 211.980469 193.191406 205.878906 180.699219 197.757812 170.03125 C 189.632812 159.363281 181.332031 152.941406 194.96875 140.933594 Z M 194.96875 140.933594 " fill-opacity="1" fill-rule="nonzero"/><path fill="#0e0e0d" d="M 193.160156 174.878906 L 244.355469 128.757812 L 244.519531 128.964844 L 193.324219 175.089844 Z M 193.160156 174.878906 " fill-opacity="0.2" fill-rule="evenodd"/><path fill="#faff0d" d="M 164.539062 172.058594 C 173.042969 141.949219 174.886719 119.648438 187.707031 119.777344 C 200.527344 119.910156 204.914062 145.96875 212.914062 172.554688 C 212.746094 191.503906 199.917969 188.53125 187.097656 188.398438 C 174.277344 188.269531 164.371094 191.007812 164.539062 172.058594 Z M 164.539062 172.058594 " fill-opacity="1" fill-rule="nonzero"/><path fill="#0e0e0d" d="M 187.613281 195.304688 L 187.496094 123.480469 L 187.761719 123.480469 L 187.878906 195.300781 Z M 187.613281 195.304688 " fill-opacity="0.2" fill-rule="evenodd"/><path fill="#faff0d" d="M 164.539062 208.464844 C 173.042969 238.570312 174.886719 260.875 187.707031 260.742188 C 200.527344 260.609375 204.914062 234.554688 212.914062 207.96875 C 212.746094 189.019531 199.917969 191.988281 187.097656 192.121094 C 174.277344 192.253906 164.371094 189.515625 164.539062 208.464844 Z M 164.539062 208.464844 " fill-opacity="1" fill-rule="nonzero"/><path fill="#0e0e0d" d="M 187.613281 185.21875 L 187.496094 257.039062 L 187.761719 257.039062 L 187.878906 185.21875 Z M 187.613281 185.21875 " fill-opacity="0.2" fill-rule="evenodd"/><path fill="#faff0d" d="M 210.296875 161.109375 C 238.308594 170.1875 259.054688 172.121094 258.960938 185.910156 C 258.863281 199.695312 234.644531 204.472656 209.9375 213.128906 C 192.316406 212.992188 195.050781 199.191406 195.144531 185.402344 C 195.242188 171.617188 192.671875 160.972656 210.296875 161.109375 Z M 210.296875 161.109375 " fill-opacity="1" fill-rule="nonzero"/><path fill="#0e0e0d" d="M 187.039062 187.34375 L 253.828125 187.0625 L 253.828125 187.328125 L 187.039062 187.609375 Z M 187.039062 187.34375 " fill-opacity="0.2" fill-rule="evenodd"/><path fill="#faff0d" d="M 167.597656 160.25 C 139.582031 169.328125 118.835938 171.261719 118.933594 185.046875 C 119.027344 198.835938 143.246094 203.609375 167.953125 212.269531 C 185.574219 212.128906 182.839844 198.332031 182.746094 184.542969 C 182.652344 170.753906 185.21875 160.109375 167.597656 160.25 Z M 167.597656 160.25 " fill-opacity="1" fill-rule="nonzero"/><path fill="#0e0e0d" d="M 187.839844 186.484375 L 121.050781 186.203125 L 121.050781 186.46875 L 187.839844 186.746094 Z M 187.839844 186.484375 " fill-opacity="0.2" fill-rule="evenodd"/><path fill="#e2b339" d="M 202.820312 191 C 202.820312 199.894531 195.984375 207.109375 187.554688 207.109375 C 179.121094 207.109375 172.285156 199.894531 172.285156 191 C 172.285156 182.101562 179.121094 174.886719 187.554688 174.886719 C 195.984375 174.886719 202.820312 182.101562 202.820312 191 Z M 202.820312 191 " fill-opacity="1" fill-rule="nonzero"/><path fill="#e2b339" d="M 187.464844 174.445312 C 187.492188 174.445312 187.523438 174.445312 187.554688 174.445312 C 187.585938 174.445312 187.613281 174.445312 187.644531 174.445312 L 187.640625 175.328125 C 187.609375 175.328125 187.582031 175.328125 187.554688 175.328125 C 187.527344 175.328125 187.496094 175.328125 187.46875 175.328125 Z M 186.558594 174.480469 C 186.738281 174.46875 186.917969 174.457031 187.101562 174.453125 L 187.125 175.335938 C 186.957031 175.339844 186.785156 175.347656 186.613281 175.359375 Z M 188.371094 174.46875 C 188.550781 174.476562 188.734375 174.492188 188.914062 174.507812 L 188.835938 175.386719 C 188.664062 175.371094 188.492188 175.359375 188.320312 175.351562 Z M 189.273438 174.542969 C 189.335938 174.550781 189.394531 174.558594 189.453125 174.566406 L 189.34375 175.441406 C 189.285156 175.433594 189.230469 175.429688 189.171875 175.421875 Z M 185.652344 174.566406 C 185.714844 174.558594 185.773438 174.550781 185.832031 174.542969 L 185.933594 175.421875 C 185.878906 175.429688 185.820312 175.433594 185.765625 175.441406 Z M 184.757812 174.707031 C 184.9375 174.675781 185.113281 174.644531 185.292969 174.617188 L 185.425781 175.488281 C 185.257812 175.515625 185.089844 175.542969 184.921875 175.574219 Z M 190.171875 174.675781 C 190.351562 174.707031 190.527344 174.742188 190.707031 174.78125 L 190.519531 175.644531 C 190.355469 175.605469 190.1875 175.574219 190.019531 175.546875 Z M 191.058594 174.859375 C 191.117188 174.875 191.175781 174.890625 191.234375 174.902344 L 191.019531 175.757812 C 190.964844 175.746094 190.910156 175.730469 190.855469 175.71875 Z M 183.871094 174.902344 C 183.929688 174.890625 183.988281 174.875 184.046875 174.859375 L 184.253906 175.71875 C 184.199219 175.730469 184.144531 175.746094 184.089844 175.757812 Z M 183 175.152344 C 183.171875 175.097656 183.347656 175.046875 183.523438 174.996094 L 183.757812 175.847656 C 183.59375 175.894531 183.429688 175.941406 183.269531 175.992188 Z M 191.933594 175.097656 C 192.109375 175.152344 192.28125 175.207031 192.453125 175.265625 L 192.164062 176.101562 C 192.003906 176.046875 191.839844 175.992188 191.675781 175.945312 Z M 192.792969 175.390625 C 192.851562 175.410156 192.90625 175.433594 192.964844 175.453125 L 192.644531 176.277344 C 192.589844 176.257812 192.539062 176.238281 192.484375 176.21875 Z M 182.144531 175.453125 C 182.199219 175.433594 182.257812 175.410156 182.316406 175.390625 L 182.625 176.21875 C 182.570312 176.238281 182.515625 176.257812 182.464844 176.277344 Z M 181.308594 175.804688 C 181.472656 175.730469 181.640625 175.65625 181.808594 175.589844 L 182.144531 176.40625 C 181.988281 176.46875 181.832031 176.539062 181.675781 176.609375 Z M 193.632812 175.730469 C 193.800781 175.804688 193.964844 175.882812 194.128906 175.960938 L 193.742188 176.753906 C 193.585938 176.679688 193.433594 176.609375 193.277344 176.539062 Z M 194.453125 176.121094 C 194.503906 176.152344 194.558594 176.179688 194.613281 176.207031 L 194.199219 176.988281 C 194.148438 176.960938 194.097656 176.933594 194.046875 176.90625 Z M 180.496094 176.207031 C 180.550781 176.179688 180.605469 176.152344 180.65625 176.121094 L 181.0625 176.90625 C 181.011719 176.933594 180.960938 176.960938 180.910156 176.988281 Z M 179.710938 176.65625 C 179.863281 176.5625 180.019531 176.46875 180.179688 176.378906 L 180.609375 177.152344 C 180.460938 177.234375 180.3125 177.320312 180.167969 177.410156 Z M 195.242188 176.5625 C 195.398438 176.652344 195.554688 176.75 195.707031 176.847656 L 195.230469 177.589844 C 195.085938 177.5 194.941406 177.410156 194.792969 177.320312 Z M 196.007812 177.046875 C 196.058594 177.078125 196.109375 177.113281 196.160156 177.148438 L 195.65625 177.875 C 195.609375 177.84375 195.5625 177.808594 195.515625 177.777344 Z M 178.949219 177.148438 C 179 177.113281 179.046875 177.078125 179.097656 177.046875 L 179.59375 177.777344 C 179.542969 177.808594 179.5 177.84375 179.453125 177.875 Z M 178.21875 177.683594 C 178.363281 177.574219 178.507812 177.464844 178.652344 177.359375 L 179.171875 178.074219 C 179.035156 178.171875 178.898438 178.277344 178.761719 178.378906 Z M 196.746094 177.574219 C 196.890625 177.683594 197.03125 177.796875 197.171875 177.910156 L 196.613281 178.59375 C 196.480469 178.484375 196.347656 178.378906 196.210938 178.277344 Z M 197.449219 178.140625 C 197.496094 178.183594 197.542969 178.222656 197.585938 178.261719 L 197.003906 178.925781 C 196.960938 178.886719 196.917969 178.851562 196.875 178.8125 Z M 177.519531 178.261719 C 177.566406 178.222656 177.613281 178.183594 177.65625 178.140625 L 178.230469 178.8125 C 178.1875 178.851562 178.144531 178.886719 178.101562 178.925781 Z M 176.855469 178.875 C 176.988281 178.75 177.117188 178.625 177.25 178.503906 L 177.847656 179.152344 C 177.722656 179.269531 177.597656 179.386719 177.476562 179.507812 Z M 198.121094 178.75 C 198.25 178.875 198.378906 179.003906 198.507812 179.132812 L 197.875 179.75 C 197.753906 179.625 197.632812 179.507812 197.511719 179.386719 Z M 198.757812 179.394531 C 198.796875 179.4375 198.839844 179.484375 198.878906 179.527344 L 198.226562 180.121094 C 198.1875 180.082031 198.148438 180.039062 198.109375 179.996094 Z M 176.230469 179.527344 C 176.269531 179.484375 176.308594 179.4375 176.351562 179.394531 L 176.996094 179.996094 C 176.957031 180.039062 176.917969 180.082031 176.882812 180.121094 Z M 175.636719 180.210938 C 175.753906 180.070312 175.867188 179.933594 175.988281 179.796875 L 176.652344 180.378906 C 176.539062 180.507812 176.429688 180.636719 176.320312 180.769531 Z M 199.355469 180.074219 C 199.472656 180.210938 199.585938 180.351562 199.695312 180.496094 L 199 181.039062 C 198.894531 180.902344 198.785156 180.769531 198.675781 180.640625 Z M 199.914062 180.78125 C 199.953125 180.832031 199.988281 180.878906 200.023438 180.929688 L 199.308594 181.449219 C 199.273438 181.402344 199.242188 181.355469 199.207031 181.3125 Z M 175.085938 180.929688 C 175.121094 180.878906 175.15625 180.832031 175.191406 180.78125 L 175.902344 181.3125 C 175.867188 181.355469 175.832031 181.402344 175.800781 181.449219 Z M 174.574219 181.671875 C 174.671875 181.523438 174.773438 181.371094 174.875 181.222656 L 175.601562 181.726562 C 175.503906 181.867188 175.40625 182.011719 175.3125 182.152344 Z M 200.433594 181.523438 C 200.535156 181.671875 200.632812 181.824219 200.730469 181.980469 L 199.976562 182.445312 C 199.886719 182.296875 199.792969 182.152344 199.699219 182.011719 Z M 200.914062 182.289062 C 200.945312 182.339844 200.976562 182.394531 201.007812 182.445312 L 200.242188 182.886719 C 200.210938 182.835938 200.183594 182.785156 200.15625 182.738281 Z M 174.101562 182.445312 C 174.132812 182.394531 174.160156 182.339844 174.191406 182.289062 L 174.953125 182.738281 C 174.925781 182.785156 174.898438 182.835938 174.867188 182.886719 Z M 173.671875 183.242188 C 173.753906 183.078125 173.839844 182.917969 173.925781 182.761719 L 174.699219 183.183594 C 174.617188 183.332031 174.539062 183.484375 174.460938 183.640625 Z M 201.351562 183.082031 C 201.4375 183.242188 201.515625 183.402344 201.59375 183.566406 L 200.796875 183.945312 C 200.722656 183.792969 200.648438 183.636719 200.570312 183.488281 Z M 201.746094 183.894531 C 201.769531 183.949219 201.796875 184.003906 201.820312 184.058594 L 201.011719 184.414062 C 200.988281 184.363281 200.964844 184.308594 200.941406 184.257812 Z M 173.289062 184.058594 C 173.3125 184.003906 173.335938 183.949219 173.363281 183.894531 L 174.167969 184.257812 C 174.140625 184.308594 174.121094 184.363281 174.097656 184.414062 Z M 172.945312 184.894531 C 173.011719 184.726562 173.078125 184.558594 173.148438 184.390625 L 173.960938 184.730469 C 173.898438 184.886719 173.835938 185.046875 173.773438 185.207031 Z M 202.097656 184.726562 C 202.160156 184.894531 202.222656 185.066406 202.285156 185.234375 L 201.453125 185.53125 C 201.394531 185.367188 201.335938 185.207031 201.273438 185.046875 Z M 202.402344 185.578125 C 202.421875 185.636719 202.4375 185.691406 202.457031 185.75 L 201.613281 186.015625 C 201.597656 185.960938 201.582031 185.90625 201.5625 185.855469 Z M 172.652344 185.75 C 172.667969 185.691406 172.6875 185.636719 172.707031 185.578125 L 173.546875 185.855469 C 173.527344 185.90625 173.511719 185.960938 173.492188 186.015625 Z M 172.402344 186.617188 C 172.445312 186.441406 172.496094 186.269531 172.546875 186.097656 L 173.394531 186.34375 C 173.34375 186.507812 173.300781 186.675781 173.257812 186.839844 Z M 202.660156 186.445312 C 202.707031 186.617188 202.753906 186.792969 202.792969 186.96875 L 201.933594 187.171875 C 201.894531 187.007812 201.855469 186.839844 201.808594 186.675781 Z M 202.875 187.320312 C 202.886719 187.382812 202.898438 187.4375 202.910156 187.5 L 202.046875 187.675781 C 202.035156 187.621094 202.023438 187.5625 202.011719 187.507812 Z M 172.195312 187.5 C 172.207031 187.4375 172.222656 187.382812 172.234375 187.320312 L 173.097656 187.507812 C 173.085938 187.5625 173.074219 187.621094 173.0625 187.675781 Z M 172.039062 188.386719 C 172.066406 188.210938 172.097656 188.03125 172.128906 187.851562 L 172.996094 188.011719 C 172.964844 188.179688 172.9375 188.351562 172.914062 188.519531 Z M 203.042969 188.210938 C 203.070312 188.386719 203.097656 188.566406 203.117188 188.746094 L 202.242188 188.859375 C 202.222656 188.6875 202.195312 188.519531 202.167969 188.351562 Z M 203.160156 189.105469 C 203.167969 189.164062 203.171875 189.226562 203.179688 189.285156 L 202.300781 189.371094 C 202.296875 189.3125 202.289062 189.257812 202.285156 189.199219 Z M 171.929688 189.285156 C 171.933594 189.226562 171.941406 189.164062 171.945312 189.105469 L 172.824219 189.199219 C 172.820312 189.257812 172.8125 189.3125 172.808594 189.371094 Z M 171.863281 190.1875 C 171.871094 190.003906 171.882812 189.824219 171.898438 189.644531 L 172.777344 189.710938 C 172.765625 189.882812 172.753906 190.054688 172.746094 190.226562 Z M 203.234375 190.003906 C 203.246094 190.183594 203.253906 190.363281 203.257812 190.546875 L 202.375 190.570312 C 202.371094 190.398438 202.363281 190.226562 202.351562 190.054688 Z M 203.261719 190.96875 C 203.261719 190.980469 203.261719 190.988281 203.261719 191 C 203.261719 191.003906 203.261719 191.011719 203.261719 191.015625 C 203.261719 191.042969 203.261719 191.066406 203.261719 191.089844 L 202.378906 191.085938 C 202.378906 191.054688 202.378906 191.027344 202.378906 191 C 202.378906 190.96875 202.378906 190.941406 202.378906 190.914062 L 203.261719 190.90625 C 203.261719 190.929688 203.261719 190.949219 203.261719 190.96875 Z M 171.84375 191 C 171.84375 190.96875 171.84375 190.9375 171.84375 190.90625 L 172.726562 190.914062 C 172.726562 190.941406 172.726562 190.96875 172.726562 191 C 172.726562 191.027344 172.726562 191.054688 172.726562 191.085938 L 171.84375 191.089844 C 171.84375 191.058594 171.84375 191.027344 171.84375 191 Z M 171.871094 191.992188 C 171.863281 191.8125 171.855469 191.632812 171.851562 191.449219 L 172.734375 191.429688 C 172.738281 191.601562 172.746094 191.773438 172.753906 191.941406 Z M 203.246094 191.8125 C 203.238281 191.992188 203.226562 192.171875 203.210938 192.351562 L 202.332031 192.285156 C 202.34375 192.113281 202.355469 191.941406 202.363281 191.769531 Z M 203.179688 192.710938 C 203.171875 192.773438 203.167969 192.832031 203.160156 192.890625 L 202.285156 192.796875 C 202.289062 192.742188 202.296875 192.683594 202.300781 192.625 Z M 171.945312 192.890625 C 171.941406 192.832031 171.933594 192.773438 171.929688 192.710938 L 172.808594 192.625 C 172.8125 192.683594 172.820312 192.742188 172.824219 192.796875 Z M 172.066406 193.789062 C 172.039062 193.609375 172.011719 193.429688 171.988281 193.25 L 172.863281 193.136719 C 172.886719 193.308594 172.910156 193.480469 172.9375 193.648438 Z M 203.070312 193.609375 C 203.042969 193.789062 203.011719 193.964844 202.980469 194.144531 L 202.113281 193.984375 C 202.140625 193.816406 202.167969 193.648438 202.195312 193.476562 Z M 202.910156 194.5 C 202.898438 194.558594 202.886719 194.617188 202.875 194.675781 L 202.011719 194.488281 C 202.023438 194.433594 202.035156 194.378906 202.046875 194.320312 Z M 172.234375 194.675781 C 172.222656 194.617188 172.207031 194.558594 172.195312 194.5 L 173.0625 194.320312 C 173.074219 194.378906 173.085938 194.433594 173.097656 194.488281 Z M 172.449219 195.554688 C 172.398438 195.378906 172.355469 195.203125 172.3125 195.027344 L 173.171875 194.824219 C 173.210938 194.992188 173.253906 195.15625 173.300781 195.324219 Z M 202.707031 195.378906 C 202.660156 195.554688 202.613281 195.726562 202.5625 195.902344 L 201.714844 195.652344 C 201.761719 195.488281 201.808594 195.324219 201.851562 195.15625 Z M 202.457031 196.246094 C 202.4375 196.304688 202.421875 196.363281 202.402344 196.417969 L 201.5625 196.144531 C 201.582031 196.089844 201.597656 196.035156 201.613281 195.980469 Z M 172.707031 196.417969 C 172.6875 196.363281 172.667969 196.304688 172.652344 196.246094 L 173.492188 195.980469 C 173.511719 196.035156 173.527344 196.089844 173.546875 196.144531 Z M 173.011719 197.269531 C 172.945312 197.101562 172.882812 196.929688 172.824219 196.761719 L 173.65625 196.46875 C 173.714844 196.628906 173.773438 196.789062 173.835938 196.949219 Z M 202.160156 197.101562 C 202.097656 197.269531 202.03125 197.4375 201.960938 197.605469 L 201.144531 197.269531 C 201.210938 197.109375 201.273438 196.949219 201.335938 196.789062 Z M 201.820312 197.9375 C 201.796875 197.992188 201.769531 198.046875 201.746094 198.101562 L 200.941406 197.738281 C 200.964844 197.6875 200.988281 197.636719 201.011719 197.582031 Z M 173.363281 198.101562 C 173.335938 198.046875 173.3125 197.992188 173.289062 197.9375 L 174.097656 197.582031 C 174.121094 197.636719 174.140625 197.6875 174.167969 197.738281 Z M 173.753906 198.917969 C 173.671875 198.757812 173.59375 198.59375 173.515625 198.429688 L 174.3125 198.050781 C 174.382812 198.203125 174.460938 198.359375 174.539062 198.511719 Z M 201.433594 198.757812 C 201.351562 198.917969 201.269531 199.078125 201.183594 199.234375 L 200.40625 198.8125 C 200.488281 198.664062 200.570312 198.511719 200.644531 198.359375 Z M 201.007812 199.550781 C 200.976562 199.605469 200.945312 199.65625 200.914062 199.707031 L 200.15625 199.261719 C 200.183594 199.210938 200.210938 199.160156 200.242188 199.113281 Z M 174.191406 199.707031 C 174.160156 199.65625 174.132812 199.605469 174.101562 199.550781 L 174.867188 199.113281 C 174.898438 199.160156 174.925781 199.210938 174.953125 199.261719 Z M 174.671875 200.472656 C 174.574219 200.324219 174.472656 200.171875 174.378906 200.019531 L 175.128906 199.554688 C 175.222656 199.699219 175.3125 199.84375 175.40625 199.984375 Z M 200.535156 200.324219 C 200.4375 200.476562 200.335938 200.625 200.230469 200.773438 L 199.507812 200.269531 C 199.605469 200.128906 199.699219 199.988281 199.792969 199.84375 Z M 200.023438 201.070312 C 199.988281 201.117188 199.953125 201.164062 199.914062 201.214844 L 199.207031 200.6875 C 199.242188 200.640625 199.273438 200.59375 199.308594 200.546875 Z M 175.191406 201.214844 C 175.15625 201.164062 175.121094 201.117188 175.085938 201.070312 L 175.800781 200.546875 C 175.832031 200.59375 175.867188 200.640625 175.902344 200.6875 Z M 175.753906 201.925781 C 175.636719 201.785156 175.523438 201.644531 175.414062 201.5 L 176.109375 200.957031 C 176.214844 201.09375 176.320312 201.226562 176.429688 201.359375 Z M 199.46875 201.785156 C 199.355469 201.925781 199.238281 202.0625 199.121094 202.199219 L 198.453125 201.617188 C 198.566406 201.488281 198.675781 201.359375 198.785156 201.226562 Z M 198.878906 202.46875 C 198.839844 202.515625 198.796875 202.558594 198.757812 202.601562 L 198.109375 202 C 198.148438 201.957031 198.1875 201.917969 198.226562 201.875 Z M 176.351562 202.601562 C 176.308594 202.558594 176.269531 202.515625 176.230469 202.46875 L 176.882812 201.875 C 176.917969 201.917969 176.957031 201.957031 176.996094 202 Z M 176.988281 203.246094 C 176.855469 203.121094 176.726562 202.992188 176.601562 202.863281 L 177.234375 202.246094 C 177.351562 202.371094 177.476562 202.492188 177.597656 202.609375 Z M 198.25 203.121094 C 198.121094 203.246094 197.992188 203.371094 197.855469 203.496094 L 197.261719 202.84375 C 197.386719 202.726562 197.511719 202.609375 197.632812 202.492188 Z M 197.585938 203.734375 C 197.542969 203.773438 197.496094 203.816406 197.449219 203.855469 L 196.875 203.183594 C 196.917969 203.148438 196.960938 203.109375 197.003906 203.070312 Z M 177.65625 203.855469 C 177.613281 203.816406 177.566406 203.773438 177.519531 203.734375 L 178.101562 203.070312 C 178.144531 203.109375 178.1875 203.148438 178.230469 203.183594 Z M 178.363281 204.421875 C 178.21875 204.3125 178.078125 204.203125 177.9375 204.085938 L 178.496094 203.402344 C 178.628906 203.511719 178.761719 203.617188 178.898438 203.71875 Z M 196.890625 204.3125 C 196.746094 204.425781 196.601562 204.53125 196.453125 204.640625 L 195.9375 203.925781 C 196.074219 203.824219 196.210938 203.722656 196.347656 203.617188 Z M 196.160156 204.847656 C 196.109375 204.882812 196.058594 204.917969 196.007812 204.949219 L 195.515625 204.21875 C 195.5625 204.1875 195.609375 204.15625 195.65625 204.121094 Z M 179.097656 204.949219 C 179.046875 204.917969 179 204.882812 178.949219 204.847656 L 179.453125 204.121094 C 179.5 204.15625 179.542969 204.1875 179.59375 204.21875 Z M 179.863281 205.433594 C 179.707031 205.34375 179.554688 205.25 179.402344 205.148438 L 179.878906 204.40625 C 180.023438 204.5 180.167969 204.589844 180.316406 204.675781 Z M 195.398438 205.34375 C 195.242188 205.4375 195.085938 205.527344 194.929688 205.617188 L 194.496094 204.847656 C 194.644531 204.761719 194.792969 204.675781 194.941406 204.585938 Z M 194.613281 205.789062 C 194.558594 205.820312 194.503906 205.847656 194.453125 205.875 L 194.046875 205.089844 C 194.097656 205.0625 194.148438 205.039062 194.199219 205.011719 Z M 180.65625 205.875 C 180.605469 205.847656 180.550781 205.820312 180.496094 205.789062 L 180.910156 205.011719 C 180.960938 205.039062 181.011719 205.0625 181.0625 205.089844 Z M 181.476562 206.265625 C 181.308594 206.191406 181.144531 206.117188 180.980469 206.035156 L 181.367188 205.242188 C 181.519531 205.316406 181.675781 205.386719 181.832031 205.457031 Z M 193.796875 206.191406 C 193.632812 206.265625 193.46875 206.339844 193.300781 206.410156 L 192.960938 205.59375 C 193.121094 205.527344 193.277344 205.460938 193.433594 205.386719 Z M 192.964844 206.542969 C 192.90625 206.566406 192.851562 206.585938 192.792969 206.605469 L 192.484375 205.78125 C 192.539062 205.761719 192.589844 205.738281 192.644531 205.71875 Z M 182.316406 206.605469 C 182.257812 206.585938 182.199219 206.566406 182.144531 206.542969 L 182.464844 205.71875 C 182.515625 205.738281 182.570312 205.761719 182.625 205.78125 Z M 183.171875 206.898438 C 183 206.847656 182.828125 206.789062 182.65625 206.730469 L 182.945312 205.894531 C 183.105469 205.953125 183.269531 206.003906 183.429688 206.054688 Z M 192.109375 206.84375 C 191.933594 206.898438 191.761719 206.953125 191.585938 207 L 191.347656 206.148438 C 191.511719 206.105469 191.675781 206.054688 191.839844 206.003906 Z M 184.046875 207.136719 C 183.988281 207.121094 183.929688 207.109375 183.871094 207.09375 L 184.089844 206.238281 C 184.144531 206.25 184.199219 206.265625 184.253906 206.277344 Z M 191.234375 207.09375 C 191.175781 207.109375 191.117188 207.121094 191.058594 207.136719 L 190.855469 206.277344 C 190.910156 206.265625 190.964844 206.25 191.019531 206.238281 Z M 184.9375 207.320312 C 184.757812 207.289062 184.578125 207.253906 184.402344 207.21875 L 184.585938 206.355469 C 184.753906 206.390625 184.921875 206.421875 185.089844 206.453125 Z M 190.351562 207.289062 C 190.171875 207.324219 189.992188 207.351562 189.8125 207.382812 L 189.679688 206.507812 C 189.851562 206.480469 190.019531 206.453125 190.1875 206.421875 Z M 185.832031 207.453125 C 185.773438 207.445312 185.714844 207.4375 185.652344 207.429688 L 185.765625 206.554688 C 185.820312 206.5625 185.878906 206.570312 185.933594 206.574219 Z M 189.453125 207.429688 C 189.394531 207.4375 189.335938 207.445312 189.273438 207.453125 L 189.171875 206.574219 C 189.230469 206.570312 189.285156 206.5625 189.34375 206.554688 Z M 186.738281 207.527344 C 186.554688 207.519531 186.375 207.507812 186.195312 207.488281 L 186.273438 206.609375 C 186.445312 206.625 186.613281 206.636719 186.785156 206.648438 Z M 188.550781 207.519531 C 188.371094 207.53125 188.191406 207.539062 188.007812 207.542969 L 187.980469 206.660156 C 188.152344 206.65625 188.324219 206.648438 188.492188 206.636719 Z M 187.554688 207.550781 C 187.523438 207.550781 187.492188 207.550781 187.464844 207.550781 L 187.46875 206.667969 C 187.496094 206.667969 187.527344 206.667969 187.554688 206.667969 C 187.582031 206.667969 187.609375 206.667969 187.640625 206.667969 L 187.644531 207.550781 C 187.613281 207.550781 187.585938 207.550781 187.554688 207.550781 Z M 187.554688 207.550781 " fill-opacity="1" fill-rule="evenodd"/><path fill="#000000" d="M 176.746094 202.558594 L 176.632812 179.929688 L 176.722656 179.929688 L 176.835938 202.558594 Z M 176.746094 202.558594 " fill-opacity="0.25" fill-rule="evenodd"/><path fill="#000000" d="M 198.476562 202.558594 L 198.359375 179.929688 L 198.449219 179.929688 L 198.5625 202.558594 Z M 198.476562 202.558594 " fill-opacity="0.25" fill-rule="evenodd"/><path fill="#000000" d="M 179.378906 204.648438 L 179.035156 177.960938 L 179.121094 177.960938 L 179.464844 204.648438 Z M 179.378906 204.648438 " fill-opacity="0.25" fill-rule="evenodd"/><path fill="#000000" d="M 196.074219 204.28125 L 195.730469 177.59375 L 195.820312 177.59375 L 196.164062 204.28125 Z M 196.074219 204.28125 " fill-opacity="0.25" fill-rule="evenodd"/><path fill="#000000" d="M 187.609375 174.886719 L 187.699219 174.886719 L 187.699219 207.109375 L 187.609375 207.109375 Z M 187.609375 174.886719 " fill-opacity="0.25" fill-rule="evenodd"/><path fill="#000000" d="M 190.929688 206.738281 L 190.8125 175.132812 L 190.902344 175.132812 L 191.015625 206.738281 Z M 190.929688 206.738281 " fill-opacity="0.25" fill-rule="evenodd"/><path fill="#000000" d="M 184.636719 206.738281 L 184.523438 175.132812 L 184.613281 175.132812 L 184.726562 206.738281 Z M 184.636719 206.738281 " fill-opacity="0.25" fill-rule="evenodd"/><path fill="#000000" d="M 181.777344 205.511719 L 181.550781 176.363281 L 181.636719 176.363281 L 181.867188 205.507812 Z M 181.777344 205.511719 " fill-opacity="0.25" fill-rule="evenodd"/><path fill="#000000" d="M 193.675781 205.757812 L 193.214844 176.363281 L 193.304688 176.363281 L 193.761719 205.753906 Z M 193.675781 205.757812 " fill-opacity="0.25" fill-rule="evenodd"/><path fill="#000000" d="M 198.214844 202.714844 L 177.171875 202.648438 L 177.171875 202.5625 L 198.214844 202.628906 Z M 198.214844 202.714844 " fill-opacity="0.25" fill-rule="evenodd"/><path fill="#000000" d="M 198.394531 179.351562 L 177.351562 179.285156 L 177.351562 179.195312 L 198.394531 179.261719 Z M 198.394531 179.351562 " fill-opacity="0.25" fill-rule="evenodd"/><path fill="#000000" d="M 200.179688 199.90625 L 175.359375 200.050781 L 175.359375 199.964844 L 200.179688 199.816406 Z M 200.179688 199.90625 " fill-opacity="0.25" fill-rule="evenodd"/><path fill="#000000" d="M 199.976562 181.949219 L 175.15625 182.09375 L 175.15625 182.003906 L 199.976562 181.859375 Z M 199.976562 181.949219 " fill-opacity="0.25" fill-rule="evenodd"/><path fill="#000000" d="M 202.535156 191.074219 L 172.574219 190.804688 L 172.574219 190.714844 L 202.535156 190.988281 Z M 202.535156 191.074219 " fill-opacity="0.25" fill-rule="evenodd"/><path fill="#000000" d="M 202.21875 187.503906 L 172.828125 187.363281 L 172.828125 187.273438 L 202.222656 187.414062 Z M 202.21875 187.503906 " fill-opacity="0.25" fill-rule="evenodd"/><path fill="#000000" d="M 202.167969 194.265625 L 172.777344 194.125 L 172.777344 194.035156 L 202.167969 194.179688 Z M 202.167969 194.265625 " fill-opacity="0.25" fill-rule="evenodd"/><path fill="#000000" d="M 201 197.328125 L 173.894531 197.332031 L 173.894531 197.242188 L 201 197.242188 Z M 201 197.328125 " fill-opacity="0.25" fill-rule="evenodd"/><path fill="#000000" d="M 201.328125 184.539062 L 173.992188 184.789062 L 173.992188 184.699219 L 201.328125 184.453125 Z M 201.328125 184.539062 " fill-opacity="0.25" fill-rule="evenodd"/><g fill="#000000" fill-opacity="1"><g transform="translate(40.515689, 68.651513)"><g><path d="M 19.609375 -0.21875 L 19.101562 -0.21875 L 19.101562 -44.640625 C 19.101562 -48.40625 19.535156 -49.996094 20.402344 -50.648438 L 1.445312 -50.648438 C 2.242188 -49.996094 2.75 -48.40625 2.75 -44.640625 L 2.75 -6.003906 C 2.75 -2.242188 2.242188 -0.652344 1.445312 0 L 40.953125 0 L 41.964844 -13.3125 C 37.40625 -5.210938 28.871094 -0.21875 19.609375 -0.21875 Z M 19.609375 -0.21875 "/></g></g></g><g fill="#000000" fill-opacity="1"><g transform="translate(83.924982, 68.651513)"><g><path d="M 44.933594 -5.355469 L 44.933594 -35.164062 C 44.933594 -38.855469 45.367188 -40.519531 46.160156 -41.167969 L 27.277344 -41.167969 C 28.074219 -40.519531 28.578125 -38.855469 28.578125 -35.164062 L 28.578125 -15.554688 C 28.578125 -14.035156 28.433594 -12.445312 28.21875 -10.925781 C 27.496094 -5.5 19.101562 -4.414062 19.101562 -9.695312 L 19.101562 -35.164062 C 19.101562 -38.855469 19.535156 -40.519531 20.402344 -41.167969 L 1.445312 -41.167969 C 2.242188 -40.519531 2.75 -38.855469 2.75 -35.164062 L 2.75 -13.457031 C 2.75 -2.386719 15.339844 3.90625 24.167969 -2.675781 C 26.410156 -4.414062 27.929688 -6.945312 28.363281 -9.769531 L 28.578125 -11.289062 C 28.722656 -4.195312 34.152344 0 40.230469 0 C 43.269531 0 46.234375 -1.300781 48.261719 -3.546875 C 47.03125 -2.242188 44.933594 -3.617188 44.933594 -5.355469 Z M 44.933594 -5.355469 "/></g></g></g><g fill="#000000" fill-opacity="1"><g transform="translate(133.628627, 68.651513)"><g><path d="M 42.183594 -12.734375 C 39 -9.550781 34.441406 -8.105469 29.953125 -8.753906 C 22.503906 -9.839844 17.292969 -16.570312 17.292969 -24.167969 C 17.292969 -41.605469 32.054688 -44.789062 33.933594 -34.800781 C 35.238281 -28.289062 30.679688 -18.738281 30.679688 -18.738281 L 42.6875 -36.03125 C 39.792969 -37.695312 36.683594 -39 33.425781 -39.867188 C 29.808594 -40.808594 28.433594 -41.242188 22.285156 -41.167969 C 11.070312 -40.878906 1.445312 -31.761719 1.445312 -20.546875 C 1.445312 -9.1875 10.636719 0 21.996094 0 C 27.785156 -0.0742188 33.355469 -2.242188 37.769531 -6.003906 C 40.664062 -8.464844 42.832031 -11.578125 44.0625 -15.121094 C 43.558594 -14.253906 42.90625 -13.457031 42.183594 -12.734375 Z M 42.183594 -12.734375 "/></g></g></g><g fill="#000000" fill-opacity="1"><g transform="translate(179.136037, 68.651513)"><g><path d="M 34.875 -41.167969 C 23.949219 -41.167969 21.128906 -30.679688 21.128906 -30.679688 L 21.128906 -44.640625 C 21.128906 -48.40625 21.632812 -49.996094 22.429688 -50.648438 L 3.472656 -50.648438 C 4.339844 -49.996094 4.773438 -48.40625 4.773438 -44.640625 L 4.773438 -4.921875 C 4.773438 -3.183594 2.675781 -1.882812 1.445312 -3.109375 C 3.472656 -0.867188 6.441406 0.433594 9.476562 0.433594 C 15.121094 0.433594 19.898438 -3.617188 20.910156 -9.117188 C 23.441406 -4.847656 27.855469 0 34.875 0 C 43.773438 0 51.007812 -9.1875 51.007812 -20.546875 C 51.007812 -31.90625 43.773438 -41.167969 34.875 -41.167969 Z M 31.835938 -10.707031 C 30.097656 -8.394531 27.785156 -7.164062 25.394531 -7.164062 L 25.179688 -7.164062 C 23.585938 -7.234375 22.066406 -7.957031 20.984375 -9.261719 C 21.054688 -9.914062 21.128906 -10.5625 21.128906 -11.289062 L 21.128906 -28.722656 C 21.128906 -31.761719 23.515625 -34.007812 25.757812 -34.007812 C 30.316406 -34.007812 34.730469 -28.722656 34.730469 -20.546875 C 34.730469 -16.425781 33.574219 -13.023438 31.835938 -10.707031 Z M 31.835938 -10.707031 "/></g></g></g><g fill="#000000" fill-opacity="1"><g transform="translate(231.588925, 68.651513)"><g><path d="M 48.042969 -6.800781 L 45.4375 -16.425781 L 42.398438 -27.421875 C 38.855469 -40.519531 22.140625 -44.425781 13.167969 -34.222656 C 16.570312 -38.058594 22.9375 -36.539062 24.3125 -31.546875 L 26.265625 -24.601562 L 25.25 -24.601562 C 25.25 -24.601562 0.796875 -24.890625 1.519531 -11.070312 C 2.316406 3.183594 22.574219 5.355469 28.871094 -7.453125 C 29.449219 -8.609375 29.808594 -9.839844 29.953125 -11.140625 L 30.605469 -8.753906 C 32.199219 -2.675781 38.203125 1.011719 44.28125 -0.21875 C 47.535156 -0.941406 50.285156 -2.964844 51.734375 -5.933594 C 50.9375 -4.414062 48.476562 -5.136719 48.042969 -6.800781 Z M 25.179688 -5.789062 C 24.960938 -5.714844 24.746094 -5.714844 24.527344 -5.714844 C 20.984375 -5.714844 18.015625 -8.464844 17.800781 -11.9375 C 17.4375 -17.507812 21.054688 -23.007812 26.265625 -24.382812 L 29.519531 -12.589844 C 29.953125 -11.070312 29.738281 -9.476562 28.871094 -8.175781 C 28.074219 -6.875 26.699219 -6.003906 25.179688 -5.789062 Z M 25.179688 -5.789062 "/></g></g></g><g fill="#000000" fill-opacity="1"><g transform="translate(284.765313, 68.651513)"><g><path d="M 29.304688 0 L 48.261719 0 C 47.464844 -0.652344 46.957031 -2.242188 46.957031 -6.003906 L 46.957031 -27.710938 C 46.957031 -38.78125 34.367188 -45.078125 25.539062 -38.421875 C 23.296875 -36.753906 21.777344 -34.222656 21.34375 -31.402344 L 21.128906 -29.882812 C 20.984375 -36.972656 15.554688 -41.167969 9.476562 -41.167969 C 6.441406 -41.167969 3.472656 -39.867188 1.445312 -37.625 C 2.675781 -38.855469 4.773438 -37.550781 4.773438 -35.816406 L 4.773438 -6.003906 C 4.773438 -2.242188 4.339844 -0.652344 3.472656 0 L 22.429688 0 C 21.632812 -0.652344 21.128906 -2.242188 21.128906 -6.003906 L 21.128906 -25.613281 C 21.128906 -27.132812 21.273438 -28.722656 21.488281 -30.242188 C 22.210938 -35.597656 30.605469 -36.753906 30.605469 -31.472656 L 30.605469 -6.003906 C 30.605469 -2.242188 30.171875 -0.652344 29.304688 0 Z M 29.304688 0 "/></g></g></g><g fill="#000000" fill-opacity="1"><g transform="translate(37.511721, 339.347615)"><g><path d="M 10.921875 0.28125 C 9.078125 0.28125 7.453125 -0.0976562 6.046875 -0.859375 C 4.648438 -1.628906 3.554688 -2.78125 2.765625 -4.3125 C 1.972656 -5.851562 1.578125 -7.75 1.578125 -10 C 1.578125 -12.25 1.972656 -14.140625 2.765625 -15.671875 C 3.554688 -17.210938 4.648438 -18.363281 6.046875 -19.125 C 7.453125 -19.894531 9.078125 -20.28125 10.921875 -20.28125 C 12.847656 -20.28125 14.484375 -19.898438 15.828125 -19.140625 C 17.171875 -18.390625 18.128906 -17.242188 18.703125 -15.703125 L 15.8125 -13.953125 L 15.484375 -13.953125 C 15.046875 -14.992188 14.460938 -15.738281 13.734375 -16.1875 C 13.003906 -16.644531 12.066406 -16.875 10.921875 -16.875 C 9.265625 -16.875 7.96875 -16.320312 7.03125 -15.21875 C 6.101562 -14.125 5.640625 -12.382812 5.640625 -10 C 5.640625 -7.613281 6.101562 -5.867188 7.03125 -4.765625 C 7.96875 -3.671875 9.265625 -3.125 10.921875 -3.125 C 13.523438 -3.125 15.117188 -4.390625 15.703125 -6.921875 L 16.03125 -6.921875 L 18.953125 -5.40625 C 18.398438 -3.507812 17.460938 -2.085938 16.140625 -1.140625 C 14.828125 -0.191406 13.085938 0.28125 10.921875 0.28125 Z M 10.921875 0.28125 "/></g></g></g><g fill="#000000" fill-opacity="1"><g transform="translate(57.114453, 339.347615)"><g><path d="M 2.171875 0 L 2.171875 -21.140625 L 5.96875 -21.140625 L 5.96875 -13.109375 L 6.25 -13.0625 C 6.75 -13.800781 7.363281 -14.367188 8.09375 -14.765625 C 8.820312 -15.171875 9.703125 -15.375 10.734375 -15.375 C 14.054688 -15.375 15.71875 -13.484375 15.71875 -9.703125 L 15.71875 0 L 11.9375 0 L 11.9375 -9.234375 C 11.9375 -10.265625 11.726562 -11.007812 11.3125 -11.46875 C 10.90625 -11.9375 10.269531 -12.171875 9.40625 -12.171875 C 8.351562 -12.171875 7.515625 -11.816406 6.890625 -11.109375 C 6.273438 -10.398438 5.96875 -9.300781 5.96875 -7.8125 L 5.96875 0 Z M 2.171875 0 "/></g></g></g><g fill="#000000" fill-opacity="1"><g transform="translate(74.77605, 339.347615)"><g><path d="M 5.875 0.28125 C 4.914062 0.28125 4.078125 0.101562 3.359375 -0.25 C 2.648438 -0.601562 2.101562 -1.125 1.71875 -1.8125 C 1.34375 -2.5 1.15625 -3.328125 1.15625 -4.296875 C 1.15625 -5.191406 1.34375 -5.941406 1.71875 -6.546875 C 2.101562 -7.148438 2.695312 -7.644531 3.5 -8.03125 C 4.300781 -8.414062 5.347656 -8.710938 6.640625 -8.921875 C 7.546875 -9.066406 8.234375 -9.226562 8.703125 -9.40625 C 9.171875 -9.582031 9.488281 -9.78125 9.65625 -10 C 9.820312 -10.21875 9.90625 -10.492188 9.90625 -10.828125 C 9.90625 -11.304688 9.734375 -11.671875 9.390625 -11.921875 C 9.054688 -12.179688 8.5 -12.3125 7.71875 -12.3125 C 6.875 -12.3125 6.070312 -12.125 5.3125 -11.75 C 4.5625 -11.382812 3.90625 -10.894531 3.34375 -10.28125 L 3.078125 -10.28125 L 1.484375 -12.671875 C 2.253906 -13.523438 3.191406 -14.1875 4.296875 -14.65625 C 5.398438 -15.132812 6.601562 -15.375 7.90625 -15.375 C 9.894531 -15.375 11.335938 -14.945312 12.234375 -14.09375 C 13.128906 -13.25 13.578125 -12.046875 13.578125 -10.484375 L 13.578125 -3.9375 C 13.578125 -3.257812 13.875 -2.921875 14.46875 -2.921875 C 14.695312 -2.921875 14.921875 -2.960938 15.140625 -3.046875 L 15.328125 -3 L 15.59375 -0.359375 C 15.382812 -0.222656 15.09375 -0.109375 14.71875 -0.015625 C 14.351562 0.0664062 13.945312 0.109375 13.5 0.109375 C 12.59375 0.109375 11.882812 -0.0625 11.375 -0.40625 C 10.875 -0.757812 10.515625 -1.300781 10.296875 -2.03125 L 10.015625 -2.0625 C 9.273438 -0.5 7.894531 0.28125 5.875 0.28125 Z M 7.078125 -2.546875 C 7.953125 -2.546875 8.648438 -2.835938 9.171875 -3.421875 C 9.703125 -4.015625 9.96875 -4.832031 9.96875 -5.875 L 9.96875 -7.40625 L 9.703125 -7.46875 C 9.472656 -7.28125 9.175781 -7.125 8.8125 -7 C 8.445312 -6.882812 7.914062 -6.765625 7.21875 -6.640625 C 6.394531 -6.503906 5.800781 -6.269531 5.4375 -5.9375 C 5.082031 -5.601562 4.90625 -5.132812 4.90625 -4.53125 C 4.90625 -3.882812 5.097656 -3.390625 5.484375 -3.046875 C 5.867188 -2.710938 6.398438 -2.546875 7.078125 -2.546875 Z M 7.078125 -2.546875 "/></g></g></g><g fill="#000000" fill-opacity="1"><g transform="translate(90.674228, 339.347615)"><g><path d="M 2.171875 0 L 2.171875 -15.078125 L 5.8125 -15.078125 L 5.8125 -13.0625 L 6.09375 -13 C 6.59375 -13.8125 7.171875 -14.410156 7.828125 -14.796875 C 8.484375 -15.179688 9.328125 -15.375 10.359375 -15.375 C 11.503906 -15.375 12.421875 -15.144531 13.109375 -14.6875 C 13.804688 -14.238281 14.3125 -13.582031 14.625 -12.71875 L 14.921875 -12.71875 C 15.378906 -13.613281 15.972656 -14.28125 16.703125 -14.71875 C 17.441406 -15.15625 18.359375 -15.375 19.453125 -15.375 C 22.578125 -15.375 24.140625 -13.628906 24.140625 -10.140625 L 24.140625 0 L 20.359375 0 L 20.359375 -9.671875 C 20.359375 -10.554688 20.179688 -11.191406 19.828125 -11.578125 C 19.484375 -11.972656 18.929688 -12.171875 18.171875 -12.171875 C 16.085938 -12.171875 15.046875 -10.78125 15.046875 -8 L 15.046875 0 L 11.265625 0 L 11.265625 -9.671875 C 11.265625 -10.554688 11.085938 -11.191406 10.734375 -11.578125 C 10.390625 -11.972656 9.832031 -12.171875 9.0625 -12.171875 C 8.09375 -12.171875 7.332031 -11.84375 6.78125 -11.1875 C 6.238281 -10.539062 5.96875 -9.503906 5.96875 -8.078125 L 5.96875 0 Z M 2.171875 0 "/></g></g></g><g fill="#000000" fill-opacity="1"><g transform="translate(116.756524, 339.347615)"><g><path d="M 10.546875 0.28125 C 8.617188 0.28125 7.1875 -0.4375 6.25 -1.875 L 5.96875 -1.8125 L 5.96875 0 L 2.171875 0 L 2.171875 -21.140625 L 5.96875 -21.140625 L 5.96875 -13.296875 L 6.25 -13.25 C 6.769531 -13.96875 7.378906 -14.5 8.078125 -14.84375 C 8.785156 -15.195312 9.632812 -15.375 10.625 -15.375 C 11.84375 -15.375 12.90625 -15.082031 13.8125 -14.5 C 14.726562 -13.925781 15.441406 -13.050781 15.953125 -11.875 C 16.460938 -10.707031 16.71875 -9.257812 16.71875 -7.53125 C 16.71875 -5.820312 16.453125 -4.378906 15.921875 -3.203125 C 15.398438 -2.035156 14.671875 -1.160156 13.734375 -0.578125 C 12.804688 -0.00390625 11.742188 0.28125 10.546875 0.28125 Z M 9.390625 -2.921875 C 10.503906 -2.921875 11.351562 -3.289062 11.9375 -4.03125 C 12.519531 -4.78125 12.8125 -5.945312 12.8125 -7.53125 C 12.8125 -9.125 12.519531 -10.289062 11.9375 -11.03125 C 11.351562 -11.78125 10.503906 -12.15625 9.390625 -12.15625 C 8.328125 -12.15625 7.484375 -11.769531 6.859375 -11 C 6.234375 -10.238281 5.921875 -9.082031 5.921875 -7.53125 C 5.921875 -5.976562 6.234375 -4.820312 6.859375 -4.0625 C 7.484375 -3.300781 8.328125 -2.921875 9.390625 -2.921875 Z M 9.390625 -2.921875 "/></g></g></g><g fill="#000000" fill-opacity="1"><g transform="translate(134.814556, 339.347615)"><g><path d="M 14.90625 -6.6875 L 5.203125 -6.6875 C 5.316406 -5.375 5.691406 -4.414062 6.328125 -3.8125 C 6.960938 -3.21875 7.832031 -2.921875 8.9375 -2.921875 C 9.800781 -2.921875 10.503906 -3.082031 11.046875 -3.40625 C 11.585938 -3.726562 12.019531 -4.21875 12.34375 -4.875 L 12.640625 -4.875 L 15.15625 -3.265625 C 14.65625 -2.210938 13.910156 -1.359375 12.921875 -0.703125 C 11.929688 -0.046875 10.601562 0.28125 8.9375 0.28125 C 7.382812 0.28125 6.039062 -0.0078125 4.90625 -0.59375 C 3.769531 -1.1875 2.894531 -2.066406 2.28125 -3.234375 C 1.664062 -4.410156 1.359375 -5.84375 1.359375 -7.53125 C 1.359375 -9.25 1.679688 -10.691406 2.328125 -11.859375 C 2.972656 -13.035156 3.847656 -13.914062 4.953125 -14.5 C 6.054688 -15.082031 7.296875 -15.375 8.671875 -15.375 C 10.804688 -15.375 12.4375 -14.804688 13.5625 -13.671875 C 14.695312 -12.546875 15.265625 -10.890625 15.265625 -8.703125 C 15.265625 -7.898438 15.238281 -7.28125 15.1875 -6.84375 Z M 11.65625 -9.140625 C 11.613281 -10.285156 11.34375 -11.117188 10.84375 -11.640625 C 10.351562 -12.160156 9.628906 -12.421875 8.671875 -12.421875 C 6.753906 -12.421875 5.628906 -11.328125 5.296875 -9.140625 Z M 11.65625 -9.140625 "/></g></g></g><g fill="#000000" fill-opacity="1"><g transform="translate(151.204852, 339.347615)"><g><path d="M 2.171875 0 L 2.171875 -15.078125 L 5.859375 -15.078125 L 5.859375 -12.84375 L 6.140625 -12.78125 C 6.503906 -13.625 6.984375 -14.238281 7.578125 -14.625 C 8.171875 -15.019531 8.890625 -15.21875 9.734375 -15.21875 C 10.585938 -15.21875 11.238281 -15.070312 11.6875 -14.78125 L 11.046875 -11.515625 L 10.765625 -11.453125 C 10.515625 -11.554688 10.273438 -11.628906 10.046875 -11.671875 C 9.816406 -11.722656 9.539062 -11.75 9.21875 -11.75 C 8.15625 -11.75 7.347656 -11.375 6.796875 -10.625 C 6.242188 -9.882812 5.96875 -8.695312 5.96875 -7.0625 L 5.96875 0 Z M 2.171875 0 "/></g></g></g><g fill="#000000" fill-opacity="1"><g transform="translate(163.029379, 339.347615)"><g/></g></g><g fill="#000000" fill-opacity="1"><g transform="translate(169.631978, 339.347615)"><g><path d="M 8.765625 0.28125 C 7.285156 0.28125 5.988281 -0.0195312 4.875 -0.625 C 3.757812 -1.226562 2.894531 -2.113281 2.28125 -3.28125 C 1.664062 -4.457031 1.359375 -5.875 1.359375 -7.53125 C 1.359375 -9.1875 1.664062 -10.601562 2.28125 -11.78125 C 2.894531 -12.957031 3.757812 -13.847656 4.875 -14.453125 C 5.988281 -15.066406 7.285156 -15.375 8.765625 -15.375 C 10.242188 -15.375 11.539062 -15.066406 12.65625 -14.453125 C 13.769531 -13.847656 14.632812 -12.957031 15.25 -11.78125 C 15.875 -10.601562 16.1875 -9.1875 16.1875 -7.53125 C 16.1875 -5.875 15.875 -4.457031 15.25 -3.28125 C 14.632812 -2.113281 13.769531 -1.226562 12.65625 -0.625 C 11.539062 -0.0195312 10.242188 0.28125 8.765625 0.28125 Z M 8.765625 -2.921875 C 11.109375 -2.921875 12.28125 -4.457031 12.28125 -7.53125 C 12.28125 -9.125 11.976562 -10.289062 11.375 -11.03125 C 10.769531 -11.78125 9.898438 -12.15625 8.765625 -12.15625 C 6.421875 -12.15625 5.25 -10.613281 5.25 -7.53125 C 5.25 -4.457031 6.421875 -2.921875 8.765625 -2.921875 Z M 8.765625 -2.921875 "/></g></g></g><g fill="#000000" fill-opacity="1"><g transform="translate(187.156875, 339.347615)"><g><path d="M 2.640625 0 L 2.640625 -12.09375 L 0.5 -12.09375 L 0.5 -15.09375 L 2.640625 -15.09375 C 2.484375 -15.726562 2.40625 -16.328125 2.40625 -16.890625 C 2.40625 -17.847656 2.625 -18.664062 3.0625 -19.34375 C 3.5 -20.019531 4.128906 -20.535156 4.953125 -20.890625 C 5.773438 -21.242188 6.75 -21.421875 7.875 -21.421875 C 9.539062 -21.421875 10.785156 -21.132812 11.609375 -20.5625 L 10.71875 -17.78125 L 10.4375 -17.71875 C 9.863281 -18.125 9.140625 -18.328125 8.265625 -18.328125 C 7.578125 -18.328125 7.0625 -18.160156 6.71875 -17.828125 C 6.375 -17.492188 6.203125 -17.039062 6.203125 -16.46875 C 6.203125 -16.21875 6.21875 -15.988281 6.25 -15.78125 C 6.28125 -15.582031 6.335938 -15.351562 6.421875 -15.09375 L 10.734375 -15.09375 L 10.734375 -12.09375 L 6.421875 -12.09375 L 6.421875 0 Z M 2.640625 0 "/></g></g></g><g fill="#000000" fill-opacity="1"><g transform="translate(198.038169, 339.347615)"><g/></g></g><g fill="#000000" fill-opacity="1"><g transform="translate(204.640768, 339.347615)"><g><path d="M 10.921875 0.28125 C 9.078125 0.28125 7.453125 -0.0976562 6.046875 -0.859375 C 4.648438 -1.628906 3.554688 -2.78125 2.765625 -4.3125 C 1.972656 -5.851562 1.578125 -7.75 1.578125 -10 C 1.578125 -12.25 1.972656 -14.140625 2.765625 -15.671875 C 3.554688 -17.210938 4.648438 -18.363281 6.046875 -19.125 C 7.453125 -19.894531 9.078125 -20.28125 10.921875 -20.28125 C 12.847656 -20.28125 14.484375 -19.898438 15.828125 -19.140625 C 17.171875 -18.390625 18.128906 -17.242188 18.703125 -15.703125 L 15.8125 -13.953125 L 15.484375 -13.953125 C 15.046875 -14.992188 14.460938 -15.738281 13.734375 -16.1875 C 13.003906 -16.644531 12.066406 -16.875 10.921875 -16.875 C 9.265625 -16.875 7.96875 -16.320312 7.03125 -15.21875 C 6.101562 -14.125 5.640625 -12.382812 5.640625 -10 C 5.640625 -7.613281 6.101562 -5.867188 7.03125 -4.765625 C 7.96875 -3.671875 9.265625 -3.125 10.921875 -3.125 C 13.523438 -3.125 15.117188 -4.390625 15.703125 -6.921875 L 16.03125 -6.921875 L 18.953125 -5.40625 C 18.398438 -3.507812 17.460938 -2.085938 16.140625 -1.140625 C 14.828125 -0.191406 13.085938 0.28125 10.921875 0.28125 Z M 10.921875 0.28125 "/></g></g></g><g fill="#000000" fill-opacity="1"><g transform="translate(224.243501, 339.347615)"><g><path d="M 8.765625 0.28125 C 7.285156 0.28125 5.988281 -0.0195312 4.875 -0.625 C 3.757812 -1.226562 2.894531 -2.113281 2.28125 -3.28125 C 1.664062 -4.457031 1.359375 -5.875 1.359375 -7.53125 C 1.359375 -9.1875 1.664062 -10.601562 2.28125 -11.78125 C 2.894531 -12.957031 3.757812 -13.847656 4.875 -14.453125 C 5.988281 -15.066406 7.285156 -15.375 8.765625 -15.375 C 10.242188 -15.375 11.539062 -15.066406 12.65625 -14.453125 C 13.769531 -13.847656 14.632812 -12.957031 15.25 -11.78125 C 15.875 -10.601562 16.1875 -9.1875 16.1875 -7.53125 C 16.1875 -5.875 15.875 -4.457031 15.25 -3.28125 C 14.632812 -2.113281 13.769531 -1.226562 12.65625 -0.625 C 11.539062 -0.0195312 10.242188 0.28125 8.765625 0.28125 Z M 8.765625 -2.921875 C 11.109375 -2.921875 12.28125 -4.457031 12.28125 -7.53125 C 12.28125 -9.125 11.976562 -10.289062 11.375 -11.03125 C 10.769531 -11.78125 9.898438 -12.15625 8.765625 -12.15625 C 6.421875 -12.15625 5.25 -10.613281 5.25 -7.53125 C 5.25 -4.457031 6.421875 -2.921875 8.765625 -2.921875 Z M 8.765625 -2.921875 "/></g></g></g><g fill="#000000" fill-opacity="1"><g transform="translate(241.768398, 339.347615)"><g><path d="M 2.171875 0 L 2.171875 -15.078125 L 5.8125 -15.078125 L 5.8125 -13.0625 L 6.09375 -13 C 6.59375 -13.8125 7.171875 -14.410156 7.828125 -14.796875 C 8.484375 -15.179688 9.328125 -15.375 10.359375 -15.375 C 11.503906 -15.375 12.421875 -15.144531 13.109375 -14.6875 C 13.804688 -14.238281 14.3125 -13.582031 14.625 -12.71875 L 14.921875 -12.71875 C 15.378906 -13.613281 15.972656 -14.28125 16.703125 -14.71875 C 17.441406 -15.15625 18.359375 -15.375 19.453125 -15.375 C 22.578125 -15.375 24.140625 -13.628906 24.140625 -10.140625 L 24.140625 0 L 20.359375 0 L 20.359375 -9.671875 C 20.359375 -10.554688 20.179688 -11.191406 19.828125 -11.578125 C 19.484375 -11.972656 18.929688 -12.171875 18.171875 -12.171875 C 16.085938 -12.171875 15.046875 -10.78125 15.046875 -8 L 15.046875 0 L 11.265625 0 L 11.265625 -9.671875 C 11.265625 -10.554688 11.085938 -11.191406 10.734375 -11.578125 C 10.390625 -11.972656 9.832031 -12.171875 9.0625 -12.171875 C 8.09375 -12.171875 7.332031 -11.84375 6.78125 -11.1875 C 6.238281 -10.539062 5.96875 -9.503906 5.96875 -8.078125 L 5.96875 0 Z M 2.171875 0 "/></g></g></g><g fill="#000000" fill-opacity="1"><g transform="translate(267.850695, 339.347615)"><g><path d="M 2.171875 0 L 2.171875 -15.078125 L 5.8125 -15.078125 L 5.8125 -13.0625 L 6.09375 -13 C 6.59375 -13.8125 7.171875 -14.410156 7.828125 -14.796875 C 8.484375 -15.179688 9.328125 -15.375 10.359375 -15.375 C 11.503906 -15.375 12.421875 -15.144531 13.109375 -14.6875 C 13.804688 -14.238281 14.3125 -13.582031 14.625 -12.71875 L 14.921875 -12.71875 C 15.378906 -13.613281 15.972656 -14.28125 16.703125 -14.71875 C 17.441406 -15.15625 18.359375 -15.375 19.453125 -15.375 C 22.578125 -15.375 24.140625 -13.628906 24.140625 -10.140625 L 24.140625 0 L 20.359375 0 L 20.359375 -9.671875 C 20.359375 -10.554688 20.179688 -11.191406 19.828125 -11.578125 C 19.484375 -11.972656 18.929688 -12.171875 18.171875 -12.171875 C 16.085938 -12.171875 15.046875 -10.78125 15.046875 -8 L 15.046875 0 L 11.265625 0 L 11.265625 -9.671875 C 11.265625 -10.554688 11.085938 -11.191406 10.734375 -11.578125 C 10.390625 -11.972656 9.832031 -12.171875 9.0625 -12.171875 C 8.09375 -12.171875 7.332031 -11.84375 6.78125 -11.1875 C 6.238281 -10.539062 5.96875 -9.503906 5.96875 -8.078125 L 5.96875 0 Z M 2.171875 0 "/></g></g></g><g fill="#000000" fill-opacity="1"><g transform="translate(293.932991, 339.347615)"><g><path d="M 14.90625 -6.6875 L 5.203125 -6.6875 C 5.316406 -5.375 5.691406 -4.414062 6.328125 -3.8125 C 6.960938 -3.21875 7.832031 -2.921875 8.9375 -2.921875 C 9.800781 -2.921875 10.503906 -3.082031 11.046875 -3.40625 C 11.585938 -3.726562 12.019531 -4.21875 12.34375 -4.875 L 12.640625 -4.875 L 15.15625 -3.265625 C 14.65625 -2.210938 13.910156 -1.359375 12.921875 -0.703125 C 11.929688 -0.046875 10.601562 0.28125 8.9375 0.28125 C 7.382812 0.28125 6.039062 -0.0078125 4.90625 -0.59375 C 3.769531 -1.1875 2.894531 -2.066406 2.28125 -3.234375 C 1.664062 -4.410156 1.359375 -5.84375 1.359375 -7.53125 C 1.359375 -9.25 1.679688 -10.691406 2.328125 -11.859375 C 2.972656 -13.035156 3.847656 -13.914062 4.953125 -14.5 C 6.054688 -15.082031 7.296875 -15.375 8.671875 -15.375 C 10.804688 -15.375 12.4375 -14.804688 13.5625 -13.671875 C 14.695312 -12.546875 15.265625 -10.890625 15.265625 -8.703125 C 15.265625 -7.898438 15.238281 -7.28125 15.1875 -6.84375 Z M 11.65625 -9.140625 C 11.613281 -10.285156 11.34375 -11.117188 10.84375 -11.640625 C 10.351562 -12.160156 9.628906 -12.421875 8.671875 -12.421875 C 6.753906 -12.421875 5.628906 -11.328125 5.296875 -9.140625 Z M 11.65625 -9.140625 "/></g></g></g><g fill="#000000" fill-opacity="1"><g transform="translate(310.323287, 339.347615)"><g><path d="M 2.171875 0 L 2.171875 -15.078125 L 5.859375 -15.078125 L 5.859375 -12.84375 L 6.140625 -12.78125 C 6.503906 -13.625 6.984375 -14.238281 7.578125 -14.625 C 8.171875 -15.019531 8.890625 -15.21875 9.734375 -15.21875 C 10.585938 -15.21875 11.238281 -15.070312 11.6875 -14.78125 L 11.046875 -11.515625 L 10.765625 -11.453125 C 10.515625 -11.554688 10.273438 -11.628906 10.046875 -11.671875 C 9.816406 -11.722656 9.539062 -11.75 9.21875 -11.75 C 8.15625 -11.75 7.347656 -11.375 6.796875 -10.625 C 6.242188 -9.882812 5.96875 -8.695312 5.96875 -7.0625 L 5.96875 0 Z M 2.171875 0 "/></g></g></g><g fill="#000000" fill-opacity="1"><g transform="translate(322.147825, 339.347615)"><g><path d="M 8.796875 0.28125 C 7.335938 0.28125 6.046875 -0.0195312 4.921875 -0.625 C 3.796875 -1.226562 2.921875 -2.117188 2.296875 -3.296875 C 1.671875 -4.472656 1.359375 -5.882812 1.359375 -7.53125 C 1.359375 -9.1875 1.671875 -10.601562 2.296875 -11.78125 C 2.921875 -12.957031 3.789062 -13.847656 4.90625 -14.453125 C 6.019531 -15.066406 7.289062 -15.375 8.71875 -15.375 C 11.90625 -15.375 13.941406 -14.21875 14.828125 -11.90625 L 12.234375 -10.046875 L 11.953125 -10.046875 C 11.640625 -10.753906 11.234375 -11.28125 10.734375 -11.625 C 10.242188 -11.976562 9.570312 -12.15625 8.71875 -12.15625 C 7.625 -12.15625 6.769531 -11.773438 6.15625 -11.015625 C 5.550781 -10.265625 5.25 -9.101562 5.25 -7.53125 C 5.25 -5.976562 5.554688 -4.820312 6.171875 -4.0625 C 6.796875 -3.300781 7.671875 -2.921875 8.796875 -2.921875 C 9.609375 -2.921875 10.300781 -3.140625 10.875 -3.578125 C 11.445312 -4.023438 11.851562 -4.664062 12.09375 -5.5 L 12.390625 -5.53125 L 15.078125 -4.046875 C 14.691406 -2.773438 13.984375 -1.734375 12.953125 -0.921875 C 11.921875 -0.117188 10.535156 0.28125 8.796875 0.28125 Z M 8.796875 0.28125 "/></g></g></g><g fill="#000000" fill-opacity="1"><g transform="translate(337.690595, 339.347615)"><g><path d="M 14.90625 -6.6875 L 5.203125 -6.6875 C 5.316406 -5.375 5.691406 -4.414062 6.328125 -3.8125 C 6.960938 -3.21875 7.832031 -2.921875 8.9375 -2.921875 C 9.800781 -2.921875 10.503906 -3.082031 11.046875 -3.40625 C 11.585938 -3.726562 12.019531 -4.21875 12.34375 -4.875 L 12.640625 -4.875 L 15.15625 -3.265625 C 14.65625 -2.210938 13.910156 -1.359375 12.921875 -0.703125 C 11.929688 -0.046875 10.601562 0.28125 8.9375 0.28125 C 7.382812 0.28125 6.039062 -0.0078125 4.90625 -0.59375 C 3.769531 -1.1875 2.894531 -2.066406 2.28125 -3.234375 C 1.664062 -4.410156 1.359375 -5.84375 1.359375 -7.53125 C 1.359375 -9.25 1.679688 -10.691406 2.328125 -11.859375 C 2.972656 -13.035156 3.847656 -13.914062 4.953125 -14.5 C 6.054688 -15.082031 7.296875 -15.375 8.671875 -15.375 C 10.804688 -15.375 12.4375 -14.804688 13.5625 -13.671875 C 14.695312 -12.546875 15.265625 -10.890625 15.265625 -8.703125 C 15.265625 -7.898438 15.238281 -7.28125 15.1875 -6.84375 Z M 11.65625 -9.140625 C 11.613281 -10.285156 11.34375 -11.117188 10.84375 -11.640625 C 10.351562 -12.160156 9.628906 -12.421875 8.671875 -12.421875 C 6.753906 -12.421875 5.628906 -11.328125 5.296875 -9.140625 Z M 11.65625 -9.140625 "/></g></g></g></svg>