<svg xmlns="http://www.w3.org/2000/svg" xmlns:xlink="http://www.w3.org/1999/xlink" width="500" zoomAndPan="magnify" viewBox="0 0 375 374.999991" height="500" preserveAspectRatio="xMidYMid meet" version="1.0"><defs><g/><clipPath id="fc4bcb0251"><path d="M 19.863281 21.832031 L 361.148438 21.832031 L 361.148438 353.167969 L 19.863281 353.167969 Z M 19.863281 21.832031 " clip-rule="nonzero"/></clipPath><clipPath id="88580d4768"><path d="M 185 53.378906 L 189 53.378906 L 189 56 L 185 56 Z M 185 53.378906 " clip-rule="nonzero"/></clipPath><clipPath id="90535433f6"><path d="M 246 88 L 262.5 88 L 262.5 128 L 246 128 Z M 246 88 " clip-rule="nonzero"/></clipPath><clipPath id="82aa300096"><path d="M 112.5 88 L 129 88 L 129 128 L 112.5 128 Z M 112.5 88 " clip-rule="nonzero"/></clipPath><clipPath id="84cff414d3"><path d="M 199 165 L 216 165 L 216 203.378906 L 199 203.378906 Z M 199 165 " clip-rule="nonzero"/></clipPath><clipPath id="5e5fadbbcc"><path d="M 183 165 L 200 165 L 200 203.378906 L 183 203.378906 Z M 183 165 " clip-rule="nonzero"/></clipPath><clipPath id="2477dcd812"><path d="M 222 165 L 239 165 L 239 203.378906 L 222 203.378906 Z M 222 165 " clip-rule="nonzero"/></clipPath><clipPath id="38d0dca77f"><path d="M 206 165 L 223 165 L 223 203.378906 L 206 203.378906 Z M 206 165 " clip-rule="nonzero"/></clipPath><clipPath id="fbd7a7001a"><path d="M 150 165 L 167 165 L 167 203.378906 L 150 203.378906 Z M 150 165 " clip-rule="nonzero"/></clipPath><clipPath id="9c016ab0cb"><path d="M 134 165 L 151 165 L 151 203.378906 L 134 203.378906 Z M 134 165 " clip-rule="nonzero"/></clipPath><clipPath id="7411b1acfe"><path d="M 175 165 L 192 165 L 192 203.378906 L 175 203.378906 Z M 175 165 " clip-rule="nonzero"/></clipPath><clipPath id="ebf946c0a1"><path d="M 159 165 L 176 165 L 176 203.378906 L 159 203.378906 Z M 159 165 " clip-rule="nonzero"/></clipPath></defs><rect x="-37.5" width="450" fill="#ffffff" y="-37.499999" height="449.999989" fill-opacity="1"/><rect x="-37.5" width="450" fill="#ffffff" y="-37.499999" height="449.999989" fill-opacity="1"/><g clip-path="url(#fc4bcb0251)"><path fill="#17697a" d="M 19.863281 21.832031 L 361.554688 21.832031 L 361.554688 353.167969 L 19.863281 353.167969 Z M 19.863281 21.832031 " fill-opacity="1" fill-rule="nonzero"/></g><path fill="#ffffff" d="M 187.707031 55.003906 L 124.019531 88.839844 L 123.875 88.734375 L 187.5625 54.894531 Z M 187.707031 55.003906 " fill-opacity="1" fill-rule="evenodd"/><path fill="#ffffff" d="M 246.539062 88.839844 L 186.027344 55.003906 L 186.175781 54.898438 L 246.6875 88.738281 Z M 246.539062 88.839844 " fill-opacity="1" fill-rule="evenodd"/><g clip-path="url(#88580d4768)"><path fill="#ffffff" d="M 188.082031 54.363281 C 188.082031 54.910156 187.539062 55.351562 186.867188 55.351562 C 186.195312 55.351562 185.652344 54.910156 185.652344 54.363281 C 185.652344 53.820312 186.195312 53.378906 186.867188 53.378906 C 187.539062 53.378906 188.082031 53.820312 188.082031 54.363281 Z M 186.304688 54.363281 C 186.304688 54.617188 186.558594 54.820312 186.867188 54.820312 C 187.179688 54.820312 187.429688 54.617188 187.429688 54.363281 C 187.429688 54.113281 187.179688 53.90625 186.867188 53.90625 C 186.558594 53.90625 186.304688 54.113281 186.304688 54.363281 Z M 186.304688 54.363281 " fill-opacity="1" fill-rule="nonzero"/></g><path fill="#ffffff" d="M 215.472656 107.914062 C 215.472656 118.460938 204.816406 121.664062 199.488281 127.007812 C 199.488281 120.699219 199.488281 119.777344 199.488281 109.230469 C 199.488281 98.6875 199.488281 93.59375 199.488281 88.824219 C 206.480469 89.78125 215.472656 97.371094 215.472656 107.914062 Z M 215.472656 107.914062 " fill-opacity="1" fill-rule="nonzero"/><path fill="#ffffff" d="M 183.503906 107.914062 C 183.503906 118.460938 194.160156 121.664062 199.488281 127.007812 C 199.488281 120.699219 199.488281 119.777344 199.488281 109.230469 C 199.488281 98.6875 199.488281 93.59375 199.488281 88.824219 C 192.496094 89.78125 183.503906 97.371094 183.503906 107.914062 Z M 183.503906 107.914062 " fill-opacity="0.64" fill-rule="nonzero"/><path fill="#ffffff" d="M 238.523438 107.914062 C 238.523438 118.460938 227.867188 121.664062 222.535156 127.007812 C 222.535156 120.699219 222.535156 119.777344 222.535156 109.230469 C 222.535156 98.6875 222.535156 93.59375 222.535156 88.824219 C 229.53125 89.78125 238.523438 97.371094 238.523438 107.914062 Z M 238.523438 107.914062 " fill-opacity="1" fill-rule="nonzero"/><path fill="#ffffff" d="M 206.550781 107.914062 C 206.550781 118.460938 217.210938 121.664062 222.535156 127.007812 C 222.535156 120.699219 222.535156 119.777344 222.535156 109.230469 C 222.535156 98.6875 222.535156 93.59375 222.535156 88.824219 C 215.542969 89.78125 206.550781 97.371094 206.550781 107.914062 Z M 206.550781 107.914062 " fill-opacity="0.64" fill-rule="nonzero"/><g clip-path="url(#90535433f6)"><path fill="#ffffff" d="M 262.5 107.914062 C 262.5 118.460938 251.84375 121.664062 246.515625 127.007812 C 246.515625 120.699219 246.515625 119.777344 246.515625 109.230469 C 246.515625 98.6875 246.515625 93.59375 246.515625 88.824219 C 253.507812 89.78125 262.5 97.371094 262.5 107.914062 Z M 262.5 107.914062 " fill-opacity="1" fill-rule="nonzero"/></g><path fill="#ffffff" d="M 230.53125 107.914062 C 230.53125 118.460938 241.1875 121.664062 246.515625 127.007812 C 246.515625 120.699219 246.515625 119.777344 246.515625 109.230469 C 246.515625 98.6875 246.515625 93.59375 246.515625 88.824219 C 239.519531 89.78125 230.53125 97.371094 230.53125 107.914062 Z M 230.53125 107.914062 " fill-opacity="0.64" fill-rule="nonzero"/><path fill="#ffffff" d="M 144.46875 107.914062 C 144.46875 118.460938 133.8125 121.664062 128.484375 127.007812 C 128.484375 120.699219 128.484375 119.777344 128.484375 109.230469 C 128.484375 98.6875 128.484375 93.59375 128.484375 88.824219 C 135.480469 89.78125 144.46875 97.371094 144.46875 107.914062 Z M 144.46875 107.914062 " fill-opacity="1" fill-rule="nonzero"/><g clip-path="url(#82aa300096)"><path fill="#ffffff" d="M 112.5 107.914062 C 112.5 118.460938 123.15625 121.664062 128.484375 127.007812 C 128.484375 120.699219 128.484375 119.777344 128.484375 109.230469 C 128.484375 98.6875 128.484375 93.59375 128.484375 88.824219 C 121.492188 89.78125 112.5 97.371094 112.5 107.914062 Z M 112.5 107.914062 " fill-opacity="0.64" fill-rule="nonzero"/></g><path fill="#ffffff" d="M 167.519531 107.914062 C 167.519531 118.460938 156.863281 121.664062 151.535156 127.007812 C 151.535156 120.699219 151.535156 119.777344 151.535156 109.230469 C 151.535156 98.6875 151.535156 93.59375 151.535156 88.824219 C 158.527344 89.78125 167.519531 97.371094 167.519531 107.914062 Z M 167.519531 107.914062 " fill-opacity="1" fill-rule="nonzero"/><path fill="#ffffff" d="M 135.546875 107.914062 C 135.546875 118.460938 146.203125 121.664062 151.535156 127.007812 C 151.535156 120.699219 151.535156 119.777344 151.535156 109.230469 C 151.535156 98.6875 151.535156 93.59375 151.535156 88.824219 C 144.539062 89.78125 135.546875 97.371094 135.546875 107.914062 Z M 135.546875 107.914062 " fill-opacity="0.64" fill-rule="nonzero"/><path fill="#ffffff" d="M 191.496094 107.914062 C 191.496094 118.460938 180.839844 121.664062 175.511719 127.007812 C 175.511719 120.699219 175.511719 119.777344 175.511719 109.230469 C 175.511719 98.6875 175.511719 93.59375 175.511719 88.824219 C 182.503906 89.78125 191.496094 97.371094 191.496094 107.914062 Z M 191.496094 107.914062 " fill-opacity="1" fill-rule="nonzero"/><path fill="#ffffff" d="M 159.527344 107.914062 C 159.527344 118.460938 170.183594 121.664062 175.511719 127.007812 C 175.511719 120.699219 175.511719 119.777344 175.511719 109.230469 C 175.511719 98.6875 175.511719 93.59375 175.511719 88.824219 C 168.519531 89.78125 159.527344 97.371094 159.527344 107.914062 Z M 159.527344 107.914062 " fill-opacity="0.64" fill-rule="nonzero"/><g clip-path="url(#84cff414d3)"><path fill="#ffffff" d="M 215.101562 184.285156 C 215.101562 194.832031 204.445312 198.035156 199.117188 203.378906 C 199.117188 197.070312 199.117188 196.148438 199.117188 185.601562 C 199.117188 175.058594 199.117188 169.96875 199.117188 165.195312 C 206.109375 166.152344 215.101562 173.742188 215.101562 184.285156 Z M 215.101562 184.285156 " fill-opacity="1" fill-rule="nonzero"/></g><g clip-path="url(#5e5fadbbcc)"><path fill="#ffffff" d="M 183.132812 184.285156 C 183.132812 194.832031 193.789062 198.035156 199.117188 203.378906 C 199.117188 197.070312 199.117188 196.148438 199.117188 185.601562 C 199.117188 175.058594 199.117188 169.96875 199.117188 165.195312 C 192.125 166.152344 183.132812 173.742188 183.132812 184.285156 Z M 183.132812 184.285156 " fill-opacity="0.64" fill-rule="nonzero"/></g><g clip-path="url(#2477dcd812)"><path fill="#ffffff" d="M 238.152344 184.285156 C 238.152344 194.832031 227.492188 198.035156 222.164062 203.378906 C 222.164062 197.070312 222.164062 196.148438 222.164062 185.601562 C 222.164062 175.058594 222.164062 169.96875 222.164062 165.195312 C 229.160156 166.152344 238.152344 173.742188 238.152344 184.285156 Z M 238.152344 184.285156 " fill-opacity="1" fill-rule="nonzero"/></g><g clip-path="url(#38d0dca77f)"><path fill="#ffffff" d="M 206.179688 184.285156 C 206.179688 194.832031 216.835938 198.035156 222.164062 203.378906 C 222.164062 197.070312 222.164062 196.148438 222.164062 185.601562 C 222.164062 175.058594 222.164062 169.96875 222.164062 165.195312 C 215.171875 166.152344 206.179688 173.742188 206.179688 184.285156 Z M 206.179688 184.285156 " fill-opacity="0.64" fill-rule="nonzero"/></g><g clip-path="url(#fbd7a7001a)"><path fill="#ffffff" d="M 166.589844 184.285156 C 166.589844 194.832031 155.933594 198.035156 150.605469 203.378906 C 150.605469 197.070312 150.605469 196.148438 150.605469 185.601562 C 150.605469 175.058594 150.605469 169.96875 150.605469 165.195312 C 157.597656 166.152344 166.589844 173.742188 166.589844 184.285156 Z M 166.589844 184.285156 " fill-opacity="1" fill-rule="nonzero"/></g><g clip-path="url(#9c016ab0cb)"><path fill="#ffffff" d="M 134.617188 184.285156 C 134.617188 194.832031 145.277344 198.035156 150.605469 203.378906 C 150.605469 197.070312 150.605469 196.148438 150.605469 185.601562 C 150.605469 175.058594 150.605469 169.96875 150.605469 165.195312 C 143.609375 166.152344 134.617188 173.742188 134.617188 184.285156 Z M 134.617188 184.285156 " fill-opacity="0.64" fill-rule="nonzero"/></g><g clip-path="url(#7411b1acfe)"><path fill="#ffffff" d="M 191.125 184.285156 C 191.125 194.832031 180.46875 198.035156 175.140625 203.378906 C 175.140625 197.070312 175.140625 196.148438 175.140625 185.601562 C 175.140625 175.058594 175.140625 169.96875 175.140625 165.195312 C 182.132812 166.152344 191.125 173.742188 191.125 184.285156 Z M 191.125 184.285156 " fill-opacity="1" fill-rule="nonzero"/></g><g clip-path="url(#ebf946c0a1)"><path fill="#ffffff" d="M 159.152344 184.285156 C 159.152344 194.832031 169.8125 198.035156 175.140625 203.378906 C 175.140625 197.070312 175.140625 196.148438 175.140625 185.601562 C 175.140625 175.058594 175.140625 169.96875 175.140625 165.195312 C 168.144531 166.152344 159.152344 173.742188 159.152344 184.285156 Z M 159.152344 184.285156 " fill-opacity="0.64" fill-rule="nonzero"/></g><path fill="#ffffff" d="M 123.449219 88.773438 C 123.449219 88.441406 123.714844 88.171875 124.046875 88.171875 L 246.535156 88.171875 C 246.863281 88.171875 247.132812 88.441406 247.132812 88.773438 C 247.132812 89.101562 246.863281 89.371094 246.535156 89.371094 L 124.046875 89.371094 C 123.714844 89.371094 123.449219 89.101562 123.449219 88.773438 Z M 123.449219 88.773438 " fill-opacity="1" fill-rule="evenodd"/><path fill="#ffffff" d="M 135.820312 165.195312 C 135.820312 164.867188 136.089844 164.597656 136.417969 164.597656 L 235.929688 164.597656 C 236.261719 164.597656 236.527344 164.867188 236.527344 165.195312 C 236.527344 165.527344 236.261719 165.796875 235.929688 165.796875 L 136.417969 165.796875 C 136.089844 165.796875 135.820312 165.527344 135.820312 165.195312 Z M 135.820312 165.195312 " fill-opacity="1" fill-rule="evenodd"/><path fill="#ffffff" d="M 126.214844 127.015625 C 126.214844 126.683594 126.484375 126.414062 126.816406 126.414062 L 246.535156 126.414062 C 246.863281 126.414062 247.132812 126.683594 247.132812 127.015625 C 247.132812 127.34375 246.863281 127.613281 246.535156 127.613281 L 126.816406 127.613281 C 126.484375 127.613281 126.214844 127.34375 126.214844 127.015625 Z M 126.214844 127.015625 " fill-opacity="1" fill-rule="evenodd"/><path fill="#ffffff" d="M 203.949219 146.101562 C 203.949219 156.644531 193.292969 159.851562 187.964844 165.195312 C 187.964844 158.882812 187.964844 157.960938 187.964844 147.417969 C 187.964844 136.875 187.964844 131.78125 187.964844 127.007812 C 194.957031 127.96875 203.949219 135.554688 203.949219 146.101562 Z M 203.949219 146.101562 " fill-opacity="1" fill-rule="nonzero"/><path fill="#ffffff" d="M 171.980469 146.101562 C 171.980469 156.644531 182.636719 159.851562 187.964844 165.195312 C 187.964844 158.882812 187.964844 157.960938 187.964844 147.417969 C 187.964844 136.875 187.964844 131.78125 187.964844 127.007812 C 180.972656 127.96875 171.980469 135.554688 171.980469 146.101562 Z M 171.980469 146.101562 " fill-opacity="0.64" fill-rule="nonzero"/><path fill="#ffffff" d="M 227.925781 146.101562 C 227.925781 156.644531 217.269531 159.851562 211.941406 165.195312 C 211.941406 158.882812 211.941406 157.960938 211.941406 147.417969 C 211.941406 136.875 211.941406 131.78125 211.941406 127.007812 C 218.9375 127.96875 227.925781 135.554688 227.925781 146.101562 Z M 227.925781 146.101562 " fill-opacity="1" fill-rule="nonzero"/><path fill="#ffffff" d="M 195.957031 146.101562 C 195.957031 156.644531 206.613281 159.851562 211.941406 165.195312 C 211.941406 158.882812 211.941406 157.960938 211.941406 147.417969 C 211.941406 136.875 211.941406 131.78125 211.941406 127.007812 C 204.949219 127.96875 195.957031 135.554688 195.957031 146.101562 Z M 195.957031 146.101562 " fill-opacity="0.64" fill-rule="nonzero"/><path fill="#ffffff" d="M 251.90625 146.101562 C 251.90625 156.644531 241.25 159.851562 235.921875 165.195312 C 235.921875 158.882812 235.921875 157.960938 235.921875 147.417969 C 235.921875 136.875 235.921875 131.78125 235.921875 127.007812 C 242.914062 127.96875 251.90625 135.554688 251.90625 146.101562 Z M 251.90625 146.101562 " fill-opacity="1" fill-rule="nonzero"/><path fill="#ffffff" d="M 219.933594 146.101562 C 219.933594 156.644531 230.589844 159.851562 235.921875 165.195312 C 235.921875 158.882812 235.921875 157.960938 235.921875 147.417969 C 235.921875 136.875 235.921875 131.78125 235.921875 127.007812 C 228.925781 127.96875 219.933594 135.554688 219.933594 146.101562 Z M 219.933594 146.101562 " fill-opacity="0.64" fill-rule="nonzero"/><path fill="#ffffff" d="M 155.996094 146.101562 C 155.996094 156.644531 145.335938 159.851562 140.007812 165.195312 C 140.007812 158.882812 140.007812 157.960938 140.007812 147.417969 C 140.007812 136.875 140.007812 131.78125 140.007812 127.007812 C 147.003906 127.96875 155.996094 135.554688 155.996094 146.101562 Z M 155.996094 146.101562 " fill-opacity="1" fill-rule="nonzero"/><path fill="#ffffff" d="M 124.023438 146.101562 C 124.023438 156.644531 134.679688 159.851562 140.007812 165.195312 C 140.007812 158.882812 140.007812 157.960938 140.007812 147.417969 C 140.007812 136.875 140.007812 131.78125 140.007812 127.007812 C 133.015625 127.96875 124.023438 135.554688 124.023438 146.101562 Z M 124.023438 146.101562 " fill-opacity="0.64" fill-rule="nonzero"/><path fill="#ffffff" d="M 179.972656 146.101562 C 179.972656 156.644531 169.316406 159.851562 163.988281 165.195312 C 163.988281 158.882812 163.988281 157.960938 163.988281 147.417969 C 163.988281 136.875 163.988281 131.78125 163.988281 127.007812 C 170.980469 127.96875 179.972656 135.554688 179.972656 146.101562 Z M 179.972656 146.101562 " fill-opacity="1" fill-rule="nonzero"/><path fill="#ffffff" d="M 148 146.101562 C 148 156.644531 158.660156 159.851562 163.988281 165.195312 C 163.988281 158.882812 163.988281 157.960938 163.988281 147.417969 C 163.988281 136.875 163.988281 131.78125 163.988281 127.007812 C 156.992188 127.96875 148 135.554688 148 146.101562 Z M 148 146.101562 " fill-opacity="0.64" fill-rule="nonzero"/><path fill="#17697a" d="M 372.574219 370.644531 C 369.25 370.644531 365.929688 370.644531 362.609375 370.644531 C 353.648438 370.644531 344.6875 370.644531 335.730469 370.644531 C 322.449219 370.644531 309.164062 370.644531 295.882812 370.644531 C 279.675781 370.644531 263.46875 370.644531 247.265625 370.644531 C 229.578125 370.644531 211.890625 370.644531 194.203125 370.644531 C 176.226562 370.644531 158.25 370.644531 140.273438 370.644531 C 123.625 370.644531 106.980469 370.644531 90.332031 370.644531 C 76.214844 370.644531 62.097656 370.644531 47.980469 370.644531 C 37.832031 370.644531 27.679688 370.644531 17.53125 370.644531 C 12.773438 370.644531 7.886719 370.324219 3.136719 370.644531 C 2.929688 370.660156 2.71875 370.644531 2.507812 370.644531 C 3.152344 371.289062 3.792969 371.929688 4.4375 372.574219 C 4.4375 369.25 4.4375 365.929688 4.4375 362.609375 C 4.4375 353.648438 4.4375 344.6875 4.4375 335.730469 C 4.4375 322.449219 4.4375 309.164062 4.4375 295.882812 C 4.4375 279.675781 4.4375 263.46875 4.4375 247.265625 C 4.4375 229.578125 4.4375 211.890625 4.4375 194.203125 C 4.4375 176.226562 4.4375 158.25 4.4375 140.273438 C 4.4375 123.625 4.4375 106.980469 4.4375 90.332031 C 4.4375 76.214844 4.4375 62.097656 4.4375 47.980469 C 4.4375 37.832031 4.4375 27.679688 4.4375 17.53125 C 4.4375 12.773438 4.757812 7.886719 4.4375 3.136719 C 4.421875 2.929688 4.4375 2.71875 4.4375 2.507812 C 3.792969 3.152344 3.152344 3.792969 2.507812 4.4375 C 5.832031 4.4375 9.152344 4.4375 12.472656 4.4375 C 21.433594 4.4375 30.394531 4.4375 39.351562 4.4375 C 52.636719 4.4375 65.917969 4.4375 79.199219 4.4375 C 95.40625 4.4375 111.613281 4.4375 127.820312 4.4375 C 145.507812 4.4375 163.195312 4.4375 180.882812 4.4375 C 198.859375 4.4375 216.832031 4.4375 234.808594 4.4375 C 251.457031 4.4375 268.101562 4.4375 284.75 4.4375 C 298.867188 4.4375 312.984375 4.4375 327.101562 4.4375 C 337.253906 4.4375 347.402344 4.4375 357.554688 4.4375 C 362.3125 4.4375 367.195312 4.757812 371.945312 4.4375 C 372.152344 4.421875 372.367188 4.4375 372.574219 4.4375 C 371.933594 3.792969 371.289062 3.152344 370.648438 2.507812 C 370.648438 5.832031 370.648438 9.152344 370.648438 12.472656 C 370.648438 21.433594 370.648438 30.394531 370.648438 39.351562 C 370.648438 52.636719 370.648438 65.917969 370.648438 79.199219 C 370.648438 95.40625 370.648438 111.613281 370.648438 127.820312 C 370.648438 145.507812 370.648438 163.195312 370.648438 180.882812 C 370.648438 198.859375 370.648438 216.832031 370.648438 234.808594 C 370.648438 251.457031 370.648438 268.101562 370.648438 284.75 C 370.648438 298.867188 370.648438 312.984375 370.648438 327.101562 C 370.648438 337.253906 370.648438 347.402344 370.648438 357.554688 C 370.648438 362.347656 370.554688 367.152344 370.648438 371.945312 C 370.652344 372.15625 370.648438 372.363281 370.648438 372.574219 C 370.648438 375.054688 374.5 375.058594 374.5 372.574219 C 374.5 369.253906 374.5 365.929688 374.5 362.609375 C 374.5 353.648438 374.5 344.691406 374.5 335.730469 C 374.5 322.449219 374.5 309.164062 374.5 295.882812 C 374.5 279.675781 374.5 263.472656 374.5 247.265625 C 374.5 229.578125 374.5 211.890625 374.5 194.203125 C 374.5 176.226562 374.5 158.25 374.5 140.273438 C 374.5 123.628906 374.5 106.980469 374.5 90.335938 C 374.5 76.214844 374.5 62.097656 374.5 47.980469 C 374.5 37.832031 374.5 27.679688 374.5 17.53125 C 374.5 12.738281 374.59375 7.933594 374.5 3.136719 C 374.5 2.929688 374.5 2.71875 374.5 2.507812 C 374.5 1.46875 373.621094 0.582031 372.574219 0.582031 C 369.253906 0.582031 365.929688 0.582031 362.609375 0.582031 C 353.648438 0.582031 344.691406 0.582031 335.730469 0.582031 C 322.449219 0.582031 309.164062 0.582031 295.882812 0.582031 C 279.675781 0.582031 263.472656 0.582031 247.265625 0.582031 C 229.578125 0.582031 211.890625 0.582031 194.203125 0.582031 C 176.226562 0.582031 158.25 0.582031 140.273438 0.582031 C 123.628906 0.582031 106.980469 0.582031 90.335938 0.582031 C 76.214844 0.582031 62.097656 0.582031 47.980469 0.582031 C 37.832031 0.582031 27.679688 0.582031 17.53125 0.582031 C 12.738281 0.582031 7.933594 0.492188 3.136719 0.582031 C 2.929688 0.585938 2.71875 0.582031 2.507812 0.582031 C 1.46875 0.582031 0.582031 1.464844 0.582031 2.507812 C 0.582031 5.832031 0.582031 9.152344 0.582031 12.476562 C 0.582031 21.433594 0.582031 30.394531 0.582031 39.351562 C 0.582031 52.636719 0.582031 65.917969 0.582031 79.203125 C 0.582031 95.40625 0.582031 111.613281 0.582031 127.820312 C 0.582031 145.507812 0.582031 163.195312 0.582031 180.882812 C 0.582031 198.859375 0.582031 216.835938 0.582031 234.8125 C 0.582031 251.457031 0.582031 268.101562 0.582031 284.75 C 0.582031 298.867188 0.582031 312.984375 0.582031 327.101562 C 0.582031 337.253906 0.582031 347.402344 0.582031 357.554688 C 0.582031 362.347656 0.492188 367.152344 0.582031 371.945312 C 0.585938 372.15625 0.582031 372.367188 0.582031 372.574219 C 0.582031 373.617188 1.464844 374.503906 2.507812 374.503906 C 5.832031 374.503906 9.152344 374.503906 12.476562 374.503906 C 21.433594 374.503906 30.394531 374.503906 39.351562 374.503906 C 52.636719 374.503906 65.917969 374.503906 79.203125 374.503906 C 95.40625 374.503906 111.613281 374.503906 127.820312 374.503906 C 145.507812 374.503906 163.195312 374.503906 180.882812 374.503906 C 198.859375 374.503906 216.835938 374.503906 234.8125 374.503906 C 251.457031 374.503906 268.101562 374.503906 284.75 374.503906 C 298.867188 374.503906 312.984375 374.503906 327.101562 374.503906 C 337.253906 374.503906 347.402344 374.503906 357.554688 374.503906 C 362.347656 374.503906 367.152344 374.59375 371.945312 374.503906 C 372.15625 374.5 372.367188 374.503906 372.574219 374.503906 C 375.054688 374.5 375.058594 370.644531 372.574219 370.644531 Z M 372.574219 370.644531 " fill-opacity="1" fill-rule="nonzero"/><path fill="#17697a" d="M 16 2.507812 C 16 5.828125 16 9.152344 16 12.472656 C 16 21.433594 16 30.390625 16 39.351562 C 16 52.632812 16 65.917969 16 79.199219 C 16 95.40625 16 111.613281 16 127.816406 C 16 145.503906 16 163.195312 16 180.882812 C 16 198.855469 16 216.832031 16 234.808594 C 16 251.457031 16 268.101562 16 284.75 C 16 298.867188 16 312.984375 16 327.101562 C 16 337.25 16 347.402344 16 357.550781 C 16 362.347656 15.910156 367.152344 16 371.945312 C 16.003906 372.15625 16 372.363281 16 372.574219 C 16 375.054688 19.855469 375.058594 19.855469 372.574219 C 19.855469 369.25 19.855469 365.929688 19.855469 362.609375 C 19.855469 353.648438 19.855469 344.6875 19.855469 335.730469 C 19.855469 322.449219 19.855469 309.164062 19.855469 295.882812 C 19.855469 279.675781 19.855469 263.46875 19.855469 247.265625 C 19.855469 229.578125 19.855469 211.890625 19.855469 194.203125 C 19.855469 176.226562 19.855469 158.25 19.855469 140.273438 C 19.855469 123.625 19.855469 106.980469 19.855469 90.332031 C 19.855469 76.214844 19.855469 62.097656 19.855469 47.980469 C 19.855469 37.832031 19.855469 27.679688 19.855469 17.53125 C 19.855469 12.734375 19.945312 7.929688 19.855469 3.136719 C 19.851562 2.929688 19.855469 2.71875 19.855469 2.507812 C 19.855469 0.0273438 16 0.0234375 16 2.507812 Z M 16 2.507812 " fill-opacity="1" fill-rule="nonzero"/><path fill="#17697a" d="M 355.226562 2.507812 C 355.226562 5.828125 355.226562 9.152344 355.226562 12.472656 C 355.226562 21.433594 355.226562 30.390625 355.226562 39.351562 C 355.226562 52.632812 355.226562 65.917969 355.226562 79.199219 C 355.226562 95.40625 355.226562 111.613281 355.226562 127.816406 C 355.226562 145.503906 355.226562 163.195312 355.226562 180.882812 C 355.226562 198.855469 355.226562 216.832031 355.226562 234.808594 C 355.226562 251.457031 355.226562 268.101562 355.226562 284.75 C 355.226562 298.867188 355.226562 312.984375 355.226562 327.101562 C 355.226562 337.25 355.226562 347.402344 355.226562 357.550781 C 355.226562 362.347656 355.136719 367.152344 355.226562 371.945312 C 355.230469 372.15625 355.226562 372.363281 355.226562 372.574219 C 355.226562 375.054688 359.082031 375.058594 359.082031 372.574219 C 359.082031 369.25 359.082031 365.929688 359.082031 362.609375 C 359.082031 353.648438 359.082031 344.6875 359.082031 335.730469 C 359.082031 322.449219 359.082031 309.164062 359.082031 295.882812 C 359.082031 279.675781 359.082031 263.46875 359.082031 247.265625 C 359.082031 229.578125 359.082031 211.890625 359.082031 194.203125 C 359.082031 176.226562 359.082031 158.25 359.082031 140.273438 C 359.082031 123.625 359.082031 106.980469 359.082031 90.332031 C 359.082031 76.214844 359.082031 62.097656 359.082031 47.980469 C 359.082031 37.832031 359.082031 27.679688 359.082031 17.53125 C 359.082031 12.734375 359.171875 7.929688 359.082031 3.136719 C 359.078125 2.929688 359.082031 2.71875 359.082031 2.507812 C 359.082031 0.0273438 355.226562 0.0234375 355.226562 2.507812 Z M 355.226562 2.507812 " fill-opacity="1" fill-rule="nonzero"/><path fill="#17697a" d="M 2.507812 359.082031 C 4.167969 359.082031 5.824219 359.082031 7.484375 359.082031 C 11.953125 359.082031 16.425781 359.082031 20.894531 359.082031 C 27.554688 359.082031 34.210938 359.082031 40.867188 359.082031 C 48.960938 359.082031 57.058594 359.082031 65.152344 359.082031 C 74.019531 359.082031 82.882812 359.082031 91.75 359.082031 C 100.699219 359.082031 109.648438 359.082031 118.59375 359.082031 C 126.941406 359.082031 135.285156 359.082031 143.628906 359.082031 C 150.703125 359.082031 157.777344 359.082031 164.851562 359.082031 C 169.902344 359.082031 174.957031 359.082031 180.007812 359.082031 C 182.417969 359.082031 184.828125 359.128906 187.238281 359.082031 C 187.339844 359.078125 187.441406 359.082031 187.542969 359.082031 C 190.023438 359.082031 190.027344 355.226562 187.542969 355.226562 C 185.882812 355.226562 184.226562 355.226562 182.566406 355.226562 C 178.09375 355.226562 173.625 355.226562 169.152344 355.226562 C 162.496094 355.226562 155.839844 355.226562 149.183594 355.226562 C 141.085938 355.226562 132.992188 355.226562 124.898438 355.226562 C 116.03125 355.226562 107.167969 355.226562 98.300781 355.226562 C 89.351562 355.226562 80.402344 355.226562 71.453125 355.226562 C 63.109375 355.226562 54.765625 355.226562 46.421875 355.226562 C 39.347656 355.226562 32.269531 355.226562 25.195312 355.226562 C 20.144531 355.226562 15.09375 355.226562 10.042969 355.226562 C 7.632812 355.226562 5.21875 355.179688 2.8125 355.226562 C 2.710938 355.230469 2.609375 355.226562 2.507812 355.226562 C 0.0273438 355.226562 0.0234375 359.082031 2.507812 359.082031 Z M 2.507812 359.082031 " fill-opacity="1" fill-rule="nonzero"/><path fill="#17697a" d="M 187.539062 19.855469 C 189.199219 19.855469 190.859375 19.855469 192.515625 19.855469 C 196.984375 19.855469 201.457031 19.855469 205.929688 19.855469 C 212.585938 19.855469 219.242188 19.855469 225.898438 19.855469 C 233.996094 19.855469 242.089844 19.855469 250.183594 19.855469 C 259.050781 19.855469 267.914062 19.855469 276.78125 19.855469 C 285.730469 19.855469 294.679688 19.855469 303.628906 19.855469 C 311.972656 19.855469 320.316406 19.855469 328.660156 19.855469 C 335.734375 19.855469 342.808594 19.855469 349.886719 19.855469 C 354.9375 19.855469 359.988281 19.855469 365.039062 19.855469 C 367.449219 19.855469 369.863281 19.902344 372.269531 19.855469 C 372.371094 19.851562 372.472656 19.855469 372.574219 19.855469 C 375.054688 19.855469 375.058594 16 372.574219 16 C 370.914062 16 369.257812 16 367.597656 16 C 363.128906 16 358.65625 16 354.1875 16 C 347.527344 16 340.871094 16 334.214844 16 C 326.121094 16 318.023438 16 309.929688 16 C 301.066406 16 292.199219 16 283.332031 16 C 274.382812 16 265.4375 16 256.488281 16 C 248.144531 16 239.796875 16 231.453125 16 C 224.378906 16 217.304688 16 210.230469 16 C 205.179688 16 200.125 16 195.074219 16 C 192.667969 16 190.253906 15.953125 187.84375 16 C 187.742188 16.003906 187.644531 16 187.539062 16 C 185.0625 16 185.054688 19.855469 187.539062 19.855469 Z M 187.539062 19.855469 " fill-opacity="1" fill-rule="nonzero"/><g fill="#ffffff" fill-opacity="1"><g transform="translate(70.645423, 290.106982)"><g><path d="M 21.484375 -51.234375 L 21.484375 -49.78125 C 19.847656 -49.726562 18.609375 -49.546875 17.765625 -49.234375 C 16.921875 -48.921875 16.351562 -48.34375 16.0625 -47.5 C 15.769531 -46.65625 15.625 -45.34375 15.625 -43.5625 L 15.625 -7.671875 C 15.625 -5.929688 15.769531 -4.625 16.0625 -3.75 C 16.351562 -2.882812 16.921875 -2.320312 17.765625 -2.0625 C 18.609375 -1.800781 19.847656 -1.671875 21.484375 -1.671875 L 26.765625 -1.671875 C 29.035156 -1.671875 30.878906 -1.910156 32.296875 -2.390625 C 33.722656 -2.867188 34.859375 -3.625 35.703125 -4.65625 C 36.546875 -5.695312 37.1875 -7.085938 37.625 -8.828125 C 38.0625 -10.566406 38.398438 -12.691406 38.640625 -15.203125 L 40.296875 -15.203125 C 40.160156 -13.703125 40.09375 -11.722656 40.09375 -9.265625 C 40.09375 -8.347656 40.125 -7.03125 40.1875 -5.3125 C 40.257812 -3.601562 40.394531 -1.832031 40.59375 0 C 38.132812 -0.09375 35.359375 -0.148438 32.265625 -0.171875 C 29.179688 -0.203125 26.429688 -0.21875 24.015625 -0.21875 C 22.960938 -0.21875 21.601562 -0.21875 19.9375 -0.21875 C 18.269531 -0.21875 16.472656 -0.203125 14.546875 -0.171875 C 12.617188 -0.148438 10.664062 -0.128906 8.6875 -0.109375 C 6.707031 -0.0859375 4.828125 -0.0507812 3.046875 0 L 3.046875 -1.453125 C 4.679688 -1.546875 5.921875 -1.734375 6.765625 -2.015625 C 7.609375 -2.304688 8.175781 -2.882812 8.46875 -3.75 C 8.757812 -4.625 8.90625 -5.929688 8.90625 -7.671875 L 8.90625 -43.5625 C 8.90625 -45.34375 8.757812 -46.65625 8.46875 -47.5 C 8.175781 -48.34375 7.609375 -48.921875 6.765625 -49.234375 C 5.921875 -49.546875 4.679688 -49.726562 3.046875 -49.78125 L 3.046875 -51.234375 C 4.054688 -51.179688 5.378906 -51.128906 7.015625 -51.078125 C 8.660156 -51.035156 10.421875 -51.015625 12.296875 -51.015625 C 13.984375 -51.015625 15.660156 -51.035156 17.328125 -51.078125 C 18.992188 -51.128906 20.378906 -51.179688 21.484375 -51.234375 Z M 21.484375 -51.234375 "/></g></g></g><g fill="#ffffff" fill-opacity="1"><g transform="translate(113.188111, 290.106982)"><g><path d="M 34.953125 -38.0625 L 34.953125 -7.8125 C 34.953125 -5.644531 35.347656 -4.039062 36.140625 -3 C 36.941406 -1.96875 38.378906 -1.453125 40.453125 -1.453125 L 40.453125 0.078125 C 38.953125 -0.0664062 37.457031 -0.140625 35.96875 -0.140625 C 34.5625 -0.140625 33.21875 -0.0664062 31.9375 0.078125 C 30.664062 0.222656 29.5 0.488281 28.4375 0.875 L 28.4375 -7.671875 C 27.226562 -4.535156 25.523438 -2.300781 23.328125 -0.96875 C 21.140625 0.351562 18.882812 1.015625 16.5625 1.015625 C 14.875 1.015625 13.40625 0.769531 12.15625 0.28125 C 10.90625 -0.195312 9.867188 -0.867188 9.046875 -1.734375 C 8.128906 -2.703125 7.5 -3.957031 7.15625 -5.5 C 6.820312 -7.039062 6.65625 -8.945312 6.65625 -11.21875 L 6.65625 -29.375 C 6.65625 -31.550781 6.269531 -33.15625 5.5 -34.1875 C 4.726562 -35.226562 3.28125 -35.75 1.15625 -35.75 L 1.15625 -37.265625 C 2.695312 -37.117188 4.191406 -37.046875 5.640625 -37.046875 C 7.046875 -37.046875 8.382812 -37.128906 9.65625 -37.296875 C 10.9375 -37.460938 12.109375 -37.71875 13.171875 -38.0625 L 13.171875 -9.625 C 13.171875 -8.125 13.265625 -6.75 13.453125 -5.5 C 13.648438 -4.25 14.132812 -3.234375 14.90625 -2.453125 C 15.675781 -1.679688 16.929688 -1.296875 18.671875 -1.296875 C 20.546875 -1.296875 22.21875 -1.875 23.6875 -3.03125 C 25.164062 -4.195312 26.328125 -5.765625 27.171875 -7.734375 C 28.015625 -9.710938 28.4375 -11.9375 28.4375 -14.40625 L 28.4375 -29.375 C 28.4375 -31.550781 28.050781 -33.15625 27.28125 -34.1875 C 26.507812 -35.226562 25.0625 -35.75 22.9375 -35.75 L 22.9375 -37.265625 C 24.476562 -37.117188 25.972656 -37.046875 27.421875 -37.046875 C 28.816406 -37.046875 30.15625 -37.128906 31.4375 -37.296875 C 32.71875 -37.460938 33.890625 -37.71875 34.953125 -38.0625 Z M 34.953125 -38.0625 "/></g></g></g><g fill="#ffffff" fill-opacity="1"><g transform="translate(155.22434, 290.106982)"><g><path d="M 20.1875 -38.28125 C 21.726562 -38.28125 23.222656 -38.085938 24.671875 -37.703125 C 26.117188 -37.316406 27.421875 -36.738281 28.578125 -35.96875 C 29.691406 -35.238281 30.535156 -34.40625 31.109375 -33.46875 C 31.691406 -32.53125 31.984375 -31.503906 31.984375 -30.390625 C 31.984375 -29.085938 31.617188 -28.085938 30.890625 -27.390625 C 30.171875 -26.691406 29.253906 -26.34375 28.140625 -26.34375 C 27.085938 -26.34375 26.160156 -26.65625 25.359375 -27.28125 C 24.566406 -27.90625 24.171875 -28.796875 24.171875 -29.953125 C 24.171875 -31.066406 24.472656 -31.957031 25.078125 -32.625 C 25.679688 -33.300781 26.390625 -33.738281 27.203125 -33.9375 C 26.722656 -34.800781 25.867188 -35.519531 24.640625 -36.09375 C 23.410156 -36.675781 22.09375 -36.96875 20.6875 -36.96875 C 19.488281 -36.96875 18.285156 -36.675781 17.078125 -36.09375 C 15.867188 -35.519531 14.757812 -34.570312 13.75 -33.25 C 12.738281 -31.925781 11.914062 -30.117188 11.28125 -27.828125 C 10.65625 -25.535156 10.34375 -22.675781 10.34375 -19.25 C 10.34375 -15 10.820312 -11.617188 11.78125 -9.109375 C 12.75 -6.609375 14.015625 -4.8125 15.578125 -3.71875 C 17.148438 -2.632812 18.878906 -2.09375 20.765625 -2.09375 C 22.023438 -2.09375 23.304688 -2.332031 24.609375 -2.8125 C 25.910156 -3.300781 27.140625 -4.085938 28.296875 -5.171875 C 29.453125 -6.253906 30.441406 -7.710938 31.265625 -9.546875 L 32.640625 -9.046875 C 32.148438 -7.503906 31.347656 -5.945312 30.234375 -4.375 C 29.128906 -2.8125 27.6875 -1.519531 25.90625 -0.5 C 24.125 0.507812 21.925781 1.015625 19.3125 1.015625 C 16.320312 1.015625 13.617188 0.242188 11.203125 -1.296875 C 8.796875 -2.847656 6.878906 -5.054688 5.453125 -7.921875 C 4.035156 -10.796875 3.328125 -14.207031 3.328125 -18.15625 C 3.328125 -22.113281 4.035156 -25.597656 5.453125 -28.609375 C 6.878906 -31.628906 8.867188 -33.992188 11.421875 -35.703125 C 13.984375 -37.421875 16.90625 -38.28125 20.1875 -38.28125 Z M 20.1875 -38.28125 "/></g></g></g><g fill="#ffffff" fill-opacity="1"><g transform="translate(190.387179, 290.106982)"><g><path d="M 23.59375 -38.28125 C 27.539062 -38.28125 30.816406 -36.648438 33.421875 -33.390625 C 36.035156 -30.140625 37.34375 -25.207031 37.34375 -18.59375 C 37.34375 -14.25 36.601562 -10.617188 35.125 -7.703125 C 33.65625 -4.785156 31.691406 -2.601562 29.234375 -1.15625 C 26.773438 0.289062 24.097656 1.015625 21.203125 1.015625 C 18.785156 1.015625 16.457031 0.328125 14.21875 -1.046875 C 11.976562 -2.421875 10.300781 -4.457031 9.1875 -7.15625 L 10.640625 -6.375 C 11.847656 -4.4375 13.34375 -3 15.125 -2.0625 C 16.90625 -1.125 18.738281 -0.65625 20.625 -0.65625 C 23.851562 -0.65625 26.273438 -2.113281 27.890625 -5.03125 C 29.503906 -7.945312 30.3125 -12.46875 30.3125 -18.59375 C 30.3125 -22.5 30 -25.753906 29.375 -28.359375 C 28.75 -30.960938 27.785156 -32.90625 26.484375 -34.1875 C 25.179688 -35.46875 23.515625 -36.109375 21.484375 -36.109375 C 19.265625 -36.109375 17.203125 -35.101562 15.296875 -33.09375 C 13.398438 -31.09375 12.234375 -28.164062 11.796875 -24.3125 L 10.921875 -25.328125 C 11.453125 -29.421875 12.882812 -32.601562 15.21875 -34.875 C 17.5625 -37.144531 20.351562 -38.28125 23.59375 -38.28125 Z M 12.296875 -56.65625 L 12.296875 -3.765625 C 11.671875 -3.234375 11.03125 -2.6875 10.375 -2.125 C 9.726562 -1.570312 9.09375 -1.03125 8.46875 -0.5 C 7.84375 0.03125 7.191406 0.582031 6.515625 1.15625 L 5.28125 0.65625 C 5.476562 -0.0195312 5.609375 -0.707031 5.671875 -1.40625 C 5.742188 -2.101562 5.78125 -2.816406 5.78125 -3.546875 L 5.78125 -47.96875 C 5.78125 -50.144531 5.394531 -51.75 4.625 -52.78125 C 3.851562 -53.820312 2.410156 -54.34375 0.296875 -54.34375 L 0.296875 -55.859375 C 1.835938 -55.710938 3.332031 -55.640625 4.78125 -55.640625 C 6.175781 -55.640625 7.507812 -55.722656 8.78125 -55.890625 C 10.0625 -56.066406 11.234375 -56.320312 12.296875 -56.65625 Z M 12.296875 -56.65625 "/></g></g></g><g fill="#ffffff" fill-opacity="1"><g transform="translate(231.121082, 290.106982)"><g><path d="M 12.375 0.5 C 10.394531 0.5 8.679688 0.128906 7.234375 -0.609375 C 5.785156 -1.359375 4.6875 -2.40625 3.9375 -3.75 C 3.195312 -5.101562 2.828125 -6.675781 2.828125 -8.46875 C 2.828125 -10.59375 3.316406 -12.328125 4.296875 -13.671875 C 5.285156 -15.023438 6.550781 -16.109375 8.09375 -16.921875 C 9.644531 -17.742188 11.273438 -18.429688 12.984375 -18.984375 C 14.703125 -19.546875 16.332031 -20.078125 17.875 -20.578125 C 19.414062 -21.085938 20.679688 -21.679688 21.671875 -22.359375 C 22.660156 -23.035156 23.15625 -23.925781 23.15625 -25.03125 L 23.15625 -29.515625 C 23.15625 -31.546875 22.851562 -33.09375 22.25 -34.15625 C 21.644531 -35.21875 20.835938 -35.925781 19.828125 -36.28125 C 18.816406 -36.644531 17.679688 -36.828125 16.421875 -36.828125 C 15.210938 -36.828125 13.921875 -36.65625 12.546875 -36.3125 C 11.171875 -35.976562 10.078125 -35.28125 9.265625 -34.21875 C 10.179688 -34.03125 10.972656 -33.550781 11.640625 -32.78125 C 12.316406 -32.007812 12.65625 -31.019531 12.65625 -29.8125 C 12.65625 -28.601562 12.269531 -27.648438 11.5 -26.953125 C 10.726562 -26.253906 9.738281 -25.90625 8.53125 -25.90625 C 7.132812 -25.90625 6.109375 -26.347656 5.453125 -27.234375 C 4.804688 -28.128906 4.484375 -29.132812 4.484375 -30.25 C 4.484375 -31.5 4.796875 -32.507812 5.421875 -33.28125 C 6.054688 -34.050781 6.851562 -34.773438 7.8125 -35.453125 C 8.925781 -36.222656 10.363281 -36.882812 12.125 -37.4375 C 13.882812 -38 15.875 -38.28125 18.09375 -38.28125 C 20.070312 -38.28125 21.757812 -38.050781 23.15625 -37.59375 C 24.550781 -37.132812 25.707031 -36.46875 26.625 -35.59375 C 27.882812 -34.4375 28.707031 -33.023438 29.09375 -31.359375 C 29.476562 -29.703125 29.671875 -27.710938 29.671875 -25.390625 L 29.671875 -5.28125 C 29.671875 -4.070312 29.847656 -3.203125 30.203125 -2.671875 C 30.566406 -2.140625 31.132812 -1.875 31.90625 -1.875 C 32.4375 -1.875 32.941406 -1.992188 33.421875 -2.234375 C 33.910156 -2.484375 34.492188 -2.875 35.171875 -3.40625 L 35.96875 -2.171875 C 34.945312 -1.398438 33.976562 -0.757812 33.0625 -0.25 C 32.144531 0.25 30.914062 0.5 29.375 0.5 C 27.976562 0.5 26.820312 0.257812 25.90625 -0.21875 C 24.988281 -0.695312 24.300781 -1.40625 23.84375 -2.34375 C 23.382812 -3.289062 23.15625 -4.488281 23.15625 -5.9375 C 21.851562 -3.757812 20.296875 -2.140625 18.484375 -1.078125 C 16.679688 -0.0234375 14.644531 0.5 12.375 0.5 Z M 14.984375 -2.390625 C 16.566406 -2.390625 18.046875 -2.847656 19.421875 -3.765625 C 20.796875 -4.679688 22.039062 -6.054688 23.15625 -7.890625 L 23.15625 -22.0625 C 22.570312 -21.25 21.722656 -20.5625 20.609375 -20 C 19.503906 -19.445312 18.300781 -18.894531 17 -18.34375 C 15.695312 -17.789062 14.453125 -17.140625 13.265625 -16.390625 C 12.085938 -15.640625 11.113281 -14.660156 10.34375 -13.453125 C 9.570312 -12.253906 9.1875 -10.6875 9.1875 -8.75 C 9.1875 -6.820312 9.703125 -5.28125 10.734375 -4.125 C 11.773438 -2.96875 13.191406 -2.390625 14.984375 -2.390625 Z M 14.984375 -2.390625 "/></g></g></g><g fill="#ffffff" fill-opacity="1"><g transform="translate(267.152138, 290.106982)"><g><path d="M 26.40625 -38.28125 C 28.238281 -38.28125 29.769531 -38.035156 31 -37.546875 C 32.226562 -37.066406 33.253906 -36.394531 34.078125 -35.53125 C 34.992188 -34.5625 35.644531 -33.351562 36.03125 -31.90625 C 36.414062 -30.457031 36.609375 -28.503906 36.609375 -26.046875 L 36.609375 -6.734375 C 36.609375 -4.703125 37.03125 -3.320312 37.875 -2.59375 C 38.71875 -1.875 40.128906 -1.515625 42.109375 -1.515625 L 42.109375 0 C 41.296875 -0.0507812 40.039062 -0.113281 38.34375 -0.1875 C 36.65625 -0.257812 35.019531 -0.296875 33.4375 -0.296875 C 31.84375 -0.296875 30.285156 -0.257812 28.765625 -0.1875 C 27.242188 -0.113281 26.097656 -0.0507812 25.328125 0 L 25.328125 -1.515625 C 27.066406 -1.515625 28.296875 -1.875 29.015625 -2.59375 C 29.734375 -3.320312 30.09375 -4.703125 30.09375 -6.734375 L 30.09375 -27.640625 C 30.09375 -29.140625 29.972656 -30.515625 29.734375 -31.765625 C 29.492188 -33.015625 28.953125 -34.023438 28.109375 -34.796875 C 27.265625 -35.578125 25.972656 -35.96875 24.234375 -35.96875 C 22.210938 -35.96875 20.441406 -35.382812 18.921875 -34.21875 C 17.398438 -33.0625 16.21875 -31.484375 15.375 -29.484375 C 14.53125 -27.484375 14.109375 -25.253906 14.109375 -22.796875 L 14.109375 -6.734375 C 14.109375 -4.703125 14.46875 -3.320312 15.1875 -2.59375 C 15.914062 -1.875 17.148438 -1.515625 18.890625 -1.515625 L 18.890625 0 C 18.117188 -0.0507812 16.972656 -0.113281 15.453125 -0.1875 C 13.929688 -0.257812 12.375 -0.296875 10.78125 -0.296875 C 9.1875 -0.296875 7.546875 -0.257812 5.859375 -0.1875 C 4.171875 -0.113281 2.914062 -0.0507812 2.09375 0 L 2.09375 -1.515625 C 4.070312 -1.515625 5.484375 -1.875 6.328125 -2.59375 C 7.171875 -3.320312 7.59375 -4.703125 7.59375 -6.734375 L 7.59375 -29.375 C 7.59375 -31.550781 7.207031 -33.15625 6.4375 -34.1875 C 5.664062 -35.226562 4.21875 -35.75 2.09375 -35.75 L 2.09375 -37.265625 C 3.632812 -37.117188 5.128906 -37.046875 6.578125 -37.046875 C 7.984375 -37.046875 9.320312 -37.128906 10.59375 -37.296875 C 11.875 -37.460938 13.046875 -37.71875 14.109375 -38.0625 L 14.109375 -29.515625 C 15.359375 -32.796875 17.101562 -35.078125 19.34375 -36.359375 C 21.59375 -37.640625 23.945312 -38.28125 26.40625 -38.28125 Z M 26.40625 -38.28125 "/></g></g></g><g fill="#ffffff" fill-opacity="1"><g transform="translate(48.680421, 339.347615)"><g><path d="M 10.390625 -20.21875 C 11.617188 -20.21875 12.628906 -20.035156 13.421875 -19.671875 C 14.210938 -19.304688 14.921875 -18.878906 15.546875 -18.390625 C 15.910156 -18.109375 16.191406 -18.078125 16.390625 -18.296875 C 16.585938 -18.515625 16.722656 -19.023438 16.796875 -19.828125 L 17.4375 -19.828125 C 17.40625 -19.128906 17.378906 -18.285156 17.359375 -17.296875 C 17.335938 -16.304688 17.328125 -15.003906 17.328125 -13.390625 L 16.6875 -13.390625 C 16.550781 -14.191406 16.425781 -14.828125 16.3125 -15.296875 C 16.207031 -15.773438 16.078125 -16.179688 15.921875 -16.515625 C 15.765625 -16.859375 15.550781 -17.195312 15.28125 -17.53125 C 14.707031 -18.289062 13.976562 -18.84375 13.09375 -19.1875 C 12.21875 -19.539062 11.296875 -19.71875 10.328125 -19.71875 C 9.410156 -19.71875 8.582031 -19.488281 7.84375 -19.03125 C 7.113281 -18.570312 6.484375 -17.910156 5.953125 -17.046875 C 5.421875 -16.191406 5.007812 -15.15625 4.71875 -13.9375 C 4.425781 -12.726562 4.28125 -11.367188 4.28125 -9.859375 C 4.28125 -8.285156 4.4375 -6.894531 4.75 -5.6875 C 5.070312 -4.488281 5.515625 -3.476562 6.078125 -2.65625 C 6.648438 -1.832031 7.320312 -1.210938 8.09375 -0.796875 C 8.875 -0.378906 9.710938 -0.171875 10.609375 -0.171875 C 11.453125 -0.171875 12.328125 -0.335938 13.234375 -0.671875 C 14.148438 -1.003906 14.875 -1.546875 15.40625 -2.296875 C 15.8125 -2.835938 16.09375 -3.425781 16.25 -4.0625 C 16.40625 -4.695312 16.550781 -5.582031 16.6875 -6.71875 L 17.328125 -6.71875 C 17.328125 -5.019531 17.335938 -3.648438 17.359375 -2.609375 C 17.378906 -1.578125 17.40625 -0.707031 17.4375 0 L 16.796875 0 C 16.722656 -0.800781 16.597656 -1.300781 16.421875 -1.5 C 16.242188 -1.707031 15.953125 -1.679688 15.546875 -1.421875 C 14.847656 -0.941406 14.113281 -0.519531 13.34375 -0.15625 C 12.570312 0.207031 11.578125 0.390625 10.359375 0.390625 C 8.585938 0.390625 7.035156 -0.0078125 5.703125 -0.8125 C 4.367188 -1.613281 3.332031 -2.769531 2.59375 -4.28125 C 1.851562 -5.789062 1.484375 -7.613281 1.484375 -9.75 C 1.484375 -11.832031 1.863281 -13.65625 2.625 -15.21875 C 3.394531 -16.789062 4.445312 -18.015625 5.78125 -18.890625 C 7.113281 -19.773438 8.648438 -20.21875 10.390625 -20.21875 Z M 10.390625 -20.21875 "/></g></g></g><g fill="#ffffff" fill-opacity="1"><g transform="translate(67.941798, 339.347615)"><g><path d="M 5.203125 -21.921875 L 5.203125 -11.453125 C 5.691406 -12.722656 6.367188 -13.597656 7.234375 -14.078125 C 8.109375 -14.566406 9.019531 -14.8125 9.96875 -14.8125 C 10.675781 -14.8125 11.265625 -14.71875 11.734375 -14.53125 C 12.210938 -14.34375 12.613281 -14.082031 12.9375 -13.75 C 13.289062 -13.375 13.539062 -12.90625 13.6875 -12.34375 C 13.84375 -11.789062 13.921875 -11.035156 13.921875 -10.078125 L 13.921875 -2.609375 C 13.921875 -1.816406 14.082031 -1.28125 14.40625 -1 C 14.726562 -0.726562 15.273438 -0.59375 16.046875 -0.59375 L 16.046875 0 C 15.722656 -0.0195312 15.234375 -0.0390625 14.578125 -0.0625 C 13.929688 -0.09375 13.300781 -0.109375 12.6875 -0.109375 C 12.070312 -0.109375 11.46875 -0.09375 10.875 -0.0625 C 10.289062 -0.0390625 9.847656 -0.0195312 9.546875 0 L 9.546875 -0.59375 C 10.222656 -0.59375 10.695312 -0.726562 10.96875 -1 C 11.25 -1.28125 11.390625 -1.816406 11.390625 -2.609375 L 11.390625 -10.703125 C 11.390625 -11.273438 11.34375 -11.800781 11.25 -12.28125 C 11.15625 -12.769531 10.945312 -13.164062 10.625 -13.46875 C 10.300781 -13.769531 9.800781 -13.921875 9.125 -13.921875 C 8.363281 -13.921875 7.6875 -13.703125 7.09375 -13.265625 C 6.507812 -12.835938 6.046875 -12.238281 5.703125 -11.46875 C 5.367188 -10.707031 5.203125 -9.832031 5.203125 -8.84375 L 5.203125 -2.609375 C 5.203125 -1.816406 5.34375 -1.28125 5.625 -1 C 5.90625 -0.726562 6.382812 -0.59375 7.0625 -0.59375 L 7.0625 0 C 6.757812 -0.0195312 6.3125 -0.0390625 5.71875 -0.0625 C 5.132812 -0.09375 4.535156 -0.109375 3.921875 -0.109375 C 3.304688 -0.109375 2.671875 -0.09375 2.015625 -0.0625 C 1.359375 -0.0390625 0.875 -0.0195312 0.5625 0 L 0.5625 -0.59375 C 1.320312 -0.59375 1.863281 -0.726562 2.1875 -1 C 2.519531 -1.28125 2.6875 -1.816406 2.6875 -2.609375 L 2.6875 -18.5625 C 2.6875 -19.40625 2.535156 -20.023438 2.234375 -20.421875 C 1.941406 -20.828125 1.382812 -21.03125 0.5625 -21.03125 L 0.5625 -21.609375 C 1.15625 -21.554688 1.734375 -21.53125 2.296875 -21.53125 C 2.835938 -21.53125 3.351562 -21.5625 3.84375 -21.625 C 4.34375 -21.695312 4.796875 -21.796875 5.203125 -21.921875 Z M 5.203125 -21.921875 "/></g></g></g><g fill="#ffffff" fill-opacity="1"><g transform="translate(84.403551, 339.347615)"><g><path d="M 4.78125 0.203125 C 4.019531 0.203125 3.359375 0.0546875 2.796875 -0.234375 C 2.234375 -0.523438 1.804688 -0.929688 1.515625 -1.453125 C 1.234375 -1.972656 1.09375 -2.582031 1.09375 -3.28125 C 1.09375 -4.101562 1.28125 -4.773438 1.65625 -5.296875 C 2.039062 -5.816406 2.53125 -6.234375 3.125 -6.546875 C 3.726562 -6.867188 4.359375 -7.132812 5.015625 -7.34375 C 5.679688 -7.5625 6.3125 -7.769531 6.90625 -7.96875 C 7.507812 -8.164062 8 -8.394531 8.375 -8.65625 C 8.757812 -8.914062 8.953125 -9.257812 8.953125 -9.6875 L 8.953125 -11.421875 C 8.953125 -12.203125 8.835938 -12.796875 8.609375 -13.203125 C 8.378906 -13.617188 8.066406 -13.894531 7.671875 -14.03125 C 7.273438 -14.175781 6.835938 -14.25 6.359375 -14.25 C 5.890625 -14.25 5.390625 -14.179688 4.859375 -14.046875 C 4.328125 -13.921875 3.898438 -13.65625 3.578125 -13.25 C 3.929688 -13.164062 4.238281 -12.972656 4.5 -12.671875 C 4.769531 -12.378906 4.90625 -12 4.90625 -11.53125 C 4.90625 -11.070312 4.753906 -10.707031 4.453125 -10.4375 C 4.148438 -10.164062 3.765625 -10.03125 3.296875 -10.03125 C 2.753906 -10.03125 2.359375 -10.203125 2.109375 -10.546875 C 1.859375 -10.890625 1.734375 -11.273438 1.734375 -11.703125 C 1.734375 -12.191406 1.851562 -12.582031 2.09375 -12.875 C 2.34375 -13.175781 2.65625 -13.457031 3.03125 -13.71875 C 3.457031 -14.019531 4.007812 -14.273438 4.6875 -14.484375 C 5.375 -14.703125 6.144531 -14.8125 7 -14.8125 C 7.757812 -14.8125 8.410156 -14.722656 8.953125 -14.546875 C 9.492188 -14.367188 9.941406 -14.113281 10.296875 -13.78125 C 10.785156 -13.332031 11.101562 -12.785156 11.25 -12.140625 C 11.40625 -11.492188 11.484375 -10.722656 11.484375 -9.828125 L 11.484375 -2.046875 C 11.484375 -1.578125 11.550781 -1.238281 11.6875 -1.03125 C 11.832031 -0.832031 12.050781 -0.734375 12.34375 -0.734375 C 12.550781 -0.734375 12.75 -0.78125 12.9375 -0.875 C 13.125 -0.96875 13.347656 -1.113281 13.609375 -1.3125 L 13.921875 -0.84375 C 13.523438 -0.539062 13.148438 -0.289062 12.796875 -0.09375 C 12.441406 0.101562 11.96875 0.203125 11.375 0.203125 C 10.832031 0.203125 10.378906 0.109375 10.015625 -0.078125 C 9.660156 -0.265625 9.394531 -0.539062 9.21875 -0.90625 C 9.039062 -1.269531 8.953125 -1.734375 8.953125 -2.296875 C 8.453125 -1.453125 7.851562 -0.820312 7.15625 -0.40625 C 6.457031 0 5.664062 0.203125 4.78125 0.203125 Z M 5.796875 -0.921875 C 6.410156 -0.921875 6.984375 -1.097656 7.515625 -1.453125 C 8.046875 -1.804688 8.523438 -2.335938 8.953125 -3.046875 L 8.953125 -8.546875 C 8.734375 -8.222656 8.410156 -7.953125 7.984375 -7.734375 C 7.554688 -7.523438 7.085938 -7.3125 6.578125 -7.09375 C 6.078125 -6.882812 5.597656 -6.632812 5.140625 -6.34375 C 4.679688 -6.050781 4.300781 -5.671875 4 -5.203125 C 3.707031 -4.742188 3.5625 -4.140625 3.5625 -3.390625 C 3.5625 -2.640625 3.757812 -2.039062 4.15625 -1.59375 C 4.5625 -1.144531 5.109375 -0.921875 5.796875 -0.921875 Z M 5.796875 -0.921875 "/></g></g></g><g fill="#ffffff" fill-opacity="1"><g transform="translate(98.345647, 339.347615)"><g><path d="M 10.046875 -14.8125 C 10.703125 -14.8125 11.269531 -14.71875 11.75 -14.53125 C 12.238281 -14.34375 12.644531 -14.082031 12.96875 -13.75 C 13.320312 -13.375 13.5625 -12.882812 13.6875 -12.28125 C 13.820312 -11.6875 13.890625 -10.953125 13.890625 -10.078125 L 13.890625 -2.609375 C 13.890625 -1.816406 14.050781 -1.28125 14.375 -1 C 14.707031 -0.726562 15.253906 -0.59375 16.015625 -0.59375 L 16.015625 0 C 15.703125 -0.0195312 15.21875 -0.0390625 14.5625 -0.0625 C 13.90625 -0.09375 13.269531 -0.109375 12.65625 -0.109375 C 12.039062 -0.109375 11.4375 -0.09375 10.84375 -0.0625 C 10.257812 -0.0390625 9.816406 -0.0195312 9.515625 0 L 9.515625 -0.59375 C 10.191406 -0.59375 10.671875 -0.726562 10.953125 -1 C 11.234375 -1.28125 11.375 -1.816406 11.375 -2.609375 L 11.375 -10.703125 C 11.375 -11.273438 11.332031 -11.800781 11.25 -12.28125 C 11.175781 -12.769531 10.988281 -13.164062 10.6875 -13.46875 C 10.394531 -13.769531 9.910156 -13.921875 9.234375 -13.921875 C 8.503906 -13.921875 7.851562 -13.695312 7.28125 -13.25 C 6.71875 -12.800781 6.269531 -12.1875 5.9375 -11.40625 C 5.613281 -10.632812 5.453125 -9.769531 5.453125 -8.8125 L 5.453125 -2.609375 C 5.453125 -1.816406 5.59375 -1.28125 5.875 -1 C 6.15625 -0.726562 6.632812 -0.59375 7.3125 -0.59375 L 7.3125 0 C 7.007812 -0.0195312 6.5625 -0.0390625 5.96875 -0.0625 C 5.382812 -0.09375 4.785156 -0.109375 4.171875 -0.109375 C 3.554688 -0.109375 2.921875 -0.09375 2.265625 -0.0625 C 1.609375 -0.0390625 1.125 -0.0195312 0.8125 0 L 0.8125 -0.59375 C 1.570312 -0.59375 2.113281 -0.726562 2.4375 -1 C 2.769531 -1.28125 2.9375 -1.816406 2.9375 -2.609375 L 2.9375 -11.375 C 2.9375 -12.207031 2.785156 -12.820312 2.484375 -13.21875 C 2.191406 -13.625 1.632812 -13.828125 0.8125 -13.828125 L 0.8125 -14.421875 C 1.40625 -14.367188 1.984375 -14.34375 2.546875 -14.34375 C 3.085938 -14.34375 3.601562 -14.375 4.09375 -14.4375 C 4.59375 -14.5 5.046875 -14.597656 5.453125 -14.734375 L 5.453125 -11.421875 C 5.941406 -12.640625 6.601562 -13.507812 7.4375 -14.03125 C 8.28125 -14.550781 9.148438 -14.8125 10.046875 -14.8125 Z M 18.484375 -14.8125 C 19.128906 -14.8125 19.695312 -14.71875 20.1875 -14.53125 C 20.675781 -14.34375 21.078125 -14.082031 21.390625 -13.75 C 21.742188 -13.375 21.984375 -12.882812 22.109375 -12.28125 C 22.242188 -11.6875 22.3125 -10.953125 22.3125 -10.078125 L 22.3125 -2.609375 C 22.3125 -1.816406 22.472656 -1.28125 22.796875 -1 C 23.128906 -0.726562 23.675781 -0.59375 24.4375 -0.59375 L 24.4375 0 C 24.125 -0.0195312 23.640625 -0.0390625 22.984375 -0.0625 C 22.335938 -0.09375 21.703125 -0.109375 21.078125 -0.109375 C 20.460938 -0.109375 19.859375 -0.09375 19.265625 -0.0625 C 18.679688 -0.0390625 18.242188 -0.0195312 17.953125 0 L 17.953125 -0.59375 C 18.617188 -0.59375 19.09375 -0.726562 19.375 -1 C 19.65625 -1.28125 19.796875 -1.816406 19.796875 -2.609375 L 19.796875 -10.703125 C 19.796875 -11.273438 19.757812 -11.800781 19.6875 -12.28125 C 19.613281 -12.769531 19.425781 -13.164062 19.125 -13.46875 C 18.820312 -13.769531 18.335938 -13.921875 17.671875 -13.921875 C 16.941406 -13.921875 16.289062 -13.695312 15.71875 -13.25 C 15.15625 -12.800781 14.707031 -12.191406 14.375 -11.421875 C 14.050781 -10.660156 13.890625 -9.800781 13.890625 -8.84375 L 13.796875 -11.453125 C 14.304688 -12.742188 14.988281 -13.625 15.84375 -14.09375 C 16.707031 -14.570312 17.585938 -14.8125 18.484375 -14.8125 Z M 18.484375 -14.8125 "/></g></g></g><g fill="#ffffff" fill-opacity="1"><g transform="translate(123.206252, 339.347615)"><g><path d="M 9.125 -14.8125 C 10.65625 -14.8125 11.925781 -14.179688 12.9375 -12.921875 C 13.945312 -11.660156 14.453125 -9.753906 14.453125 -7.203125 C 14.453125 -5.515625 14.164062 -4.101562 13.59375 -2.96875 C 13.019531 -1.84375 12.257812 -1 11.3125 -0.4375 C 10.363281 0.113281 9.328125 0.390625 8.203125 0.390625 C 7.265625 0.390625 6.363281 0.125 5.5 -0.40625 C 4.632812 -0.9375 3.988281 -1.722656 3.5625 -2.765625 L 4.109375 -2.46875 C 4.578125 -1.71875 5.15625 -1.160156 5.84375 -0.796875 C 6.539062 -0.429688 7.253906 -0.25 7.984375 -0.25 C 9.234375 -0.25 10.171875 -0.8125 10.796875 -1.9375 C 11.421875 -3.070312 11.734375 -4.828125 11.734375 -7.203125 C 11.734375 -8.710938 11.609375 -9.96875 11.359375 -10.96875 C 11.117188 -11.976562 10.742188 -12.726562 10.234375 -13.21875 C 9.734375 -13.71875 9.09375 -13.96875 8.3125 -13.96875 C 7.457031 -13.96875 6.660156 -13.578125 5.921875 -12.796875 C 5.179688 -12.023438 4.726562 -10.894531 4.5625 -9.40625 L 4.234375 -9.796875 C 4.429688 -11.390625 4.984375 -12.625 5.890625 -13.5 C 6.796875 -14.375 7.875 -14.8125 9.125 -14.8125 Z M 4.765625 -21.921875 L 4.765625 -1.453125 C 4.515625 -1.242188 4.265625 -1.03125 4.015625 -0.8125 C 3.765625 -0.601562 3.515625 -0.394531 3.265625 -0.1875 C 3.023438 0.0078125 2.773438 0.222656 2.515625 0.453125 L 2.046875 0.25 C 2.117188 -0.0078125 2.164062 -0.273438 2.1875 -0.546875 C 2.21875 -0.816406 2.234375 -1.09375 2.234375 -1.375 L 2.234375 -18.5625 C 2.234375 -19.40625 2.082031 -20.023438 1.78125 -20.421875 C 1.488281 -20.828125 0.929688 -21.03125 0.109375 -21.03125 L 0.109375 -21.609375 C 0.710938 -21.554688 1.289062 -21.53125 1.84375 -21.53125 C 2.382812 -21.53125 2.898438 -21.5625 3.390625 -21.625 C 3.890625 -21.695312 4.347656 -21.796875 4.765625 -21.921875 Z M 4.765625 -21.921875 "/></g></g></g><g fill="#ffffff" fill-opacity="1"><g transform="translate(138.968107, 339.347615)"><g><path d="M 7.609375 -14.8125 C 9.253906 -14.8125 10.539062 -14.3125 11.46875 -13.3125 C 12.394531 -12.3125 12.859375 -10.757812 12.859375 -8.65625 L 2.96875 -8.65625 L 2.9375 -9.1875 L 10.15625 -9.1875 C 10.195312 -10.101562 10.125 -10.945312 9.9375 -11.71875 C 9.75 -12.488281 9.453125 -13.109375 9.046875 -13.578125 C 8.648438 -14.046875 8.132812 -14.28125 7.5 -14.28125 C 6.644531 -14.28125 5.882812 -13.847656 5.21875 -12.984375 C 4.5625 -12.128906 4.164062 -10.769531 4.03125 -8.90625 L 4.109375 -8.796875 C 4.078125 -8.515625 4.050781 -8.203125 4.03125 -7.859375 C 4.007812 -7.523438 4 -7.191406 4 -6.859375 C 4 -5.585938 4.203125 -4.492188 4.609375 -3.578125 C 5.023438 -2.671875 5.5625 -1.976562 6.21875 -1.5 C 6.882812 -1.019531 7.570312 -0.78125 8.28125 -0.78125 C 8.84375 -0.78125 9.375 -0.867188 9.875 -1.046875 C 10.382812 -1.222656 10.851562 -1.515625 11.28125 -1.921875 C 11.707031 -2.335938 12.082031 -2.890625 12.40625 -3.578125 L 12.96875 -3.359375 C 12.757812 -2.742188 12.421875 -2.144531 11.953125 -1.5625 C 11.484375 -0.988281 10.894531 -0.519531 10.1875 -0.15625 C 9.476562 0.207031 8.660156 0.390625 7.734375 0.390625 C 6.390625 0.390625 5.234375 0.0820312 4.265625 -0.53125 C 3.304688 -1.144531 2.566406 -2 2.046875 -3.09375 C 1.535156 -4.1875 1.28125 -5.441406 1.28125 -6.859375 C 1.28125 -8.503906 1.539062 -9.914062 2.0625 -11.09375 C 2.59375 -12.28125 3.332031 -13.195312 4.28125 -13.84375 C 5.238281 -14.488281 6.347656 -14.8125 7.609375 -14.8125 Z M 7.609375 -14.8125 "/></g></g></g><g fill="#ffffff" fill-opacity="1"><g transform="translate(153.134175, 339.347615)"><g><path d="M 9.515625 -14.8125 C 10.023438 -14.8125 10.46875 -14.707031 10.84375 -14.5 C 11.226562 -14.300781 11.523438 -14.035156 11.734375 -13.703125 C 11.953125 -13.378906 12.0625 -13.007812 12.0625 -12.59375 C 12.0625 -12.132812 11.914062 -11.726562 11.625 -11.375 C 11.34375 -11.019531 10.957031 -10.84375 10.46875 -10.84375 C 10.082031 -10.84375 9.738281 -10.96875 9.4375 -11.21875 C 9.132812 -11.46875 8.984375 -11.828125 8.984375 -12.296875 C 8.984375 -12.648438 9.082031 -12.953125 9.28125 -13.203125 C 9.476562 -13.453125 9.695312 -13.648438 9.9375 -13.796875 C 9.8125 -13.984375 9.617188 -14.078125 9.359375 -14.078125 C 8.773438 -14.078125 8.238281 -13.90625 7.75 -13.5625 C 7.269531 -13.21875 6.859375 -12.773438 6.515625 -12.234375 C 6.179688 -11.691406 5.921875 -11.117188 5.734375 -10.515625 C 5.546875 -9.910156 5.453125 -9.34375 5.453125 -8.8125 L 5.453125 -2.890625 C 5.453125 -1.972656 5.71875 -1.359375 6.25 -1.046875 C 6.789062 -0.742188 7.515625 -0.59375 8.421875 -0.59375 L 8.421875 0 C 7.992188 -0.0195312 7.390625 -0.0390625 6.609375 -0.0625 C 5.828125 -0.09375 4.992188 -0.109375 4.109375 -0.109375 C 3.472656 -0.109375 2.84375 -0.09375 2.21875 -0.0625 C 1.59375 -0.0390625 1.125 -0.0195312 0.8125 0 L 0.8125 -0.59375 C 1.570312 -0.59375 2.113281 -0.726562 2.4375 -1 C 2.769531 -1.28125 2.9375 -1.816406 2.9375 -2.609375 L 2.9375 -11.375 C 2.9375 -12.207031 2.785156 -12.820312 2.484375 -13.21875 C 2.191406 -13.625 1.632812 -13.828125 0.8125 -13.828125 L 0.8125 -14.421875 C 1.40625 -14.367188 1.984375 -14.34375 2.546875 -14.34375 C 3.085938 -14.34375 3.601562 -14.375 4.09375 -14.4375 C 4.59375 -14.5 5.046875 -14.597656 5.453125 -14.734375 L 5.453125 -11.234375 C 5.660156 -11.773438 5.957031 -12.316406 6.34375 -12.859375 C 6.726562 -13.410156 7.191406 -13.875 7.734375 -14.25 C 8.273438 -14.625 8.867188 -14.8125 9.515625 -14.8125 Z M 9.515625 -14.8125 "/></g></g></g><g fill="#ffffff" fill-opacity="1"><g transform="translate(165.592476, 339.347615)"><g/></g></g><g fill="#ffffff" fill-opacity="1"><g transform="translate(172.563529, 339.347615)"><g><path d="M 7.671875 -14.8125 C 8.867188 -14.8125 9.941406 -14.550781 10.890625 -14.03125 C 11.835938 -13.507812 12.597656 -12.6875 13.171875 -11.5625 C 13.742188 -10.445312 14.03125 -8.992188 14.03125 -7.203125 C 14.03125 -5.410156 13.742188 -3.957031 13.171875 -2.84375 C 12.597656 -1.726562 11.835938 -0.910156 10.890625 -0.390625 C 9.941406 0.128906 8.867188 0.390625 7.671875 0.390625 C 6.492188 0.390625 5.425781 0.128906 4.46875 -0.390625 C 3.507812 -0.910156 2.742188 -1.726562 2.171875 -2.84375 C 1.597656 -3.957031 1.3125 -5.410156 1.3125 -7.203125 C 1.3125 -8.992188 1.597656 -10.445312 2.171875 -11.5625 C 2.742188 -12.6875 3.507812 -13.507812 4.46875 -14.03125 C 5.425781 -14.550781 6.492188 -14.8125 7.671875 -14.8125 Z M 7.671875 -14.25 C 6.609375 -14.25 5.734375 -13.695312 5.046875 -12.59375 C 4.367188 -11.5 4.03125 -9.703125 4.03125 -7.203125 C 4.03125 -4.691406 4.367188 -2.890625 5.046875 -1.796875 C 5.734375 -0.710938 6.609375 -0.171875 7.671875 -0.171875 C 8.734375 -0.171875 9.601562 -0.710938 10.28125 -1.796875 C 10.96875 -2.890625 11.3125 -4.691406 11.3125 -7.203125 C 11.3125 -9.703125 10.96875 -11.5 10.28125 -12.59375 C 9.601562 -13.695312 8.734375 -14.25 7.671875 -14.25 Z M 7.671875 -14.25 "/></g></g></g><g fill="#ffffff" fill-opacity="1"><g transform="translate(187.905432, 339.347615)"><g><path d="M 7.734375 -21.890625 C 8.253906 -21.890625 8.710938 -21.816406 9.109375 -21.671875 C 9.515625 -21.535156 9.863281 -21.359375 10.15625 -21.140625 C 10.4375 -20.910156 10.648438 -20.644531 10.796875 -20.34375 C 10.953125 -20.050781 11.03125 -19.738281 11.03125 -19.40625 C 11.03125 -18.976562 10.890625 -18.625 10.609375 -18.34375 C 10.328125 -18.0625 9.972656 -17.921875 9.546875 -17.921875 C 9.140625 -17.921875 8.78125 -18.054688 8.46875 -18.328125 C 8.164062 -18.597656 8.015625 -18.96875 8.015625 -19.4375 C 8.015625 -19.820312 8.117188 -20.132812 8.328125 -20.375 C 8.546875 -20.625 8.832031 -20.785156 9.1875 -20.859375 C 9.125 -21.023438 8.976562 -21.164062 8.75 -21.28125 C 8.519531 -21.40625 8.207031 -21.46875 7.8125 -21.46875 C 7.382812 -21.46875 7.015625 -21.375 6.703125 -21.1875 C 6.398438 -21.007812 6.160156 -20.757812 5.984375 -20.4375 C 5.765625 -20.050781 5.625 -19.46875 5.5625 -18.6875 C 5.507812 -17.914062 5.484375 -16.726562 5.484375 -15.125 L 5.484375 -14.390625 L 8.484375 -14.390625 L 8.484375 -13.828125 L 5.484375 -13.828125 L 5.484375 -2.890625 C 5.484375 -1.972656 5.75 -1.359375 6.28125 -1.046875 C 6.8125 -0.742188 7.535156 -0.59375 8.453125 -0.59375 L 8.453125 0 C 8.023438 -0.0195312 7.414062 -0.0390625 6.625 -0.0625 C 5.84375 -0.09375 5.015625 -0.109375 4.140625 -0.109375 C 3.503906 -0.109375 2.875 -0.09375 2.25 -0.0625 C 1.625 -0.0390625 1.15625 -0.0195312 0.84375 0 L 0.84375 -0.59375 C 1.601562 -0.59375 2.144531 -0.726562 2.46875 -1 C 2.800781 -1.28125 2.96875 -1.816406 2.96875 -2.609375 L 2.96875 -13.828125 L 0.734375 -13.828125 L 0.734375 -14.390625 L 2.96875 -14.390625 C 2.96875 -15.492188 3.015625 -16.414062 3.109375 -17.15625 C 3.203125 -17.90625 3.347656 -18.546875 3.546875 -19.078125 C 3.753906 -19.609375 4.035156 -20.082031 4.390625 -20.5 C 4.765625 -20.925781 5.238281 -21.265625 5.8125 -21.515625 C 6.394531 -21.765625 7.035156 -21.890625 7.734375 -21.890625 Z M 7.734375 -21.890625 "/></g></g></g><g fill="#ffffff" fill-opacity="1"><g transform="translate(197.200163, 339.347615)"><g/></g></g><g fill="#ffffff" fill-opacity="1"><g transform="translate(204.171217, 339.347615)"><g><path d="M 10.390625 -20.21875 C 11.617188 -20.21875 12.628906 -20.035156 13.421875 -19.671875 C 14.210938 -19.304688 14.921875 -18.878906 15.546875 -18.390625 C 15.910156 -18.109375 16.191406 -18.078125 16.390625 -18.296875 C 16.585938 -18.515625 16.722656 -19.023438 16.796875 -19.828125 L 17.4375 -19.828125 C 17.40625 -19.128906 17.378906 -18.285156 17.359375 -17.296875 C 17.335938 -16.304688 17.328125 -15.003906 17.328125 -13.390625 L 16.6875 -13.390625 C 16.550781 -14.191406 16.425781 -14.828125 16.3125 -15.296875 C 16.207031 -15.773438 16.078125 -16.179688 15.921875 -16.515625 C 15.765625 -16.859375 15.550781 -17.195312 15.28125 -17.53125 C 14.707031 -18.289062 13.976562 -18.84375 13.09375 -19.1875 C 12.21875 -19.539062 11.296875 -19.71875 10.328125 -19.71875 C 9.410156 -19.71875 8.582031 -19.488281 7.84375 -19.03125 C 7.113281 -18.570312 6.484375 -17.910156 5.953125 -17.046875 C 5.421875 -16.191406 5.007812 -15.15625 4.71875 -13.9375 C 4.425781 -12.726562 4.28125 -11.367188 4.28125 -9.859375 C 4.28125 -8.285156 4.4375 -6.894531 4.75 -5.6875 C 5.070312 -4.488281 5.515625 -3.476562 6.078125 -2.65625 C 6.648438 -1.832031 7.320312 -1.210938 8.09375 -0.796875 C 8.875 -0.378906 9.710938 -0.171875 10.609375 -0.171875 C 11.453125 -0.171875 12.328125 -0.335938 13.234375 -0.671875 C 14.148438 -1.003906 14.875 -1.546875 15.40625 -2.296875 C 15.8125 -2.835938 16.09375 -3.425781 16.25 -4.0625 C 16.40625 -4.695312 16.550781 -5.582031 16.6875 -6.71875 L 17.328125 -6.71875 C 17.328125 -5.019531 17.335938 -3.648438 17.359375 -2.609375 C 17.378906 -1.578125 17.40625 -0.707031 17.4375 0 L 16.796875 0 C 16.722656 -0.800781 16.597656 -1.300781 16.421875 -1.5 C 16.242188 -1.707031 15.953125 -1.679688 15.546875 -1.421875 C 14.847656 -0.941406 14.113281 -0.519531 13.34375 -0.15625 C 12.570312 0.207031 11.578125 0.390625 10.359375 0.390625 C 8.585938 0.390625 7.035156 -0.0078125 5.703125 -0.8125 C 4.367188 -1.613281 3.332031 -2.769531 2.59375 -4.28125 C 1.851562 -5.789062 1.484375 -7.613281 1.484375 -9.75 C 1.484375 -11.832031 1.863281 -13.65625 2.625 -15.21875 C 3.394531 -16.789062 4.445312 -18.015625 5.78125 -18.890625 C 7.113281 -19.773438 8.648438 -20.21875 10.390625 -20.21875 Z M 10.390625 -20.21875 "/></g></g></g><g fill="#ffffff" fill-opacity="1"><g transform="translate(223.432595, 339.347615)"><g><path d="M 7.671875 -14.8125 C 8.867188 -14.8125 9.941406 -14.550781 10.890625 -14.03125 C 11.835938 -13.507812 12.597656 -12.6875 13.171875 -11.5625 C 13.742188 -10.445312 14.03125 -8.992188 14.03125 -7.203125 C 14.03125 -5.410156 13.742188 -3.957031 13.171875 -2.84375 C 12.597656 -1.726562 11.835938 -0.910156 10.890625 -0.390625 C 9.941406 0.128906 8.867188 0.390625 7.671875 0.390625 C 6.492188 0.390625 5.425781 0.128906 4.46875 -0.390625 C 3.507812 -0.910156 2.742188 -1.726562 2.171875 -2.84375 C 1.597656 -3.957031 1.3125 -5.410156 1.3125 -7.203125 C 1.3125 -8.992188 1.597656 -10.445312 2.171875 -11.5625 C 2.742188 -12.6875 3.507812 -13.507812 4.46875 -14.03125 C 5.425781 -14.550781 6.492188 -14.8125 7.671875 -14.8125 Z M 7.671875 -14.25 C 6.609375 -14.25 5.734375 -13.695312 5.046875 -12.59375 C 4.367188 -11.5 4.03125 -9.703125 4.03125 -7.203125 C 4.03125 -4.691406 4.367188 -2.890625 5.046875 -1.796875 C 5.734375 -0.710938 6.609375 -0.171875 7.671875 -0.171875 C 8.734375 -0.171875 9.601562 -0.710938 10.28125 -1.796875 C 10.96875 -2.890625 11.3125 -4.691406 11.3125 -7.203125 C 11.3125 -9.703125 10.96875 -11.5 10.28125 -12.59375 C 9.601562 -13.695312 8.734375 -14.25 7.671875 -14.25 Z M 7.671875 -14.25 "/></g></g></g><g fill="#ffffff" fill-opacity="1"><g transform="translate(238.774498, 339.347615)"><g><path d="M 10.046875 -14.8125 C 10.703125 -14.8125 11.269531 -14.71875 11.75 -14.53125 C 12.238281 -14.34375 12.644531 -14.082031 12.96875 -13.75 C 13.320312 -13.375 13.5625 -12.882812 13.6875 -12.28125 C 13.820312 -11.6875 13.890625 -10.953125 13.890625 -10.078125 L 13.890625 -2.609375 C 13.890625 -1.816406 14.050781 -1.28125 14.375 -1 C 14.707031 -0.726562 15.253906 -0.59375 16.015625 -0.59375 L 16.015625 0 C 15.703125 -0.0195312 15.21875 -0.0390625 14.5625 -0.0625 C 13.90625 -0.09375 13.269531 -0.109375 12.65625 -0.109375 C 12.039062 -0.109375 11.4375 -0.09375 10.84375 -0.0625 C 10.257812 -0.0390625 9.816406 -0.0195312 9.515625 0 L 9.515625 -0.59375 C 10.191406 -0.59375 10.671875 -0.726562 10.953125 -1 C 11.234375 -1.28125 11.375 -1.816406 11.375 -2.609375 L 11.375 -10.703125 C 11.375 -11.273438 11.332031 -11.800781 11.25 -12.28125 C 11.175781 -12.769531 10.988281 -13.164062 10.6875 -13.46875 C 10.394531 -13.769531 9.910156 -13.921875 9.234375 -13.921875 C 8.503906 -13.921875 7.851562 -13.695312 7.28125 -13.25 C 6.71875 -12.800781 6.269531 -12.1875 5.9375 -11.40625 C 5.613281 -10.632812 5.453125 -9.769531 5.453125 -8.8125 L 5.453125 -2.609375 C 5.453125 -1.816406 5.59375 -1.28125 5.875 -1 C 6.15625 -0.726562 6.632812 -0.59375 7.3125 -0.59375 L 7.3125 0 C 7.007812 -0.0195312 6.5625 -0.0390625 5.96875 -0.0625 C 5.382812 -0.09375 4.785156 -0.109375 4.171875 -0.109375 C 3.554688 -0.109375 2.921875 -0.09375 2.265625 -0.0625 C 1.609375 -0.0390625 1.125 -0.0195312 0.8125 0 L 0.8125 -0.59375 C 1.570312 -0.59375 2.113281 -0.726562 2.4375 -1 C 2.769531 -1.28125 2.9375 -1.816406 2.9375 -2.609375 L 2.9375 -11.375 C 2.9375 -12.207031 2.785156 -12.820312 2.484375 -13.21875 C 2.191406 -13.625 1.632812 -13.828125 0.8125 -13.828125 L 0.8125 -14.421875 C 1.40625 -14.367188 1.984375 -14.34375 2.546875 -14.34375 C 3.085938 -14.34375 3.601562 -14.375 4.09375 -14.4375 C 4.59375 -14.5 5.046875 -14.597656 5.453125 -14.734375 L 5.453125 -11.421875 C 5.941406 -12.640625 6.601562 -13.507812 7.4375 -14.03125 C 8.28125 -14.550781 9.148438 -14.8125 10.046875 -14.8125 Z M 18.484375 -14.8125 C 19.128906 -14.8125 19.695312 -14.71875 20.1875 -14.53125 C 20.675781 -14.34375 21.078125 -14.082031 21.390625 -13.75 C 21.742188 -13.375 21.984375 -12.882812 22.109375 -12.28125 C 22.242188 -11.6875 22.3125 -10.953125 22.3125 -10.078125 L 22.3125 -2.609375 C 22.3125 -1.816406 22.472656 -1.28125 22.796875 -1 C 23.128906 -0.726562 23.675781 -0.59375 24.4375 -0.59375 L 24.4375 0 C 24.125 -0.0195312 23.640625 -0.0390625 22.984375 -0.0625 C 22.335938 -0.09375 21.703125 -0.109375 21.078125 -0.109375 C 20.460938 -0.109375 19.859375 -0.09375 19.265625 -0.0625 C 18.679688 -0.0390625 18.242188 -0.0195312 17.953125 0 L 17.953125 -0.59375 C 18.617188 -0.59375 19.09375 -0.726562 19.375 -1 C 19.65625 -1.28125 19.796875 -1.816406 19.796875 -2.609375 L 19.796875 -10.703125 C 19.796875 -11.273438 19.757812 -11.800781 19.6875 -12.28125 C 19.613281 -12.769531 19.425781 -13.164062 19.125 -13.46875 C 18.820312 -13.769531 18.335938 -13.921875 17.671875 -13.921875 C 16.941406 -13.921875 16.289062 -13.695312 15.71875 -13.25 C 15.15625 -12.800781 14.707031 -12.191406 14.375 -11.421875 C 14.050781 -10.660156 13.890625 -9.800781 13.890625 -8.84375 L 13.796875 -11.453125 C 14.304688 -12.742188 14.988281 -13.625 15.84375 -14.09375 C 16.707031 -14.570312 17.585938 -14.8125 18.484375 -14.8125 Z M 18.484375 -14.8125 "/></g></g></g><g fill="#ffffff" fill-opacity="1"><g transform="translate(263.635103, 339.347615)"><g><path d="M 10.046875 -14.8125 C 10.703125 -14.8125 11.269531 -14.71875 11.75 -14.53125 C 12.238281 -14.34375 12.644531 -14.082031 12.96875 -13.75 C 13.320312 -13.375 13.5625 -12.882812 13.6875 -12.28125 C 13.820312 -11.6875 13.890625 -10.953125 13.890625 -10.078125 L 13.890625 -2.609375 C 13.890625 -1.816406 14.050781 -1.28125 14.375 -1 C 14.707031 -0.726562 15.253906 -0.59375 16.015625 -0.59375 L 16.015625 0 C 15.703125 -0.0195312 15.21875 -0.0390625 14.5625 -0.0625 C 13.90625 -0.09375 13.269531 -0.109375 12.65625 -0.109375 C 12.039062 -0.109375 11.4375 -0.09375 10.84375 -0.0625 C 10.257812 -0.0390625 9.816406 -0.0195312 9.515625 0 L 9.515625 -0.59375 C 10.191406 -0.59375 10.671875 -0.726562 10.953125 -1 C 11.234375 -1.28125 11.375 -1.816406 11.375 -2.609375 L 11.375 -10.703125 C 11.375 -11.273438 11.332031 -11.800781 11.25 -12.28125 C 11.175781 -12.769531 10.988281 -13.164062 10.6875 -13.46875 C 10.394531 -13.769531 9.910156 -13.921875 9.234375 -13.921875 C 8.503906 -13.921875 7.851562 -13.695312 7.28125 -13.25 C 6.71875 -12.800781 6.269531 -12.1875 5.9375 -11.40625 C 5.613281 -10.632812 5.453125 -9.769531 5.453125 -8.8125 L 5.453125 -2.609375 C 5.453125 -1.816406 5.59375 -1.28125 5.875 -1 C 6.15625 -0.726562 6.632812 -0.59375 7.3125 -0.59375 L 7.3125 0 C 7.007812 -0.0195312 6.5625 -0.0390625 5.96875 -0.0625 C 5.382812 -0.09375 4.785156 -0.109375 4.171875 -0.109375 C 3.554688 -0.109375 2.921875 -0.09375 2.265625 -0.0625 C 1.609375 -0.0390625 1.125 -0.0195312 0.8125 0 L 0.8125 -0.59375 C 1.570312 -0.59375 2.113281 -0.726562 2.4375 -1 C 2.769531 -1.28125 2.9375 -1.816406 2.9375 -2.609375 L 2.9375 -11.375 C 2.9375 -12.207031 2.785156 -12.820312 2.484375 -13.21875 C 2.191406 -13.625 1.632812 -13.828125 0.8125 -13.828125 L 0.8125 -14.421875 C 1.40625 -14.367188 1.984375 -14.34375 2.546875 -14.34375 C 3.085938 -14.34375 3.601562 -14.375 4.09375 -14.4375 C 4.59375 -14.5 5.046875 -14.597656 5.453125 -14.734375 L 5.453125 -11.421875 C 5.941406 -12.640625 6.601562 -13.507812 7.4375 -14.03125 C 8.28125 -14.550781 9.148438 -14.8125 10.046875 -14.8125 Z M 18.484375 -14.8125 C 19.128906 -14.8125 19.695312 -14.71875 20.1875 -14.53125 C 20.675781 -14.34375 21.078125 -14.082031 21.390625 -13.75 C 21.742188 -13.375 21.984375 -12.882812 22.109375 -12.28125 C 22.242188 -11.6875 22.3125 -10.953125 22.3125 -10.078125 L 22.3125 -2.609375 C 22.3125 -1.816406 22.472656 -1.28125 22.796875 -1 C 23.128906 -0.726562 23.675781 -0.59375 24.4375 -0.59375 L 24.4375 0 C 24.125 -0.0195312 23.640625 -0.0390625 22.984375 -0.0625 C 22.335938 -0.09375 21.703125 -0.109375 21.078125 -0.109375 C 20.460938 -0.109375 19.859375 -0.09375 19.265625 -0.0625 C 18.679688 -0.0390625 18.242188 -0.0195312 17.953125 0 L 17.953125 -0.59375 C 18.617188 -0.59375 19.09375 -0.726562 19.375 -1 C 19.65625 -1.28125 19.796875 -1.816406 19.796875 -2.609375 L 19.796875 -10.703125 C 19.796875 -11.273438 19.757812 -11.800781 19.6875 -12.28125 C 19.613281 -12.769531 19.425781 -13.164062 19.125 -13.46875 C 18.820312 -13.769531 18.335938 -13.921875 17.671875 -13.921875 C 16.941406 -13.921875 16.289062 -13.695312 15.71875 -13.25 C 15.15625 -12.800781 14.707031 -12.191406 14.375 -11.421875 C 14.050781 -10.660156 13.890625 -9.800781 13.890625 -8.84375 L 13.796875 -11.453125 C 14.304688 -12.742188 14.988281 -13.625 15.84375 -14.09375 C 16.707031 -14.570312 17.585938 -14.8125 18.484375 -14.8125 Z M 18.484375 -14.8125 "/></g></g></g><g fill="#ffffff" fill-opacity="1"><g transform="translate(288.495697, 339.347615)"><g><path d="M 7.609375 -14.8125 C 9.253906 -14.8125 10.539062 -14.3125 11.46875 -13.3125 C 12.394531 -12.3125 12.859375 -10.757812 12.859375 -8.65625 L 2.96875 -8.65625 L 2.9375 -9.1875 L 10.15625 -9.1875 C 10.195312 -10.101562 10.125 -10.945312 9.9375 -11.71875 C 9.75 -12.488281 9.453125 -13.109375 9.046875 -13.578125 C 8.648438 -14.046875 8.132812 -14.28125 7.5 -14.28125 C 6.644531 -14.28125 5.882812 -13.847656 5.21875 -12.984375 C 4.5625 -12.128906 4.164062 -10.769531 4.03125 -8.90625 L 4.109375 -8.796875 C 4.078125 -8.515625 4.050781 -8.203125 4.03125 -7.859375 C 4.007812 -7.523438 4 -7.191406 4 -6.859375 C 4 -5.585938 4.203125 -4.492188 4.609375 -3.578125 C 5.023438 -2.671875 5.5625 -1.976562 6.21875 -1.5 C 6.882812 -1.019531 7.570312 -0.78125 8.28125 -0.78125 C 8.84375 -0.78125 9.375 -0.867188 9.875 -1.046875 C 10.382812 -1.222656 10.851562 -1.515625 11.28125 -1.921875 C 11.707031 -2.335938 12.082031 -2.890625 12.40625 -3.578125 L 12.96875 -3.359375 C 12.757812 -2.742188 12.421875 -2.144531 11.953125 -1.5625 C 11.484375 -0.988281 10.894531 -0.519531 10.1875 -0.15625 C 9.476562 0.207031 8.660156 0.390625 7.734375 0.390625 C 6.390625 0.390625 5.234375 0.0820312 4.265625 -0.53125 C 3.304688 -1.144531 2.566406 -2 2.046875 -3.09375 C 1.535156 -4.1875 1.28125 -5.441406 1.28125 -6.859375 C 1.28125 -8.503906 1.539062 -9.914062 2.0625 -11.09375 C 2.59375 -12.28125 3.332031 -13.195312 4.28125 -13.84375 C 5.238281 -14.488281 6.347656 -14.8125 7.609375 -14.8125 Z M 7.609375 -14.8125 "/></g></g></g><g fill="#ffffff" fill-opacity="1"><g transform="translate(302.661765, 339.347615)"><g><path d="M 9.515625 -14.8125 C 10.023438 -14.8125 10.46875 -14.707031 10.84375 -14.5 C 11.226562 -14.300781 11.523438 -14.035156 11.734375 -13.703125 C 11.953125 -13.378906 12.0625 -13.007812 12.0625 -12.59375 C 12.0625 -12.132812 11.914062 -11.726562 11.625 -11.375 C 11.34375 -11.019531 10.957031 -10.84375 10.46875 -10.84375 C 10.082031 -10.84375 9.738281 -10.96875 9.4375 -11.21875 C 9.132812 -11.46875 8.984375 -11.828125 8.984375 -12.296875 C 8.984375 -12.648438 9.082031 -12.953125 9.28125 -13.203125 C 9.476562 -13.453125 9.695312 -13.648438 9.9375 -13.796875 C 9.8125 -13.984375 9.617188 -14.078125 9.359375 -14.078125 C 8.773438 -14.078125 8.238281 -13.90625 7.75 -13.5625 C 7.269531 -13.21875 6.859375 -12.773438 6.515625 -12.234375 C 6.179688 -11.691406 5.921875 -11.117188 5.734375 -10.515625 C 5.546875 -9.910156 5.453125 -9.34375 5.453125 -8.8125 L 5.453125 -2.890625 C 5.453125 -1.972656 5.71875 -1.359375 6.25 -1.046875 C 6.789062 -0.742188 7.515625 -0.59375 8.421875 -0.59375 L 8.421875 0 C 7.992188 -0.0195312 7.390625 -0.0390625 6.609375 -0.0625 C 5.828125 -0.09375 4.992188 -0.109375 4.109375 -0.109375 C 3.472656 -0.109375 2.84375 -0.09375 2.21875 -0.0625 C 1.59375 -0.0390625 1.125 -0.0195312 0.8125 0 L 0.8125 -0.59375 C 1.570312 -0.59375 2.113281 -0.726562 2.4375 -1 C 2.769531 -1.28125 2.9375 -1.816406 2.9375 -2.609375 L 2.9375 -11.375 C 2.9375 -12.207031 2.785156 -12.820312 2.484375 -13.21875 C 2.191406 -13.625 1.632812 -13.828125 0.8125 -13.828125 L 0.8125 -14.421875 C 1.40625 -14.367188 1.984375 -14.34375 2.546875 -14.34375 C 3.085938 -14.34375 3.601562 -14.375 4.09375 -14.4375 C 4.59375 -14.5 5.046875 -14.597656 5.453125 -14.734375 L 5.453125 -11.234375 C 5.660156 -11.773438 5.957031 -12.316406 6.34375 -12.859375 C 6.726562 -13.410156 7.191406 -13.875 7.734375 -14.25 C 8.273438 -14.625 8.867188 -14.8125 9.515625 -14.8125 Z M 9.515625 -14.8125 "/></g></g></g><g fill="#ffffff" fill-opacity="1"><g transform="translate(315.120055, 339.347615)"><g><path d="M 7.8125 -14.8125 C 8.40625 -14.8125 8.984375 -14.734375 9.546875 -14.578125 C 10.109375 -14.429688 10.613281 -14.210938 11.0625 -13.921875 C 11.488281 -13.640625 11.8125 -13.316406 12.03125 -12.953125 C 12.257812 -12.585938 12.375 -12.191406 12.375 -11.765625 C 12.375 -11.253906 12.234375 -10.863281 11.953125 -10.59375 C 11.671875 -10.320312 11.316406 -10.1875 10.890625 -10.1875 C 10.484375 -10.1875 10.125 -10.304688 9.8125 -10.546875 C 9.507812 -10.796875 9.359375 -11.144531 9.359375 -11.59375 C 9.359375 -12.019531 9.472656 -12.363281 9.703125 -12.625 C 9.929688 -12.882812 10.207031 -13.050781 10.53125 -13.125 C 10.34375 -13.46875 10.007812 -13.75 9.53125 -13.96875 C 9.050781 -14.195312 8.546875 -14.3125 8.015625 -14.3125 C 7.546875 -14.3125 7.078125 -14.195312 6.609375 -13.96875 C 6.140625 -13.75 5.707031 -13.378906 5.3125 -12.859375 C 4.925781 -12.347656 4.609375 -11.648438 4.359375 -10.765625 C 4.117188 -9.878906 4 -8.773438 4 -7.453125 C 4 -5.804688 4.1875 -4.5 4.5625 -3.53125 C 4.9375 -2.5625 5.425781 -1.863281 6.03125 -1.4375 C 6.632812 -1.019531 7.300781 -0.8125 8.03125 -0.8125 C 8.519531 -0.8125 9.015625 -0.90625 9.515625 -1.09375 C 10.023438 -1.28125 10.503906 -1.582031 10.953125 -2 C 11.398438 -2.414062 11.78125 -2.984375 12.09375 -3.703125 L 12.625 -3.5 C 12.4375 -2.90625 12.128906 -2.300781 11.703125 -1.6875 C 11.273438 -1.082031 10.710938 -0.582031 10.015625 -0.1875 C 9.328125 0.195312 8.476562 0.390625 7.46875 0.390625 C 6.3125 0.390625 5.265625 0.09375 4.328125 -0.5 C 3.398438 -1.101562 2.660156 -1.957031 2.109375 -3.0625 C 1.554688 -4.175781 1.28125 -5.5 1.28125 -7.03125 C 1.28125 -8.5625 1.554688 -9.910156 2.109375 -11.078125 C 2.660156 -12.242188 3.429688 -13.15625 4.421875 -13.8125 C 5.410156 -14.476562 6.539062 -14.8125 7.8125 -14.8125 Z M 7.8125 -14.8125 "/></g></g></g><g fill="#ffffff" fill-opacity="1"><g transform="translate(328.726209, 339.347615)"><g><path d="M 7.609375 -14.8125 C 9.253906 -14.8125 10.539062 -14.3125 11.46875 -13.3125 C 12.394531 -12.3125 12.859375 -10.757812 12.859375 -8.65625 L 2.96875 -8.65625 L 2.9375 -9.1875 L 10.15625 -9.1875 C 10.195312 -10.101562 10.125 -10.945312 9.9375 -11.71875 C 9.75 -12.488281 9.453125 -13.109375 9.046875 -13.578125 C 8.648438 -14.046875 8.132812 -14.28125 7.5 -14.28125 C 6.644531 -14.28125 5.882812 -13.847656 5.21875 -12.984375 C 4.5625 -12.128906 4.164062 -10.769531 4.03125 -8.90625 L 4.109375 -8.796875 C 4.078125 -8.515625 4.050781 -8.203125 4.03125 -7.859375 C 4.007812 -7.523438 4 -7.191406 4 -6.859375 C 4 -5.585938 4.203125 -4.492188 4.609375 -3.578125 C 5.023438 -2.671875 5.5625 -1.976562 6.21875 -1.5 C 6.882812 -1.019531 7.570312 -0.78125 8.28125 -0.78125 C 8.84375 -0.78125 9.375 -0.867188 9.875 -1.046875 C 10.382812 -1.222656 10.851562 -1.515625 11.28125 -1.921875 C 11.707031 -2.335938 12.082031 -2.890625 12.40625 -3.578125 L 12.96875 -3.359375 C 12.757812 -2.742188 12.421875 -2.144531 11.953125 -1.5625 C 11.484375 -0.988281 10.894531 -0.519531 10.1875 -0.15625 C 9.476562 0.207031 8.660156 0.390625 7.734375 0.390625 C 6.390625 0.390625 5.234375 0.0820312 4.265625 -0.53125 C 3.304688 -1.144531 2.566406 -2 2.046875 -3.09375 C 1.535156 -4.1875 1.28125 -5.441406 1.28125 -6.859375 C 1.28125 -8.503906 1.539062 -9.914062 2.0625 -11.09375 C 2.59375 -12.28125 3.332031 -13.195312 4.28125 -13.84375 C 5.238281 -14.488281 6.347656 -14.8125 7.609375 -14.8125 Z M 7.609375 -14.8125 "/></g></g></g></svg>